SplineFontDB: 3.0
FontName: Asap-Bold
FullName: Asap Bold
FamilyName: Asap
Weight: Bold
Copyright: Copyright (c) 2011 by Omnibus-Type (www.omnibus-type.com) with Reserved Font Name "Asap".
Version: 1.001
ItalicAngle: 0
UnderlinePosition: -23
UnderlineWidth: 70
Ascent: 800
Descent: 200
sfntRevision: 0x00010042
LayerCount: 2
Layer: 0 1 "Back"  1
Layer: 1 1 "Fore"  0
XUID: [1021 596 492785774 3260519]
FSType: 0
OS2Version: 2
OS2_WeightWidthSlopeOnly: 0
OS2_UseTypoMetrics: 1
CreationTime: 1326988594
ModificationTime: 1326994451
PfmFamily: 17
TTFWeight: 700
TTFWidth: 5
LineGap: 0
VLineGap: 0
Panose: 2 0 5 6 4 0 0 2 0 4
OS2TypoAscent: 134
OS2TypoAOffset: 1
OS2TypoDescent: -12
OS2TypoDOffset: 1
OS2TypoLinegap: 0
OS2WinAscent: 0
OS2WinAOffset: 1
OS2WinDescent: 0
OS2WinDOffset: 1
HheadAscent: 0
HheadAOffset: 1
HheadDescent: 0
HheadDOffset: 1
OS2SubXSize: 650
OS2SubYSize: 600
OS2SubXOff: 0
OS2SubYOff: 75
OS2SupXSize: 650
OS2SupYSize: 600
OS2SupXOff: 0
OS2SupYOff: 350
OS2StrikeYSize: 70
OS2StrikeYPos: 313
OS2CodePages: 20000001.00000000
OS2UnicodeRanges: 00000003.00000000.00000000.00000000
DEI: 91125
TtTable: prep
PUSHW_1
 511
SCANCTRL
PUSHB_1
 4
SCANTYPE
EndTTInstrs
ShortTable: maxp 16
  1
  0
  252
  90
  7
  0
  0
  2
  0
  1
  1
  0
  64
  0
  0
  0
EndShort
LangName: 1033 "" "" "" "Omnibus-Type: Asap Bold: 2011" "" "Version 1.001" "" "Asap is a trademark of Omnibus-Type." "Omnibus-Type" "Pablo Cosgaya" "Asap is based on Ancha (designed by Pablo Cosgaya & Hector Gatti). This family, specially developed for screen and desktop use, offers of a standarised character width on all styles, which helps retain the same length on all text lines." "www.omnibus-type.com" "www.omnibus-type.com" "This Font Software is licensed under the SIL Open Font License, Version 1.1. This license is available with a FAQ at: http://scripts.sil.org/OFL" "http://scripts.sil.org/OFL" 
GaspTable: 1 65535 15 1
Encoding: UnicodeBmp
UnicodeInterp: none
NameList: Adobe Glyph List
DisplaySize: -24

StartChar: exclam
Encoding: 33 33 4
Width: 294
GlyphClass: 2
Flags: W
LayerCount: 2
Fore
SplineSet
145 222 m 2,0,1
 116 222 116 222 105 229.5 c 128,-1,2
 94 237 94 237 94 254 c 2,3,-1
 94 670 l 2,4,5
 94 702 94 702 154 702 c 2,6,-1
 197 702 l 2,7,8
 257 702 257 702 257 674 c 0,9,10
 257 667 257 667 207 254 c 0,11,12
 205 237 205 237 195 229.5 c 128,-1,13
 185 222 185 222 156 222 c 2,14,-1
 145 222 l 2,0,1
74 30 m 2,15,-1
 74 122 l 2,16,17
 74 154 74 154 134 154 c 2,18,-1
 166 154 l 2,19,20
 226 154 226 154 226 122 c 2,21,-1
 226 30 l 2,22,23
 226 -2 226 -2 166 -2 c 2,24,-1
 134 -2 l 2,25,26
 74 -2 74 -2 74 30 c 2,15,-1
EndSplineSet
EndChar

StartChar: quotedbl
Encoding: 34 34 5
Width: 319
GlyphClass: 2
Flags: W
LayerCount: 2
Fore
SplineSet
226 464 m 2,0,1
 196 464 196 464 192 494 c 2,2,-1
 170 665 l 1,3,-1
 170 670 l 2,4,5
 170 702 170 702 230 702 c 2,6,-1
 240 702 l 2,7,8
 300 702 300 702 300 670 c 1,9,-1
 278 494 l 2,10,11
 274 464 274 464 244 464 c 2,12,-1
 226 464 l 2,0,1
75 464 m 2,13,14
 45 464 45 464 41 494 c 2,15,-1
 19 665 l 1,16,-1
 19 670 l 2,17,18
 19 702 19 702 79 702 c 2,19,-1
 89 702 l 2,20,21
 149 702 149 702 149 670 c 1,22,-1
 127 494 l 2,23,24
 123 464 123 464 93 464 c 2,25,-1
 75 464 l 2,13,14
EndSplineSet
EndChar

StartChar: numbersign
Encoding: 35 35 6
Width: 534
GlyphClass: 2
Flags: W
LayerCount: 2
Fore
SplineSet
51 21 m 0,0,1
 51 26 51 26 52 29 c 2,2,-1
 81 183 l 1,3,-1
 38 183 l 2,4,5
 8 183 8 183 8 233 c 2,6,-1
 8 243 l 2,7,8
 8 293 8 293 38 293 c 2,9,-1
 101 293 l 1,10,-1
 122 403 l 1,11,-1
 74 403 l 2,12,13
 44 403 44 403 44 453 c 2,14,-1
 44 463 l 2,15,16
 44 513 44 513 74 513 c 2,17,-1
 142 513 l 1,18,-1
 168 655 l 2,19,20
 174 686 174 686 224 686 c 2,21,-1
 237 686 l 2,22,23
 282 686 282 686 282 664 c 0,24,25
 282 658 282 658 281 655 c 2,26,-1
 255 513 l 1,27,-1
 349 513 l 1,28,-1
 375 655 l 2,29,30
 381 686 381 686 431 686 c 2,31,-1
 444 686 l 2,32,33
 489 686 489 686 489 664 c 0,34,35
 489 658 489 658 488 655 c 2,36,-1
 462 513 l 1,37,-1
 495 513 l 2,38,39
 525 513 525 513 525 463 c 2,40,-1
 525 453 l 2,41,42
 525 403 525 403 495 403 c 2,43,-1
 442 403 l 1,44,-1
 421 293 l 1,45,-1
 463 293 l 2,46,47
 493 293 493 293 493 243 c 2,48,-1
 493 233 l 2,49,50
 493 183 493 183 463 183 c 2,51,-1
 401 183 l 1,52,-1
 372 29 l 2,53,54
 366 -2 366 -2 317 -2 c 2,55,-1
 304 -2 l 2,56,57
 258 -2 258 -2 258 21 c 0,58,59
 258 26 258 26 259 29 c 2,60,-1
 288 183 l 1,61,-1
 194 183 l 1,62,-1
 165 29 l 2,63,64
 159 -2 159 -2 110 -2 c 2,65,-1
 97 -2 l 2,66,67
 51 -2 51 -2 51 21 c 0,0,1
214 293 m 1,68,-1
 308 293 l 1,69,-1
 329 403 l 1,70,-1
 235 403 l 1,71,-1
 214 293 l 1,68,-1
EndSplineSet
EndChar

StartChar: dollar
Encoding: 36 36 7
Width: 496
GlyphClass: 2
Flags: W
LayerCount: 2
Fore
SplineSet
19 80 m 0,0,1
 19 103 19 103 42 136 c 128,-1,2
 65 169 65 169 81 169 c 0,3,4
 87 169 87 169 108 158 c 0,5,6
 169 123 169 123 228 123 c 2,7,-1
 233 123 l 1,8,-1
 233 288 l 1,9,10
 195 302 195 302 176.5 309.5 c 128,-1,11
 158 317 158 317 125.5 336.5 c 128,-1,12
 93 356 93 356 76.5 375.5 c 128,-1,13
 60 395 60 395 46.5 428.5 c 128,-1,14
 33 462 33 462 33 503 c 0,15,16
 33 595 33 595 90 646 c 128,-1,17
 147 697 147 697 233 706 c 1,18,-1
 233 738 l 2,19,20
 233 768 233 768 260 768 c 0,21,22
 290 768 290 768 290 738 c 2,23,-1
 290 707 l 1,24,25
 359 704 359 704 404.5 683 c 128,-1,26
 450 662 450 662 450 639 c 128,-1,27
 450 616 450 616 431 583.5 c 128,-1,28
 412 551 412 551 395 551 c 0,29,30
 394 551 394 551 361 563 c 128,-1,31
 328 575 328 575 290 576 c 1,32,-1
 290 424 l 1,33,34
 328 407 328 407 344 400 c 128,-1,35
 360 393 360 393 392 372.5 c 128,-1,36
 424 352 424 352 439 333.5 c 128,-1,37
 454 315 454 315 467 283.5 c 128,-1,38
 480 252 480 252 480 214 c 0,39,40
 480 111 480 111 426 57 c 128,-1,41
 372 3 372 3 290 -6 c 1,42,-1
 290 -51 l 2,43,44
 290 -81 290 -81 263 -81 c 0,45,46
 233 -81 233 -81 233 -51 c 2,47,-1
 233 -7 l 1,48,49
 137 -4 137 -4 78 24 c 128,-1,50
 19 52 19 52 19 80 c 0,0,1
233 570 m 1,51,52
 181 557 181 557 181 518 c 128,-1,53
 181 479 181 479 233 450 c 1,54,-1
 233 570 l 1,51,52
290 134 m 1,55,56
 333 152 333 152 333 194 c 128,-1,57
 333 236 333 236 290 261 c 1,58,-1
 290 134 l 1,55,56
EndSplineSet
EndChar

StartChar: percent
Encoding: 37 37 8
Width: 765
GlyphClass: 2
Flags: W
LayerCount: 2
Fore
SplineSet
195 372 m 128,-1,1
 45 372 45 372 45 540 c 128,-1,2
 45 708 45 708 195 708 c 128,-1,3
 345 708 345 708 345 540 c 128,-1,0
 345 372 345 372 195 372 c 128,-1,1
153 11 m 0,4,5
 153 16 153 16 158 26 c 2,6,-1
 515 674 l 2,7,8
 531 702 531 702 559 702 c 2,9,-1
 603 702 l 2,10,11
 624 702 624 702 624 688 c 0,12,13
 624 684 624 684 619 674 c 2,14,-1
 262 26 l 2,15,16
 246 -2 246 -2 218 -2 c 2,17,-1
 174 -2 l 2,18,19
 153 -2 153 -2 153 11 c 0,4,5
194.5 454 m 128,-1,21
 242 454 242 454 242 538 c 128,-1,22
 242 622 242 622 194.5 622 c 128,-1,23
 147 622 147 622 147 538 c 128,-1,20
 147 454 147 454 194.5 454 c 128,-1,21
432 160 m 128,-1,25
 432 328 432 328 582 328 c 128,-1,26
 732 328 732 328 732 160 c 128,-1,27
 732 -8 732 -8 582 -8 c 128,-1,24
 432 -8 432 -8 432 160 c 128,-1,25
534 158 m 128,-1,29
 534 74 534 74 581.5 74 c 128,-1,30
 629 74 629 74 629 158 c 128,-1,31
 629 242 629 242 581.5 242 c 128,-1,28
 534 242 534 242 534 158 c 128,-1,29
EndSplineSet
EndChar

StartChar: ampersand
Encoding: 38 38 9
Width: 624
GlyphClass: 2
Flags: W
LayerCount: 2
Fore
SplineSet
577 109 m 1,0,-1
 604 113 l 1,1,2
 617 113 617 113 626 83.5 c 128,-1,3
 635 54 635 54 635 41 c 0,4,5
 635 -8 635 -8 539 -8 c 0,6,7
 467 -8 467 -8 430 32 c 1,8,9
 350 -8 350 -8 249 -8 c 128,-1,10
 148 -8 148 -8 85.5 49 c 128,-1,11
 23 106 23 106 23 204 c 0,12,13
 23 339 23 339 139 383 c 1,14,-1
 139 387 l 1,15,16
 96 405 96 405 71 443.5 c 128,-1,17
 46 482 46 482 46 533 c 0,18,19
 46 613 46 613 101.5 660.5 c 128,-1,20
 157 708 157 708 259 708 c 128,-1,21
 361 708 361 708 361 666 c 0,22,23
 361 631 361 631 350 607.5 c 128,-1,24
 339 584 339 584 326 584 c 1,25,-1
 308 588 l 2,26,27
 291 591 291 591 277 591 c 0,28,29
 237 591 237 591 216.5 569 c 128,-1,30
 196 547 196 547 196 509 c 128,-1,31
 196 471 196 471 223.5 448.5 c 128,-1,32
 251 426 251 426 299 426 c 2,33,-1
 393 426 l 1,34,-1
 406 521 l 2,35,36
 411 553 411 553 460 553 c 2,37,-1
 491 553 l 2,38,39
 541 553 541 553 541 521 c 2,40,-1
 541 426 l 1,41,-1
 590 426 l 2,42,43
 620 426 620 426 620 376 c 2,44,-1
 620 359 l 2,45,46
 620 309 620 309 590 309 c 2,47,-1
 541 309 l 1,48,-1
 541 152 l 2,49,50
 541 109 541 109 577 109 c 1,0,-1
173 206 m 0,51,52
 173 160 173 160 200 134.5 c 128,-1,53
 227 109 227 109 279 109 c 128,-1,54
 331 109 331 109 393 136 c 1,55,-1
 393 309 l 1,56,-1
 290 309 l 2,57,58
 173 309 173 309 173 206 c 0,51,52
EndSplineSet
EndChar

StartChar: quotesingle
Encoding: 39 39 10
Width: 183
GlyphClass: 2
Flags: W
LayerCount: 2
Fore
SplineSet
86 464 m 2,0,1
 56 464 56 464 52 494 c 2,2,-1
 30 665 l 1,3,-1
 30 670 l 2,4,5
 30 702 30 702 90 702 c 2,6,-1
 100 702 l 2,7,8
 160 702 160 702 160 670 c 1,9,-1
 138 494 l 2,10,11
 134 464 134 464 104 464 c 2,12,-1
 86 464 l 2,0,1
EndSplineSet
EndChar

StartChar: parenleft
Encoding: 40 40 11
Width: 301
GlyphClass: 2
Flags: W
LayerCount: 2
Fore
SplineSet
201 -192 m 0,0,1
 51 23 51 23 51 287.5 c 128,-1,2
 51 552 51 552 201 767 c 0,3,4
 213 783 213 783 228.5 783 c 128,-1,5
 244 783 244 783 264.5 768 c 128,-1,6
 285 753 285 753 285 739.5 c 128,-1,7
 285 726 285 726 280 717 c 0,8,9
 220 605 220 605 194 503 c 128,-1,10
 168 401 168 401 168 287 c 128,-1,11
 168 173 168 173 194 71.5 c 128,-1,12
 220 -30 220 -30 280 -142 c 0,13,14
 285 -151 285 -151 285 -164.5 c 128,-1,15
 285 -178 285 -178 264.5 -193 c 128,-1,16
 244 -208 244 -208 228.5 -208 c 128,-1,17
 213 -208 213 -208 201 -192 c 0,0,1
EndSplineSet
EndChar

StartChar: parenright
Encoding: 41 41 12
Width: 301
GlyphClass: 2
Flags: W
LayerCount: 2
Fore
SplineSet
130 287 m 128,-1,1
 130 401 130 401 104 503 c 128,-1,2
 78 605 78 605 18 717 c 0,3,4
 13 726 13 726 13 739.5 c 128,-1,5
 13 753 13 753 33.5 768 c 128,-1,6
 54 783 54 783 69.5 783 c 128,-1,7
 85 783 85 783 97 767 c 0,8,9
 247 552 247 552 247 287.5 c 128,-1,10
 247 23 247 23 97 -192 c 0,11,12
 85 -208 85 -208 69.5 -208 c 128,-1,13
 54 -208 54 -208 33.5 -193 c 128,-1,14
 13 -178 13 -178 13 -164.5 c 128,-1,15
 13 -151 13 -151 18 -142 c 0,16,17
 78 -30 78 -30 104 71.5 c 128,-1,0
 130 173 130 173 130 287 c 128,-1,1
EndSplineSet
EndChar

StartChar: asterisk
Encoding: 42 42 13
Width: 373
GlyphClass: 2
Flags: W
LayerCount: 2
Fore
SplineSet
122 426 m 2,0,1
 111 411 111 411 99.5 411 c 128,-1,2
 88 411 88 411 76.5 421 c 128,-1,3
 65 431 65 431 65 440.5 c 128,-1,4
 65 450 65 450 74 460 c 1,5,-1
 130 539 l 1,6,-1
 55 563 l 2,7,8
 33 570 33 570 33 586 c 0,9,10
 33 595 33 595 36 602 c 0,11,12
 42 623 42 623 61 623 c 0,13,14
 65 623 65 623 75 621 c 1,15,-1
 152 596 l 1,16,-1
 152 678 l 2,17,18
 152 708 152 708 182 708 c 128,-1,19
 212 708 212 708 212 678 c 2,20,-1
 212 596 l 1,21,-1
 287 621 l 1,22,23
 297 623 297 623 304 623 c 128,-1,24
 311 623 311 623 320 613 c 128,-1,25
 329 603 329 603 329 586.5 c 128,-1,26
 329 570 329 570 307 563 c 2,27,-1
 231 539 l 1,28,-1
 288 460 l 1,29,30
 296 451 296 451 296 441 c 128,-1,31
 296 431 296 431 284.5 421 c 128,-1,32
 273 411 273 411 262 411 c 128,-1,33
 251 411 251 411 240 426 c 2,34,-1
 181 509 l 1,35,-1
 122 426 l 2,0,1
EndSplineSet
EndChar

StartChar: plus
Encoding: 43 43 14
Width: 560
GlyphClass: 2
Flags: W
LayerCount: 2
Fore
SplineSet
71 182 m 2,0,1
 41 182 41 182 41 232 c 2,2,-1
 41 239 l 2,3,4
 41 289 41 289 71 289 c 2,5,-1
 222 289 l 1,6,-1
 222 443 l 2,7,8
 222 473 222 473 272 473 c 2,9,-1
 286 473 l 2,10,11
 336 473 336 473 336 443 c 2,12,-1
 336 289 l 1,13,-1
 489 289 l 2,14,15
 519 289 519 289 519 239 c 2,16,-1
 519 232 l 2,17,18
 519 182 519 182 489 182 c 2,19,-1
 336 182 l 1,20,-1
 336 30 l 2,21,22
 336 0 336 0 286 0 c 2,23,-1
 272 0 l 2,24,25
 222 0 222 0 222 30 c 2,26,-1
 222 182 l 1,27,-1
 71 182 l 2,0,1
EndSplineSet
EndChar

StartChar: comma
Encoding: 44 44 15
Width: 198
GlyphClass: 2
Flags: W
LayerCount: 2
Fore
SplineSet
5.5 -119.5 m 128,-1,1
 -9 -114 -9 -114 -9 -103.5 c 128,-1,2
 -9 -93 -9 -93 2 -68 c 0,3,4
 35 9 35 9 35 110 c 0,5,6
 35 154 35 154 95 154 c 2,7,-1
 114 154 l 2,8,9
 174 154 174 154 174 110 c 0,10,11
 174 57 174 57 148.5 0.5 c 128,-1,12
 123 -56 123 -56 90.5 -90.5 c 128,-1,13
 58 -125 58 -125 39 -125 c 128,-1,0
 20 -125 20 -125 5.5 -119.5 c 128,-1,1
EndSplineSet
EndChar

StartChar: hyphen
Encoding: 45 45 16
Width: 320
GlyphClass: 2
Flags: W
LayerCount: 2
Fore
SplineSet
58 212 m 2,0,1
 28 212 28 212 28 262 c 2,2,-1
 28 269 l 2,3,4
 28 319 28 319 58 319 c 2,5,-1
 262 319 l 2,6,7
 292 319 292 319 292 269 c 2,8,-1
 292 262 l 2,9,10
 292 212 292 212 262 212 c 2,11,-1
 58 212 l 2,0,1
EndSplineSet
EndChar

StartChar: period
Encoding: 46 46 17
Width: 198
GlyphClass: 2
Flags: W
LayerCount: 2
Fore
SplineSet
22 30 m 2,0,-1
 22 122 l 2,1,2
 22 154 22 154 82 154 c 2,3,-1
 114 154 l 2,4,5
 174 154 174 154 174 122 c 2,6,-1
 174 30 l 2,7,8
 174 -2 174 -2 114 -2 c 2,9,-1
 82 -2 l 2,10,11
 22 -2 22 -2 22 30 c 2,0,-1
EndSplineSet
EndChar

StartChar: slash
Encoding: 47 47 18
Width: 370
GlyphClass: 2
Flags: W
LayerCount: 2
Fore
SplineSet
326 702 m 2,0,-1
 350 702 l 2,1,2
 392 702 392 702 392 686 c 0,3,4
 392 681 392 681 389 672 c 2,5,-1
 98 -49 l 2,6,7
 86 -79 86 -79 37 -79 c 2,8,-1
 13 -79 l 2,9,10
 -30 -79 -30 -79 -30 -63 c 0,11,12
 -30 -61 -30 -61 -26 -49 c 2,13,-1
 265 672 l 2,14,15
 277 702 277 702 326 702 c 2,0,-1
EndSplineSet
EndChar

StartChar: zero
Encoding: 48 48 19
Width: 535
GlyphClass: 2
Flags: W
LayerCount: 2
Fore
SplineSet
267 -8 m 128,-1,1
 156 -8 156 -8 93 87 c 128,-1,2
 30 182 30 182 30 350 c 128,-1,3
 30 518 30 518 93 613 c 128,-1,4
 156 708 156 708 267 708 c 128,-1,5
 378 708 378 708 441 613 c 128,-1,6
 504 518 504 518 504 350 c 128,-1,7
 504 182 504 182 441 87 c 128,-1,0
 378 -8 378 -8 267 -8 c 128,-1,1
267 109 m 128,-1,9
 354 109 354 109 354 350 c 128,-1,10
 354 591 354 591 267 591 c 128,-1,11
 180 591 180 591 180 350 c 128,-1,8
 180 109 180 109 267 109 c 128,-1,9
EndSplineSet
EndChar

StartChar: one
Encoding: 49 49 20
Width: 535
GlyphClass: 2
Flags: W
LayerCount: 2
Fore
SplineSet
42 50 m 2,0,-1
 42 67 l 2,1,2
 42 117 42 117 72 117 c 2,3,-1
 205 117 l 1,4,-1
 205 566 l 1,5,-1
 69 546 l 1,6,7
 52 546 52 546 44.5 573.5 c 128,-1,8
 37 601 37 601 37 627 c 128,-1,9
 37 653 37 653 63 658 c 2,10,-1
 312 704 l 1,11,12
 325 704 325 704 339 696.5 c 128,-1,13
 353 689 353 689 353 680 c 2,14,-1
 353 117 l 1,15,-1
 460 117 l 2,16,17
 490 117 490 117 490 67 c 2,18,-1
 490 50 l 2,19,20
 490 0 490 0 460 0 c 2,21,-1
 72 0 l 2,22,23
 42 0 42 0 42 50 c 2,0,-1
EndSplineSet
EndChar

StartChar: two
Encoding: 50 50 21
Width: 535
GlyphClass: 2
Flags: W
LayerCount: 2
Fore
SplineSet
61 0 m 2,0,1
 51 0 51 0 42 31.5 c 128,-1,2
 33 63 33 63 33 80.5 c 128,-1,3
 33 98 33 98 36 103 c 2,4,-1
 289 413 l 2,5,6
 327 460 327 460 327 504 c 128,-1,7
 327 548 327 548 301 569 c 128,-1,8
 275 590 275 590 240.5 590 c 128,-1,9
 206 590 206 590 181 579 c 128,-1,10
 156 568 156 568 139.5 557.5 c 128,-1,11
 123 547 123 547 117 547 c 0,12,13
 95 547 95 547 77.5 571 c 128,-1,14
 60 595 60 595 60 616 c 0,15,16
 60 658 60 658 121 683 c 128,-1,17
 182 708 182 708 259 708 c 0,18,19
 362 708 362 708 419.5 654 c 128,-1,20
 477 600 477 600 477 512 c 128,-1,21
 477 424 477 424 416 349 c 2,22,-1
 228 117 l 1,23,-1
 459 117 l 2,24,25
 489 117 489 117 489 67 c 2,26,-1
 489 50 l 2,27,28
 489 0 489 0 459 0 c 2,29,-1
 61 0 l 2,0,1
EndSplineSet
EndChar

StartChar: three
Encoding: 51 51 22
Width: 535
GlyphClass: 2
Flags: W
LayerCount: 2
Fore
SplineSet
36 74 m 0,0,1
 36 91 36 91 52.5 120.5 c 128,-1,2
 69 150 69 150 85 150 c 0,3,4
 91 150 91 150 110 140 c 0,5,6
 171 109 171 109 223 109 c 128,-1,7
 275 109 275 109 302 134.5 c 128,-1,8
 329 160 329 160 329 208 c 0,9,10
 329 308 329 308 212 308 c 2,11,-1
 184 308 l 2,12,13
 154 308 154 308 154 358 c 2,14,-1
 154 376 l 2,15,16
 154 426 154 426 184 426 c 2,17,-1
 203 426 l 2,18,19
 251 426 251 426 278.5 448.5 c 128,-1,20
 306 471 306 471 306 509 c 128,-1,21
 306 547 306 547 285.5 568.5 c 128,-1,22
 265 590 265 590 222.5 590 c 128,-1,23
 180 590 180 590 144.5 574.5 c 128,-1,24
 109 559 109 559 107 559 c 0,25,26
 92 559 92 559 74.5 586.5 c 128,-1,27
 57 614 57 614 57 635 c 0,28,29
 57 670 57 670 113.5 689 c 128,-1,30
 170 708 170 708 257.5 708 c 128,-1,31
 345 708 345 708 400.5 660.5 c 128,-1,32
 456 613 456 613 456 533 c 0,33,34
 456 482 456 482 431 443.5 c 128,-1,35
 406 405 406 405 363 387 c 1,36,-1
 363 383 l 1,37,38
 479 339 479 339 479 204 c 0,39,40
 479 106 479 106 416.5 49 c 128,-1,41
 354 -8 354 -8 253 -8 c 0,42,43
 179 -8 179 -8 107.5 12.5 c 128,-1,44
 36 33 36 33 36 74 c 0,0,1
EndSplineSet
EndChar

StartChar: four
Encoding: 52 52 23
Width: 535
GlyphClass: 2
Flags: W
LayerCount: 2
Fore
SplineSet
48 142 m 2,0,1
 36 142 36 142 23.5 177 c 128,-1,2
 11 212 11 212 11 227 c 128,-1,3
 11 242 11 242 13 246 c 2,4,-1
 310 683 l 2,5,6
 323 702 323 702 371 702 c 2,7,-1
 398 702 l 2,8,9
 458 702 458 702 458 670 c 2,10,-1
 458 259 l 1,11,-1
 496 259 l 2,12,13
 526 259 526 259 526 209 c 2,14,-1
 526 192 l 2,15,16
 526 142 526 142 496 142 c 2,17,-1
 458 142 l 1,18,-1
 458 30 l 2,19,20
 458 -2 458 -2 398 -2 c 2,21,-1
 370 -2 l 2,22,23
 310 -2 310 -2 310 30 c 2,24,-1
 310 142 l 1,25,-1
 48 142 l 2,0,1
310 259 m 1,26,-1
 310 488 l 1,27,-1
 306 489 l 1,28,-1
 160 259 l 1,29,-1
 310 259 l 1,26,-1
EndSplineSet
EndChar

StartChar: five
Encoding: 53 53 24
Width: 535
GlyphClass: 2
Flags: W
LayerCount: 2
Fore
SplineSet
38 64 m 0,0,1
 38 80 38 80 57 111.5 c 128,-1,2
 76 143 76 143 92 143 c 0,3,4
 95 143 95 143 114 134 c 0,5,6
 171 109 171 109 226.5 109 c 128,-1,7
 282 109 282 109 311 136.5 c 128,-1,8
 340 164 340 164 340 215.5 c 128,-1,9
 340 267 340 267 311 295 c 128,-1,10
 282 323 282 323 215 323 c 2,11,-1
 106 323 l 2,12,13
 85 323 85 323 77 332 c 128,-1,14
 69 341 69 341 69 363 c 1,15,-1
 88 660 l 2,16,17
 90 681 90 681 99.5 690.5 c 128,-1,18
 109 700 109 700 130 700 c 2,19,-1
 425 700 l 2,20,21
 455 700 455 700 455 650 c 2,22,-1
 455 623 l 2,23,24
 455 583 455 583 425 583 c 2,25,-1
 223 583 l 1,26,-1
 213 440 l 1,27,-1
 239 440 l 2,28,29
 361 440 361 440 425.5 389 c 128,-1,30
 490 338 490 338 490 216 c 0,31,32
 490 155 490 155 467.5 110 c 128,-1,33
 445 65 445 65 407 40 c 0,34,35
 334 -8 334 -8 242 -8 c 128,-1,36
 150 -8 150 -8 94 13 c 128,-1,37
 38 34 38 34 38 64 c 0,0,1
EndSplineSet
EndChar

StartChar: six
Encoding: 54 54 25
Width: 535
GlyphClass: 2
Flags: W
LayerCount: 2
Fore
SplineSet
33 253 m 0,0,1
 33 361 33 361 69 446.5 c 128,-1,2
 105 532 105 532 153.5 578.5 c 128,-1,3
 202 625 202 625 257 655.5 c 128,-1,4
 312 686 312 686 344.5 695 c 128,-1,5
 377 704 377 704 387 704 c 0,6,7
 409 704 409 704 423 673.5 c 128,-1,8
 437 643 437 643 437 626.5 c 128,-1,9
 437 610 437 610 434.5 606 c 128,-1,10
 432 602 432 602 424 600 c 0,11,12
 306 565 306 565 242 473 c 0,13,14
 220 441 220 441 207 403 c 1,15,16
 253 428 253 428 295.5 428 c 128,-1,17
 338 428 338 428 369.5 417 c 128,-1,18
 401 406 401 406 432.5 383 c 128,-1,19
 464 360 464 360 484 316.5 c 128,-1,20
 504 273 504 273 504 215.5 c 128,-1,21
 504 158 504 158 483.5 113 c 128,-1,22
 463 68 463 68 428 42 c 0,23,24
 360 -8 360 -8 269 -8 c 0,25,26
 177 -8 177 -8 109 50 c 0,27,28
 74 79 74 79 53.5 131.5 c 128,-1,29
 33 184 33 184 33 253 c 0,0,1
270 109 m 0,30,31
 306 109 306 109 330.5 138 c 128,-1,32
 355 167 355 167 355 212.5 c 128,-1,33
 355 258 355 258 331 284.5 c 128,-1,34
 307 311 307 311 267.5 311 c 128,-1,35
 228 311 228 311 185 287 c 1,36,37
 184 272 184 272 184 241 c 0,38,39
 184 109 184 109 270 109 c 0,30,31
EndSplineSet
EndChar

StartChar: seven
Encoding: 55 55 26
Width: 535
GlyphClass: 2
Flags: W
LayerCount: 2
Fore
SplineSet
75 17 m 0,0,1
 75 24 75 24 81 36 c 2,2,-1
 329 583 l 1,3,-1
 68 583 l 2,4,5
 38 583 38 583 38 633 c 2,6,-1
 38 650 l 2,7,8
 38 700 38 700 68 700 c 2,9,-1
 464 700 l 2,10,11
 472 700 472 700 483 667 c 128,-1,12
 494 634 494 634 494 618.5 c 128,-1,13
 494 603 494 603 492 597 c 2,14,-1
 229 18 l 2,15,16
 220 -2 220 -2 171 -2 c 2,17,-1
 134 -2 l 2,18,19
 75 -2 75 -2 75 17 c 0,0,1
EndSplineSet
EndChar

StartChar: eight
Encoding: 56 56 27
Width: 535
GlyphClass: 2
Flags: W
LayerCount: 2
Fore
SplineSet
29 201 m 0,0,1
 29 268 29 268 57.5 313 c 128,-1,2
 86 358 86 358 130 375 c 1,3,4
 56 425 56 425 56 519 c 0,5,6
 56 598 56 598 113 653 c 128,-1,7
 170 708 170 708 270 708 c 128,-1,8
 370 708 370 708 426.5 657.5 c 128,-1,9
 483 607 483 607 483 541 c 128,-1,10
 483 475 483 475 460.5 441.5 c 128,-1,11
 438 408 438 408 396 385 c 1,12,13
 506 335 506 335 506 192 c 0,14,15
 506 117 506 117 453 58 c 0,16,17
 426 28 426 28 379 10 c 128,-1,18
 332 -8 332 -8 271 -8 c 0,19,20
 150 -8 150 -8 89.5 51.5 c 128,-1,21
 29 111 29 111 29 201 c 0,0,1
339 524 m 0,22,23
 339 554 339 554 319 572.5 c 128,-1,24
 299 591 299 591 270.5 591 c 128,-1,25
 242 591 242 591 222 573 c 128,-1,26
 202 555 202 555 202 522 c 128,-1,27
 202 489 202 489 223 469 c 128,-1,28
 244 449 244 449 285 432 c 1,29,30
 339 468 339 468 339 524 c 0,22,23
178 210 m 0,31,32
 178 164 178 164 202 136.5 c 128,-1,33
 226 109 226 109 268 109 c 128,-1,34
 310 109 310 109 333 137 c 128,-1,35
 356 165 356 165 356 196.5 c 128,-1,36
 356 228 356 228 347 249 c 128,-1,37
 338 270 338 270 318 284 c 0,38,39
 285 308 285 308 233 326 c 1,40,41
 178 286 178 286 178 210 c 0,31,32
EndSplineSet
EndChar

StartChar: nine
Encoding: 57 57 28
Width: 535
GlyphClass: 2
Flags: W
LayerCount: 2
Fore
SplineSet
110 25.5 m 128,-1,1
 96 56 96 56 96 72.5 c 128,-1,2
 96 89 96 89 98.5 93 c 128,-1,3
 101 97 101 97 109 99 c 0,4,5
 227 134 227 134 291 226 c 0,6,7
 313 258 313 258 326 296 c 1,8,9
 280 271 280 271 237.5 271 c 128,-1,10
 195 271 195 271 163.5 282 c 128,-1,11
 132 293 132 293 100.5 316 c 128,-1,12
 69 339 69 339 49 382.5 c 128,-1,13
 29 426 29 426 29 483.5 c 128,-1,14
 29 541 29 541 49.5 586 c 128,-1,15
 70 631 70 631 104 656 c 0,16,17
 173 707 173 707 264 707 c 0,18,19
 356 707 356 707 424 650 c 0,20,21
 459 620 459 620 479.5 567.5 c 128,-1,22
 500 515 500 515 500 446 c 0,23,24
 500 338 500 338 464 252.5 c 128,-1,25
 428 167 428 167 379.5 120.5 c 128,-1,26
 331 74 331 74 276 43.5 c 128,-1,27
 221 13 221 13 188.5 4 c 128,-1,28
 156 -5 156 -5 146 -5 c 0,29,0
 124 -5 124 -5 110 25.5 c 128,-1,1
202 414.5 m 128,-1,31
 226 388 226 388 265.5 388 c 128,-1,32
 305 388 305 388 348 412 c 1,33,34
 349 427 349 427 349 458 c 0,35,36
 349 590 349 590 263 590 c 0,37,38
 227 590 227 590 202.5 561 c 128,-1,39
 178 532 178 532 178 486.5 c 128,-1,30
 178 441 178 441 202 414.5 c 128,-1,31
EndSplineSet
EndChar

StartChar: colon
Encoding: 58 58 29
Width: 198
GlyphClass: 2
Flags: W
LayerCount: 2
Fore
SplineSet
82 369 m 2,0,1
 22 369 22 369 22 401 c 2,2,-1
 22 493 l 2,3,4
 22 525 22 525 82 525 c 2,5,-1
 114 525 l 2,6,7
 174 525 174 525 174 493 c 2,8,-1
 174 401 l 2,9,10
 174 369 174 369 114 369 c 2,11,-1
 82 369 l 2,0,1
22 30 m 2,12,-1
 22 122 l 2,13,14
 22 154 22 154 82 154 c 2,15,-1
 114 154 l 2,16,17
 174 154 174 154 174 122 c 2,18,-1
 174 30 l 2,19,20
 174 -2 174 -2 114 -2 c 2,21,-1
 82 -2 l 2,22,23
 22 -2 22 -2 22 30 c 2,12,-1
EndSplineSet
EndChar

StartChar: semicolon
Encoding: 59 59 30
Width: 198
GlyphClass: 2
Flags: W
LayerCount: 2
Fore
SplineSet
82 369 m 2,0,1
 22 369 22 369 22 401 c 2,2,-1
 22 493 l 2,3,4
 22 525 22 525 82 525 c 2,5,-1
 114 525 l 2,6,7
 174 525 174 525 174 493 c 2,8,-1
 174 401 l 2,9,10
 174 369 174 369 114 369 c 2,11,-1
 82 369 l 2,0,1
4.5 -119.5 m 128,-1,13
 -10 -114 -10 -114 -10 -103.5 c 128,-1,14
 -10 -93 -10 -93 1 -68 c 0,15,16
 34 9 34 9 34 110 c 0,17,18
 34 154 34 154 94 154 c 2,19,-1
 113 154 l 2,20,21
 173 154 173 154 173 110 c 0,22,23
 173 57 173 57 147.5 0.5 c 128,-1,24
 122 -56 122 -56 89.5 -90.5 c 128,-1,25
 57 -125 57 -125 38 -125 c 128,-1,12
 19 -125 19 -125 4.5 -119.5 c 128,-1,13
EndSplineSet
EndChar

StartChar: less
Encoding: 60 60 31
Width: 560
GlyphClass: 2
Flags: W
LayerCount: 2
Fore
SplineSet
38 236 m 2,0,-1
 38 255 l 2,1,2
 38 284 38 284 66 297 c 2,3,-1
 485 476 l 2,4,5
 494 479 494 479 500 479 c 0,6,7
 515 479 515 479 515 438 c 2,8,-1
 515 422 l 2,9,10
 515 373 515 373 485 361 c 2,11,-1
 193 245 l 1,12,-1
 486 129 l 2,13,14
 516 117 516 117 516 68 c 2,15,-1
 516 52 l 2,16,17
 516 10 516 10 501 10 c 0,18,19
 494 10 494 10 486 14 c 2,20,-1
 66 194 l 2,21,22
 38 205 38 205 38 236 c 2,0,-1
EndSplineSet
EndChar

StartChar: equal
Encoding: 61 61 32
Width: 560
GlyphClass: 2
Flags: W
LayerCount: 2
Fore
SplineSet
71 267 m 2,0,1
 41 267 41 267 41 317 c 2,2,-1
 41 324 l 2,3,4
 41 374 41 374 71 374 c 2,5,-1
 489 374 l 2,6,7
 519 374 519 374 519 324 c 2,8,-1
 519 317 l 2,9,10
 519 267 519 267 489 267 c 2,11,-1
 71 267 l 2,0,1
71 86 m 2,12,13
 41 86 41 86 41 136 c 2,14,-1
 41 143 l 2,15,16
 41 193 41 193 71 193 c 2,17,-1
 489 193 l 2,18,19
 519 193 519 193 519 143 c 2,20,-1
 519 136 l 2,21,22
 519 86 519 86 489 86 c 2,23,-1
 71 86 l 2,12,13
EndSplineSet
EndChar

StartChar: greater
Encoding: 62 62 33
Width: 560
GlyphClass: 2
Flags: W
LayerCount: 2
Fore
SplineSet
53 10 m 0,0,1
 38 10 38 10 38 52 c 2,2,-1
 38 68 l 2,3,4
 38 117 38 117 68 129 c 2,5,-1
 361 245 l 1,6,-1
 69 361 l 2,7,8
 39 373 39 373 39 422 c 2,9,-1
 39 438 l 2,10,11
 39 479 39 479 54 479 c 0,12,13
 60 479 60 479 69 476 c 2,14,-1
 488 297 l 2,15,16
 516 284 516 284 516 255 c 2,17,-1
 516 236 l 2,18,19
 516 205 516 205 488 194 c 2,20,-1
 68 14 l 2,21,22
 60 10 60 10 53 10 c 0,0,1
EndSplineSet
EndChar

StartChar: question
Encoding: 63 63 34
Width: 445
GlyphClass: 2
Flags: W
LayerCount: 2
Fore
SplineSet
126 251 m 0,0,1
 126 318 126 318 181 383 c 0,2,3
 204 410 204 410 226 434 c 0,4,5
 281 494 281 494 281 520 c 0,6,7
 281 576 281 576 207 576 c 0,8,9
 172 576 172 576 134 560.5 c 128,-1,10
 96 545 96 545 95 545 c 0,11,12
 76 545 76 545 54 577 c 128,-1,13
 32 609 32 609 32 627 c 0,14,15
 32 667 32 667 91 687.5 c 128,-1,16
 150 708 150 708 220 708 c 0,17,18
 321 708 321 708 379 660 c 128,-1,19
 437 612 437 612 437 530 c 0,20,21
 437 450 437 450 376 392 c 0,22,23
 351 367 351 367 324 346 c 0,24,25
 260 295 260 295 251 249 c 1,26,27
 247 234 247 234 235 228 c 128,-1,28
 223 222 223 222 198 222 c 2,29,-1
 175 222 l 2,30,31
 126 222 126 222 126 251 c 0,0,1
110 30 m 2,32,-1
 110 122 l 2,33,34
 110 154 110 154 170 154 c 2,35,-1
 202 154 l 2,36,37
 262 154 262 154 262 122 c 2,38,-1
 262 30 l 2,39,40
 262 -2 262 -2 202 -2 c 2,41,-1
 170 -2 l 2,42,43
 110 -2 110 -2 110 30 c 2,32,-1
EndSplineSet
EndChar

StartChar: at
Encoding: 64 64 35
Width: 974
GlyphClass: 2
Flags: W
LayerCount: 2
Fore
SplineSet
670 477 m 1,0,-1
 639 177 l 1,1,2
 639 141 639 141 674 141 c 0,3,4
 726 141 726 141 764.5 213 c 128,-1,5
 803 285 803 285 803 383 c 0,6,7
 803 505 803 505 729 579.5 c 128,-1,8
 655 654 655 654 534 654 c 0,9,10
 372 654 372 654 260 534 c 128,-1,11
 148 414 148 414 148 240 c 0,12,13
 148 102 148 102 220.5 16.5 c 128,-1,14
 293 -69 293 -69 410 -69 c 0,15,16
 468 -69 468 -69 514.5 -54.5 c 128,-1,17
 561 -40 561 -40 564 -40 c 0,18,19
 578 -40 578 -40 578 -73 c 0,20,21
 578 -99 578 -99 521.5 -111 c 128,-1,22
 465 -123 465 -123 410 -123 c 0,23,24
 265 -123 265 -123 174.5 -22.5 c 128,-1,25
 84 78 84 78 84 240 c 0,26,27
 84 437 84 437 214 572.5 c 128,-1,28
 344 708 344 708 534 708 c 0,29,30
 685 708 685 708 776 619 c 128,-1,31
 867 530 867 530 867 388.5 c 128,-1,32
 867 247 867 247 799.5 152.5 c 128,-1,33
 732 58 732 58 638.5 58 c 128,-1,34
 545 58 545 58 520 122 c 1,35,36
 482 58 482 58 407 58 c 0,37,38
 345 58 345 58 308.5 105 c 128,-1,39
 272 152 272 152 272 239 c 0,40,41
 272 359 272 359 323.5 433.5 c 128,-1,42
 375 508 375 508 457 508 c 0,43,44
 514 508 514 508 559 463 c 1,45,46
 565 486 565 486 575 494.5 c 128,-1,47
 585 503 585 503 611 503 c 2,48,-1
 623 503 l 2,49,50
 670 503 670 503 670 477 c 1,0,-1
420.5 368 m 128,-1,52
 397 326 397 326 397 242.5 c 128,-1,53
 397 159 397 159 454 159 c 0,54,55
 488 159 488 159 519 207 c 1,56,-1
 532 338 l 1,57,-1
 540 387 l 1,58,59
 515 410 515 410 486 410 c 0,60,51
 444 410 444 410 420.5 368 c 128,-1,52
EndSplineSet
EndChar

StartChar: A
Encoding: 65 65 36
Width: 613
GlyphClass: 2
Flags: W
LayerCount: 2
Fore
SplineSet
0 20 m 0,0,1
 0 24 0 24 4 38 c 2,2,-1
 224 681 l 2,3,4
 232 702 232 702 281 702 c 2,5,-1
 333 702 l 2,6,7
 382 702 382 702 390 681 c 2,8,-1
 610 38 l 2,9,10
 613 28 613 28 613 20 c 0,11,12
 613 -2 613 -2 563 -2 c 2,13,-1
 519 -2 l 2,14,15
 470 -2 470 -2 463 19 c 2,16,-1
 423 141 l 1,17,-1
 187 141 l 1,18,-1
 147 19 l 2,19,20
 140 -2 140 -2 101 -2 c 2,21,-1
 61 -2 l 2,22,23
 0 -2 0 -2 0 20 c 0,0,1
230 273 m 1,24,-1
 380 273 l 1,25,-1
 323 451 l 1,26,-1
 308 515 l 1,27,-1
 304 515 l 1,28,29
 295 468 295 468 289 451 c 2,30,-1
 230 273 l 1,24,-1
EndSplineSet
EndChar

StartChar: B
Encoding: 66 66 37
Width: 593
GlyphClass: 2
Flags: W
LayerCount: 2
Fore
SplineSet
69 40 m 2,0,-1
 69 660 l 2,1,2
 69 700 69 700 109 700 c 2,3,-1
 307 700 l 2,4,5
 429 700 429 700 486 653 c 128,-1,6
 543 606 543 606 543 523 c 0,7,8
 543 473 543 473 512.5 431.5 c 128,-1,9
 482 390 482 390 435 371 c 1,10,-1
 436 367 l 1,11,12
 495 355 495 355 533 308 c 128,-1,13
 571 261 571 261 571 203 c 0,14,15
 571 105 571 105 508.5 52.5 c 128,-1,16
 446 0 446 0 321 0 c 2,17,-1
 109 0 l 2,18,19
 69 0 69 0 69 40 c 2,0,-1
223 421 m 1,20,-1
 292 421 l 2,21,22
 336 421 336 421 360.5 442 c 128,-1,23
 385 463 385 463 385 496 c 0,24,25
 385 570 385 570 294 570 c 2,26,-1
 223 570 l 1,27,-1
 223 421 l 1,20,-1
223 131 m 1,28,-1
 321 131 l 2,29,30
 365 131 365 131 389 152 c 128,-1,31
 413 173 413 173 413 212 c 0,32,33
 413 290 413 290 305 290 c 2,34,-1
 223 290 l 1,35,-1
 223 131 l 1,28,-1
EndSplineSet
EndChar

StartChar: C
Encoding: 67 67 38
Width: 619
GlyphClass: 2
Flags: W
LayerCount: 2
Fore
SplineSet
45 352 m 0,0,1
 45 708 45 708 379 708 c 0,2,3
 452 708 452 708 520 688 c 128,-1,4
 588 668 588 668 588 638 c 0,5,6
 588 616 588 616 564.5 580 c 128,-1,7
 541 544 541 544 523 544 c 0,8,9
 520 544 520 544 502 552 c 0,10,11
 450 576 450 576 376 576 c 0,12,13
 203 576 203 576 203 349.5 c 128,-1,14
 203 123 203 123 374 123 c 0,15,16
 446 123 446 123 512 153 c 0,17,18
 534 163 534 163 538 163 c 0,19,20
 559 163 559 163 578 128.5 c 128,-1,21
 597 94 597 94 597 76 c 0,22,23
 597 36 597 36 523 14 c 128,-1,24
 449 -8 449 -8 374 -8 c 0,25,26
 206 -8 206 -8 125.5 79.5 c 128,-1,27
 45 167 45 167 45 352 c 0,0,1
EndSplineSet
EndChar

StartChar: D
Encoding: 68 68 39
Width: 695
GlyphClass: 2
Flags: W
LayerCount: 2
Fore
SplineSet
69 40 m 2,0,-1
 69 660 l 2,1,2
 69 700 69 700 109 700 c 2,3,-1
 333 700 l 2,4,5
 488 700 488 700 570.5 609.5 c 128,-1,6
 653 519 653 519 653 350 c 128,-1,7
 653 181 653 181 570.5 90.5 c 128,-1,8
 488 0 488 0 333 0 c 2,9,-1
 109 0 l 2,10,11
 69 0 69 0 69 40 c 2,0,-1
224 131 m 1,12,-1
 333 131 l 2,13,14
 413 131 413 131 454 187 c 128,-1,15
 495 243 495 243 495 350 c 128,-1,16
 495 457 495 457 454 513 c 128,-1,17
 413 569 413 569 333 569 c 2,18,-1
 224 569 l 1,19,-1
 224 131 l 1,12,-1
EndSplineSet
EndChar

StartChar: E
Encoding: 69 69 40
Width: 546
GlyphClass: 2
Flags: W
LayerCount: 2
Fore
SplineSet
69 40 m 2,0,-1
 69 660 l 2,1,2
 69 700 69 700 109 700 c 2,3,-1
 475 700 l 2,4,5
 505 700 505 700 505 650 c 2,6,-1
 505 619 l 2,7,8
 505 569 505 569 475 569 c 2,9,-1
 223 569 l 1,10,-1
 223 424 l 1,11,-1
 448 424 l 2,12,13
 478 424 478 424 478 374 c 2,14,-1
 478 343 l 2,15,16
 478 293 478 293 448 293 c 2,17,-1
 223 293 l 1,18,-1
 223 131 l 1,19,-1
 476 131 l 2,20,21
 506 131 506 131 506 81 c 2,22,-1
 506 50 l 2,23,24
 506 0 506 0 476 0 c 2,25,-1
 109 0 l 2,26,27
 69 0 69 0 69 40 c 2,0,-1
EndSplineSet
EndChar

StartChar: F
Encoding: 70 70 41
Width: 503
GlyphClass: 2
Flags: W
LayerCount: 2
Fore
SplineSet
69 30 m 2,0,-1
 69 660 l 2,1,2
 69 700 69 700 109 700 c 2,3,-1
 443 700 l 2,4,5
 473 700 473 700 473 650 c 2,6,-1
 473 619 l 2,7,8
 473 569 473 569 443 569 c 2,9,-1
 223 569 l 1,10,-1
 223 423 l 1,11,-1
 436 423 l 2,12,13
 466 423 466 423 466 373 c 2,14,-1
 466 342 l 2,15,16
 466 292 466 292 436 292 c 2,17,-1
 223 292 l 1,18,-1
 223 30 l 2,19,20
 223 -2 223 -2 163 -2 c 2,21,-1
 129 -2 l 2,22,23
 69 -2 69 -2 69 30 c 2,0,-1
EndSplineSet
EndChar

StartChar: G
Encoding: 71 71 42
Width: 672
GlyphClass: 2
Flags: W
LayerCount: 2
Fore
SplineSet
45 352 m 0,0,1
 45 708 45 708 379 708 c 0,2,3
 452 708 452 708 522.5 687.5 c 128,-1,4
 593 667 593 667 593 638 c 0,5,6
 593 616 593 616 569.5 580 c 128,-1,7
 546 544 546 544 528 544 c 0,8,9
 525 544 525 544 506 552 c 0,10,11
 451 576 451 576 376 576 c 0,12,13
 203 576 203 576 203 349.5 c 128,-1,14
 203 123 203 123 374 123 c 0,15,16
 414 123 414 123 452 130 c 1,17,-1
 452 257 l 1,18,-1
 364 257 l 2,19,20
 334 257 334 257 334 307 c 2,21,-1
 334 339 l 2,22,23
 334 389 334 389 364 389 c 2,24,-1
 567 389 l 2,25,26
 607 389 607 389 607 349 c 2,27,-1
 607 71 l 2,28,29
 607 47 607 47 581.5 30 c 128,-1,30
 556 13 556 13 516 6 c 0,31,32
 444 -8 444 -8 374 -8 c 0,33,34
 206 -8 206 -8 125.5 79.5 c 128,-1,35
 45 167 45 167 45 352 c 0,0,1
EndSplineSet
EndChar

StartChar: H
Encoding: 72 72 43
Width: 733
GlyphClass: 2
Flags: W
LayerCount: 2
Fore
SplineSet
84 30 m 2,0,-1
 84 670 l 2,1,2
 84 702 84 702 144 702 c 2,3,-1
 179 702 l 2,4,5
 239 702 239 702 239 670 c 2,6,-1
 239 423 l 1,7,-1
 509 423 l 1,8,-1
 509 670 l 2,9,10
 509 702 509 702 569 702 c 2,11,-1
 604 702 l 2,12,13
 664 702 664 702 664 670 c 2,14,-1
 664 30 l 2,15,16
 664 -2 664 -2 604 -2 c 2,17,-1
 569 -2 l 2,18,19
 509 -2 509 -2 509 30 c 2,20,-1
 509 291 l 1,21,-1
 239 291 l 1,22,-1
 239 30 l 2,23,24
 239 -2 239 -2 179 -2 c 2,25,-1
 144 -2 l 2,26,27
 84 -2 84 -2 84 30 c 2,0,-1
EndSplineSet
EndChar

StartChar: I
Encoding: 73 73 44
Width: 282
GlyphClass: 2
Flags: W
LayerCount: 2
Fore
SplineSet
63 30 m 2,0,-1
 63 670 l 2,1,2
 63 703 63 703 123 703 c 2,3,-1
 158 703 l 2,4,5
 218 703 218 703 218 670 c 2,6,-1
 218 30 l 2,7,8
 218 -3 218 -3 158 -3 c 2,9,-1
 123 -3 l 2,10,11
 63 -3 63 -3 63 30 c 2,0,-1
EndSplineSet
EndChar

StartChar: J
Encoding: 74 74 45
Width: 402
GlyphClass: 2
Flags: W
LayerCount: 2
Fore
SplineSet
15 13 m 128,-1,1
 0 23 0 23 0 42 c 128,-1,2
 0 61 0 61 10.5 95 c 128,-1,3
 21 129 21 129 41 131 c 0,4,5
 43 131 43 131 60.5 127 c 128,-1,6
 78 123 78 123 97 123 c 0,7,8
 142 123 142 123 161.5 147.5 c 128,-1,9
 181 172 181 172 181 227 c 2,10,-1
 181 670 l 2,11,12
 181 703 181 703 241 703 c 2,13,-1
 276 703 l 2,14,15
 336 703 336 703 336 670 c 2,16,-1
 336 202 l 2,17,18
 336 103 336 103 284 47.5 c 128,-1,19
 232 -8 232 -8 124 -8 c 0,20,21
 95 -8 95 -8 62.5 -2.5 c 128,-1,0
 30 3 30 3 15 13 c 128,-1,1
EndSplineSet
EndChar

StartChar: K
Encoding: 75 75 46
Width: 576
GlyphClass: 2
Flags: W
LayerCount: 2
Fore
SplineSet
69 30 m 2,0,-1
 69 670 l 2,1,2
 69 702 69 702 129 702 c 2,3,-1
 164 702 l 2,4,5
 224 702 224 702 224 670 c 2,6,-1
 224 402 l 1,7,-1
 228 401 l 1,8,-1
 402 683 l 2,9,10
 413 702 413 702 462 702 c 2,11,-1
 509 702 l 2,12,13
 565 702 565 702 565 687 c 0,14,15
 565 678 565 678 557 666 c 2,16,-1
 364 370 l 1,17,-1
 583 34 l 2,18,19
 591 22 591 22 591 13 c 0,20,21
 591 -2 591 -2 535 -2 c 2,22,-1
 477 -2 l 2,23,24
 427 -2 427 -2 416 17 c 2,25,-1
 228 321 l 1,26,-1
 224 320 l 1,27,-1
 224 30 l 2,28,29
 224 -2 224 -2 164 -2 c 2,30,-1
 129 -2 l 2,31,32
 69 -2 69 -2 69 30 c 2,0,-1
EndSplineSet
EndChar

StartChar: L
Encoding: 76 76 47
Width: 484
GlyphClass: 2
Flags: W
LayerCount: 2
Fore
SplineSet
69 40 m 2,0,-1
 69 670 l 2,1,2
 69 702 69 702 129 702 c 2,3,-1
 163 702 l 2,4,5
 223 702 223 702 223 670 c 2,6,-1
 223 131 l 1,7,-1
 446 131 l 2,8,9
 476 131 476 131 476 81 c 2,10,-1
 476 50 l 2,11,12
 476 0 476 0 446 0 c 2,13,-1
 109 0 l 2,14,15
 69 0 69 0 69 40 c 2,0,-1
EndSplineSet
EndChar

StartChar: M
Encoding: 77 77 48
Width: 843
GlyphClass: 2
Flags: W
LayerCount: 2
Fore
SplineSet
69 30 m 2,0,-1
 69 670 l 2,1,2
 69 702 69 702 129 702 c 2,3,-1
 182 702 l 2,4,5
 230 702 230 702 245 675 c 2,6,-1
 421 362 l 1,7,-1
 599 675 l 2,8,9
 614 702 614 702 662 702 c 2,10,-1
 714 702 l 2,11,12
 774 702 774 702 774 670 c 2,13,-1
 774 30 l 2,14,15
 774 -2 774 -2 714 -2 c 2,16,-1
 685 -2 l 2,17,18
 625 -2 625 -2 625 30 c 2,19,-1
 625 444 l 1,20,-1
 621 445 l 1,21,-1
 476 186 l 1,22,23
 462 167 462 167 436 167 c 2,24,-1
 407 167 l 2,25,26
 381 167 381 167 367 186 c 1,27,-1
 222 445 l 1,28,-1
 218 444 l 1,29,-1
 218 30 l 2,30,31
 218 -2 218 -2 158 -2 c 2,32,-1
 129 -2 l 2,33,34
 69 -2 69 -2 69 30 c 2,0,-1
EndSplineSet
EndChar

StartChar: N
Encoding: 78 78 49
Width: 719
GlyphClass: 2
Flags: W
LayerCount: 2
Fore
SplineSet
69 30 m 2,0,-1
 69 670 l 2,1,2
 69 702 69 702 129 702 c 2,3,-1
 172 702 l 2,4,5
 220 702 220 702 238 675 c 2,6,-1
 501 270 l 1,7,-1
 501 670 l 2,8,9
 501 702 501 702 561 702 c 2,10,-1
 590 702 l 2,11,12
 650 702 650 702 650 670 c 2,13,-1
 650 30 l 2,14,15
 650 -2 650 -2 590 -2 c 2,16,-1
 552 -2 l 2,17,18
 504 -2 504 -2 486 25 c 2,19,-1
 218 435 l 1,20,-1
 218 30 l 2,21,22
 218 -2 218 -2 158 -2 c 2,23,-1
 129 -2 l 2,24,25
 69 -2 69 -2 69 30 c 2,0,-1
EndSplineSet
EndChar

StartChar: O
Encoding: 79 79 50
Width: 731
GlyphClass: 2
Flags: W
LayerCount: 2
Fore
SplineSet
45 350 m 128,-1,1
 45 523 45 523 128 615.5 c 128,-1,2
 211 708 211 708 366 708 c 128,-1,3
 521 708 521 708 603.5 615.5 c 128,-1,4
 686 523 686 523 686 350 c 128,-1,5
 686 177 686 177 603.5 84.5 c 128,-1,6
 521 -8 521 -8 366 -8 c 128,-1,7
 211 -8 211 -8 128 84.5 c 128,-1,0
 45 177 45 177 45 350 c 128,-1,1
366 123 m 128,-1,9
 446 123 446 123 487 181 c 128,-1,10
 528 239 528 239 528 350 c 128,-1,11
 528 461 528 461 487 518.5 c 128,-1,12
 446 576 446 576 366 576 c 128,-1,13
 286 576 286 576 244.5 518.5 c 128,-1,14
 203 461 203 461 203 350 c 128,-1,15
 203 239 203 239 244.5 181 c 128,-1,8
 286 123 286 123 366 123 c 128,-1,9
EndSplineSet
EndChar

StartChar: P
Encoding: 80 80 51
Width: 570
GlyphClass: 2
Flags: W
LayerCount: 2
Fore
SplineSet
69 30 m 2,0,-1
 69 660 l 2,1,2
 69 700 69 700 109 700 c 2,3,-1
 319 700 l 2,4,5
 436 700 436 700 500 642 c 0,6,7
 524 619 524 619 540.5 577.5 c 128,-1,8
 557 536 557 536 557 481 c 128,-1,9
 557 426 557 426 538 384.5 c 128,-1,10
 519 343 519 343 492.5 320.5 c 128,-1,11
 466 298 466 298 432 284 c 0,12,13
 379 262 379 262 329 262 c 2,14,-1
 223 262 l 1,15,-1
 223 30 l 2,16,17
 223 -2 223 -2 163 -2 c 2,18,-1
 129 -2 l 2,19,20
 69 -2 69 -2 69 30 c 2,0,-1
223 394 m 1,21,-1
 312 394 l 2,22,23
 348 394 348 394 373.5 413 c 128,-1,24
 399 432 399 432 399 481 c 128,-1,25
 399 530 399 530 373.5 549.5 c 128,-1,26
 348 569 348 569 312 569 c 2,27,-1
 223 569 l 1,28,-1
 223 394 l 1,21,-1
EndSplineSet
EndChar

StartChar: Q
Encoding: 81 81 52
Width: 731
GlyphClass: 2
Flags: W
LayerCount: 2
Fore
SplineSet
45 350 m 0,0,1
 45 523 45 523 128 615.5 c 128,-1,2
 211 708 211 708 366 708 c 128,-1,3
 521 708 521 708 603.5 615.5 c 128,-1,4
 686 523 686 523 686 350 c 0,5,6
 686 112 686 112 529 31 c 1,7,-1
 529 27 l 1,8,-1
 682 -28 l 2,9,10
 696 -33 696 -33 696 -48.5 c 128,-1,11
 696 -64 696 -64 679 -105 c 128,-1,12
 662 -146 662 -146 641 -146 c 0,13,14
 635 -146 635 -146 503.5 -93.5 c 128,-1,15
 372 -41 372 -41 227 16 c 0,16,17
 138 51 138 51 91.5 136 c 128,-1,18
 45 221 45 221 45 350 c 0,0,1
366 119 m 128,-1,20
 446 119 446 119 487 178 c 128,-1,21
 528 237 528 237 528 349 c 128,-1,22
 528 461 528 461 487 518.5 c 128,-1,23
 446 576 446 576 366 576 c 128,-1,24
 286 576 286 576 244.5 518.5 c 128,-1,25
 203 461 203 461 203 349 c 128,-1,26
 203 237 203 237 244.5 178 c 128,-1,19
 286 119 286 119 366 119 c 128,-1,20
EndSplineSet
EndChar

StartChar: R
Encoding: 82 82 53
Width: 610
GlyphClass: 2
Flags: W
LayerCount: 2
Fore
SplineSet
69 30 m 2,0,-1
 69 660 l 2,1,2
 69 700 69 700 109 700 c 2,3,-1
 304 700 l 2,4,5
 553 700 553 700 553 512 c 0,6,7
 553 456 553 456 521.5 414.5 c 128,-1,8
 490 373 490 373 436 353 c 1,9,-1
 436 349 l 1,10,11
 455 342 455 342 475 315.5 c 128,-1,12
 495 289 495 289 508 257 c 2,13,-1
 596 37 l 2,14,15
 601 24 601 24 601 18 c 0,16,17
 601 -2 601 -2 541 -2 c 2,18,-1
 500 -2 l 2,19,20
 450 -2 450 -2 442 19 c 2,21,-1
 363 214 l 1,22,23
 346 247 346 247 326.5 260.5 c 128,-1,24
 307 274 307 274 262 274 c 2,25,-1
 223 274 l 1,26,-1
 223 30 l 2,27,28
 223 -2 223 -2 163 -2 c 2,29,-1
 129 -2 l 2,30,31
 69 -2 69 -2 69 30 c 2,0,-1
223 407 m 1,32,-1
 318 407 l 2,33,34
 349 407 349 407 372 432 c 128,-1,35
 395 457 395 457 395 492.5 c 128,-1,36
 395 528 395 528 372.5 548.5 c 128,-1,37
 350 569 350 569 311 569 c 2,38,-1
 223 569 l 1,39,-1
 223 407 l 1,32,-1
EndSplineSet
EndChar

StartChar: S
Encoding: 83 83 54
Width: 500
GlyphClass: 2
Flags: W
LayerCount: 2
Fore
SplineSet
22 80 m 0,0,1
 22 103 22 103 45 136 c 128,-1,2
 68 169 68 169 84 169 c 0,3,4
 90 169 90 169 110 158 c 0,5,6
 172 123 172 123 231 123 c 0,7,8
 325 123 325 123 325 196 c 0,9,10
 325 228 325 228 295 250 c 128,-1,11
 265 272 265 272 222.5 288.5 c 128,-1,12
 180 305 180 305 138 326.5 c 128,-1,13
 96 348 96 348 66 393 c 128,-1,14
 36 438 36 438 36 505.5 c 128,-1,15
 36 573 36 573 72 621 c 0,16,17
 137 708 137 708 273 708 c 0,18,19
 349 708 349 708 401 686 c 128,-1,20
 453 664 453 664 453 638 c 0,21,22
 453 616 453 616 434 583.5 c 128,-1,23
 415 551 415 551 398 551 c 0,24,25
 394 551 394 551 380 558 c 0,26,27
 340 576 340 576 287.5 576 c 128,-1,28
 235 576 235 576 214.5 558 c 128,-1,29
 194 540 194 540 194 513 c 128,-1,30
 194 486 194 486 224 465 c 128,-1,31
 254 444 254 444 296 428 c 128,-1,32
 338 412 338 412 380.5 390.5 c 128,-1,33
 423 369 423 369 453 324 c 128,-1,34
 483 279 483 279 483 216.5 c 128,-1,35
 483 154 483 154 463.5 109.5 c 128,-1,36
 444 65 444 65 410 40 c 0,37,38
 344 -8 344 -8 248 -8 c 128,-1,39
 152 -8 152 -8 87 21 c 128,-1,40
 22 50 22 50 22 80 c 0,0,1
EndSplineSet
EndChar

StartChar: T
Encoding: 84 84 55
Width: 549
GlyphClass: 2
Flags: W
LayerCount: 2
Fore
SplineSet
197 30 m 2,0,-1
 197 569 l 1,1,-1
 38 569 l 2,2,3
 8 569 8 569 8 619 c 2,4,-1
 8 650 l 2,5,6
 8 700 8 700 38 700 c 2,7,-1
 511 700 l 2,8,9
 541 700 541 700 541 650 c 2,10,-1
 541 619 l 2,11,12
 541 569 541 569 511 569 c 2,13,-1
 352 569 l 1,14,-1
 352 30 l 2,15,16
 352 -2 352 -2 292 -2 c 2,17,-1
 257 -2 l 2,18,19
 197 -2 197 -2 197 30 c 2,0,-1
EndSplineSet
EndChar

StartChar: U
Encoding: 85 85 56
Width: 712
GlyphClass: 2
Flags: W
LayerCount: 2
Fore
SplineSet
66 234 m 2,0,-1
 66 670 l 2,1,2
 66 702 66 702 126 702 c 2,3,-1
 160 702 l 2,4,5
 220 702 220 702 220 670 c 2,6,-1
 220 244 l 2,7,8
 220 191 220 191 258 157 c 128,-1,9
 296 123 296 123 356 123 c 128,-1,10
 416 123 416 123 454.5 157 c 128,-1,11
 493 191 493 191 493 244 c 2,12,-1
 493 670 l 2,13,14
 493 702 493 702 553 702 c 2,15,-1
 586 702 l 2,16,17
 646 702 646 702 646 670 c 2,18,-1
 646 234 l 2,19,20
 646 119 646 119 570 55.5 c 128,-1,21
 494 -8 494 -8 356 -8 c 128,-1,22
 218 -8 218 -8 142 55.5 c 128,-1,23
 66 119 66 119 66 234 c 2,0,-1
EndSplineSet
EndChar

StartChar: V
Encoding: 86 86 57
Width: 617
GlyphClass: 2
Flags: W
LayerCount: 2
Fore
SplineSet
5 680 m 0,0,1
 5 702 5 702 66 702 c 2,2,-1
 99 702 l 2,3,4
 149 702 149 702 158 673 c 2,5,-1
 304 205 l 1,6,-1
 308 205 l 1,7,-1
 458 673 l 2,8,9
 468 702 468 702 517 702 c 2,10,-1
 548 702 l 2,11,12
 608 702 608 702 608 680 c 0,13,14
 608 672 608 672 605 662 c 2,15,-1
 389 19 l 2,16,17
 382 -2 382 -2 333 -2 c 2,18,-1
 281 -2 l 2,19,20
 232 -2 232 -2 225 19 c 2,21,-1
 9 662 l 2,22,23
 5 676 5 676 5 680 c 0,0,1
EndSplineSet
EndChar

StartChar: W
Encoding: 87 87 58
Width: 882
GlyphClass: 2
Flags: W
LayerCount: 2
Fore
SplineSet
-4 676 m 0,0,1
 -4 702 -4 702 58 702 c 2,2,-1
 84 702 l 2,3,4
 144 702 144 702 151 671 c 2,5,-1
 226 349 l 2,6,7
 228 342 228 342 257 205 c 1,8,9
 263 245 263 245 291 349 c 1,10,-1
 373 681 l 2,11,12
 378 702 378 702 428 702 c 2,13,-1
 466 702 l 2,14,15
 516 702 516 702 521 681 c 2,16,-1
 600 349 l 2,17,18
 617 276 617 276 634 198 c 1,19,20
 641 227 641 227 652.5 279.5 c 128,-1,21
 664 332 664 332 668 349 c 2,22,-1
 746 671 l 2,23,24
 753 702 753 702 813 702 c 2,25,-1
 824 702 l 2,26,27
 886 702 886 702 886 676 c 0,28,29
 886 673 886 673 884 661 c 1,30,-1
 721 19 l 2,31,32
 715 -2 715 -2 666 -2 c 2,33,-1
 593 -2 l 2,34,35
 542 -2 542 -2 538 19 c 2,36,-1
 440 433 l 1,37,-1
 338 19 l 2,38,39
 332 -2 332 -2 283 -2 c 2,40,-1
 211 -2 l 2,41,42
 160 -2 160 -2 156 19 c 1,43,-1
 -2 661 l 2,44,45
 -4 667 -4 667 -4 676 c 0,0,1
EndSplineSet
EndChar

StartChar: X
Encoding: 88 88 59
Width: 611
GlyphClass: 2
Flags: W
LayerCount: 2
Fore
SplineSet
8 17 m 0,0,1
 8 26 8 26 18 42 c 2,2,-1
 224 365 l 1,3,-1
 41 658 l 2,4,5
 31 675 31 675 31 683 c 0,6,7
 31 702 31 702 95 702 c 2,8,-1
 136 702 l 2,9,10
 185 702 185 702 196 683 c 2,11,-1
 310 497 l 1,12,-1
 430 683 l 2,13,14
 442 702 442 702 491 702 c 2,15,-1
 530 702 l 2,16,17
 593 702 593 702 593 683 c 0,18,19
 593 672 593 672 583 658 c 2,20,-1
 394 363 l 1,21,-1
 594 42 l 2,22,23
 603 27 603 27 603 17 c 0,24,25
 603 -2 603 -2 540 -2 c 2,26,-1
 501 -2 l 2,27,28
 452 -2 452 -2 441 17 c 2,29,-1
 308 232 l 1,30,-1
 170 17 l 2,31,32
 157 -2 157 -2 109 -2 c 2,33,-1
 71 -2 l 2,34,35
 8 -2 8 -2 8 17 c 0,0,1
EndSplineSet
EndChar

StartChar: Y
Encoding: 89 89 60
Width: 559
GlyphClass: 2
Flags: W
LayerCount: 2
Fore
SplineSet
203 30 m 2,0,-1
 203 336 l 1,1,-1
 4 657 l 2,2,3
 -6 674 -6 674 -6 682 c 0,4,5
 -6 702 -6 702 58 702 c 2,6,-1
 101 702 l 2,7,8
 150 702 150 702 161 683 c 2,9,-1
 283 469 l 1,10,-1
 406 683 l 2,11,12
 417 702 417 702 466 702 c 2,13,-1
 502 702 l 2,14,15
 565 702 565 702 565 682 c 0,16,17
 565 672 565 672 556 657 c 2,18,-1
 357 333 l 1,19,-1
 357 30 l 2,20,21
 357 -2 357 -2 297 -2 c 2,22,-1
 263 -2 l 2,23,24
 203 -2 203 -2 203 30 c 2,0,-1
EndSplineSet
EndChar

StartChar: Z
Encoding: 90 90 61
Width: 616
GlyphClass: 2
Flags: W
LayerCount: 2
Fore
SplineSet
66 0 m 2,0,1
 54 0 54 0 40.5 33.5 c 128,-1,2
 27 67 27 67 27 81 c 128,-1,3
 27 95 27 95 29 99 c 2,4,-1
 364 569 l 1,5,-1
 86 569 l 2,6,7
 56 569 56 569 56 619 c 2,8,-1
 56 650 l 2,9,10
 56 700 56 700 86 700 c 2,11,-1
 543 700 l 2,12,13
 554 700 554 700 567 665 c 128,-1,14
 580 630 580 630 580 616 c 128,-1,15
 580 602 580 602 579 600 c 2,16,-1
 245 131 l 1,17,-1
 550 131 l 2,18,19
 580 131 580 131 580 81 c 2,20,-1
 580 50 l 2,21,22
 580 0 580 0 550 0 c 2,23,-1
 66 0 l 2,0,1
EndSplineSet
EndChar

StartChar: bracketleft
Encoding: 91 91 62
Width: 291
GlyphClass: 2
Flags: W
LayerCount: 2
Fore
SplineSet
65 -98 m 2,0,-1
 65 728 l 2,1,2
 65 768 65 768 105 768 c 2,3,-1
 231 768 l 2,4,5
 261 768 261 768 261 728 c 2,6,-1
 261 713 l 2,7,8
 261 673 261 673 231 673 c 2,9,-1
 180 673 l 1,10,-1
 180 -43 l 1,11,-1
 231 -43 l 2,12,13
 261 -43 261 -43 261 -83 c 2,14,-1
 261 -98 l 2,15,16
 261 -138 261 -138 231 -138 c 2,17,-1
 105 -138 l 2,18,19
 65 -138 65 -138 65 -98 c 2,0,-1
EndSplineSet
EndChar

StartChar: backslash
Encoding: 92 92 63
Width: 361
GlyphClass: 2
Flags: W
LayerCount: 2
Fore
SplineSet
2 685 m 0,0,1
 2 702 2 702 45 702 c 2,2,-1
 68 702 l 2,3,4
 118 702 118 702 128 672 c 2,5,-1
 359 8 l 2,6,7
 362 0 362 0 362 -6 c 0,8,9
 362 -22 362 -22 319 -22 c 2,10,-1
 295 -22 l 2,11,12
 245 -22 245 -22 235 8 c 2,13,-1
 5 672 l 2,14,15
 2 680 2 680 2 685 c 0,0,1
EndSplineSet
EndChar

StartChar: bracketright
Encoding: 93 93 64
Width: 291
GlyphClass: 2
Flags: W
LayerCount: 2
Fore
SplineSet
61 -43 m 2,0,-1
 112 -43 l 1,1,-1
 112 673 l 1,2,-1
 61 673 l 2,3,4
 31 673 31 673 31 713 c 2,5,-1
 31 728 l 2,6,7
 31 768 31 768 61 768 c 2,8,-1
 187 768 l 2,9,10
 227 768 227 768 227 728 c 2,11,-1
 227 -98 l 2,12,13
 227 -138 227 -138 187 -138 c 2,14,-1
 61 -138 l 2,15,16
 31 -138 31 -138 31 -98 c 2,17,-1
 31 -83 l 2,18,19
 31 -43 31 -43 61 -43 c 2,0,-1
EndSplineSet
EndChar

StartChar: asciicircum
Encoding: 94 94 65
Width: 450
GlyphClass: 2
Flags: W
LayerCount: 2
Fore
SplineSet
67 318 m 2,0,1
 35 318 35 318 35 333 c 0,2,3
 35 340 35 340 39 348 c 2,4,-1
 168 656 l 2,5,6
 180 686 180 686 210 686 c 2,7,-1
 241 686 l 2,8,9
 270 686 270 686 283 656 c 2,10,-1
 412 348 l 2,11,12
 416 340 416 340 416 333 c 0,13,14
 416 318 416 318 384 318 c 2,15,-1
 363 318 l 2,16,17
 324 318 324 318 311 348 c 2,18,-1
 225 555 l 1,19,-1
 139 348 l 2,20,21
 126 318 126 318 88 318 c 2,22,-1
 67 318 l 2,0,1
EndSplineSet
EndChar

StartChar: underscore
Encoding: 95 95 66
Width: 534
GlyphClass: 2
Flags: W
LayerCount: 2
Fore
SplineSet
10 -36 m 2,0,-1
 525 -36 l 2,1,2
 555 -36 555 -36 555 -86 c 2,3,-1
 555 -93 l 2,4,5
 555 -143 555 -143 525 -143 c 2,6,-1
 10 -143 l 2,7,8
 -20 -143 -20 -143 -20 -93 c 2,9,-1
 -20 -86 l 2,10,11
 -20 -36 -20 -36 10 -36 c 2,0,-1
EndSplineSet
EndChar

StartChar: grave
Encoding: 96 96 67
Width: 320
GlyphClass: 2
Flags: W
LayerCount: 2
Fore
SplineSet
233 595 m 0,0,1
 181 595 181 595 154.5 624 c 128,-1,2
 128 653 128 653 96.5 686.5 c 128,-1,3
 65 720 65 720 59.5 727 c 128,-1,4
 54 734 54 734 54 740 c 0,5,6
 54 754 54 754 119 754 c 128,-1,7
 184 754 184 754 199 727 c 0,8,9
 211 706 211 706 223 685 c 128,-1,10
 235 664 235 664 242 653.5 c 128,-1,11
 249 643 249 643 254 633 c 0,12,13
 264 616 264 616 264 610 c 0,14,15
 264 595 264 595 233 595 c 0,0,1
EndSplineSet
EndChar

StartChar: a
Encoding: 97 97 68
Width: 545
GlyphClass: 2
Flags: W
LayerCount: 2
Fore
SplineSet
42 138 m 0,0,1
 42 166 42 166 47 189 c 128,-1,2
 52 212 52 212 70 238.5 c 128,-1,3
 88 265 88 265 118 282 c 0,4,5
 189 324 189 324 329 324 c 1,6,-1
 329 357 l 2,7,8
 329 414 329 414 251 414 c 0,9,10
 196 414 196 414 144 390 c 0,11,12
 126 382 126 382 123 382 c 0,13,14
 108 382 108 382 89.5 413 c 128,-1,15
 71 444 71 444 71 462 c 0,16,17
 71 489 71 489 126.5 510 c 128,-1,18
 182 531 182 531 262 531 c 0,19,20
 477 531 477 531 477 364 c 2,21,-1
 477 176 l 2,22,23
 477 114 477 114 483 72 c 2,24,-1
 489 31 l 1,25,26
 489 15 489 15 448.5 7 c 128,-1,27
 408 -1 408 -1 388 -1 c 128,-1,28
 368 -1 368 -1 361.5 3 c 128,-1,29
 355 7 355 7 351 16.5 c 128,-1,30
 347 26 347 26 345 31.5 c 128,-1,31
 343 37 343 37 340.5 51 c 128,-1,32
 338 65 338 65 337 68 c 1,33,34
 319 36 319 36 275 14 c 128,-1,35
 231 -8 231 -8 190 -8 c 0,36,37
 113 -8 113 -8 77.5 32 c 128,-1,38
 42 72 42 72 42 138 c 0,0,1
189 153 m 0,39,40
 189 133 189 133 202 121 c 128,-1,41
 215 109 215 109 241 109 c 128,-1,42
 267 109 267 109 292 127 c 128,-1,43
 317 145 317 145 329 172 c 1,44,-1
 329 227 l 1,45,46
 189 227 189 227 189 153 c 0,39,40
EndSplineSet
EndChar

StartChar: b
Encoding: 98 98 69
Width: 569
GlyphClass: 2
Flags: W
LayerCount: 2
Fore
SplineSet
66 30 m 2,0,-1
 66 722 l 2,1,2
 66 754 66 754 126 754 c 2,3,-1
 154 754 l 2,4,5
 214 754 214 754 214 722 c 2,6,-1
 214 500 l 1,7,8
 257 531 257 531 316 531 c 0,9,10
 416 531 416 531 471.5 458.5 c 128,-1,11
 527 386 527 386 527 260.5 c 128,-1,12
 527 135 527 135 475 63.5 c 128,-1,13
 423 -8 423 -8 340 -8 c 0,14,15
 295 -8 295 -8 259.5 13 c 128,-1,16
 224 34 224 34 206 67 c 1,17,-1
 196 24 l 2,18,19
 190 -2 190 -2 138 -2 c 2,20,-1
 126 -2 l 2,21,22
 66 -2 66 -2 66 30 c 2,0,-1
296 113 m 0,23,24
 377 113 377 113 377 263.5 c 128,-1,25
 377 414 377 414 284 414 c 0,26,27
 248 414 248 414 214 395 c 1,28,-1
 214 172 l 1,29,30
 248 113 248 113 296 113 c 0,23,24
EndSplineSet
EndChar

StartChar: c
Encoding: 99 99 70
Width: 485
GlyphClass: 2
Flags: W
LayerCount: 2
Fore
SplineSet
104 57.5 m 128,-1,1
 42 123 42 123 42 258.5 c 128,-1,2
 42 394 42 394 104.5 462.5 c 128,-1,3
 167 531 167 531 299 531 c 0,4,5
 360 531 360 531 412.5 512.5 c 128,-1,6
 465 494 465 494 465 462 c 0,7,8
 465 447 465 447 444.5 416 c 128,-1,9
 424 385 424 385 412 385 c 0,10,11
 408 385 408 385 394 392 c 0,12,13
 350 414 350 414 299 414 c 128,-1,14
 248 414 248 414 221 377 c 128,-1,15
 194 340 194 340 194 262 c 128,-1,16
 194 184 194 184 219.5 146.5 c 128,-1,17
 245 109 245 109 297.5 109 c 128,-1,18
 350 109 350 109 399 132 c 1,19,20
 415 138 415 138 417 138 c 0,21,22
 432 138 432 138 450.5 108.5 c 128,-1,23
 469 79 469 79 469 61 c 128,-1,24
 469 43 469 43 447 28 c 128,-1,25
 425 13 425 13 394 6 c 0,26,27
 330 -8 330 -8 294 -8 c 0,28,0
 166 -8 166 -8 104 57.5 c 128,-1,1
EndSplineSet
EndChar

StartChar: d
Encoding: 100 100 71
Width: 565
GlyphClass: 2
Flags: W
LayerCount: 2
Fore
SplineSet
229 -8 m 0,0,1
 146 -8 146 -8 94 63.5 c 128,-1,2
 42 135 42 135 42 260.5 c 128,-1,3
 42 386 42 386 97.5 458.5 c 128,-1,4
 153 531 153 531 253 531 c 0,5,6
 312 531 312 531 355 500 c 1,7,-1
 355 722 l 2,8,9
 355 754 355 754 415 754 c 2,10,-1
 443 754 l 2,11,12
 503 754 503 754 503 722 c 2,13,-1
 503 176 l 2,14,15
 503 114 503 114 509 72 c 2,16,-1
 515 31 l 1,17,18
 515 15 515 15 474.5 7 c 128,-1,19
 434 -1 434 -1 414 -1 c 128,-1,20
 394 -1 394 -1 387.5 3 c 128,-1,21
 381 7 381 7 377 16 c 128,-1,22
 373 25 373 25 371 31 c 128,-1,23
 369 37 369 37 366.5 50.5 c 128,-1,24
 364 64 364 64 363 67 c 1,25,26
 345 34 345 34 309.5 13 c 128,-1,27
 274 -8 274 -8 229 -8 c 0,0,1
273 113 m 0,28,29
 321 113 321 113 355 172 c 1,30,-1
 355 395 l 1,31,32
 321 414 321 414 285 414 c 0,33,34
 192 414 192 414 192 263.5 c 128,-1,35
 192 113 192 113 273 113 c 0,28,29
EndSplineSet
EndChar

StartChar: e
Encoding: 101 101 72
Width: 539
GlyphClass: 2
Flags: W
LayerCount: 2
Fore
SplineSet
106.5 62.5 m 128,-1,1
 42 133 42 133 42 266 c 128,-1,2
 42 399 42 399 106.5 465 c 128,-1,3
 171 531 171 531 283.5 531 c 128,-1,4
 396 531 396 531 448.5 459 c 128,-1,5
 501 387 501 387 501 273 c 0,6,7
 501 261 501 261 480.5 237.5 c 128,-1,8
 460 214 460 214 450 214 c 2,9,-1
 195 214 l 1,10,11
 200 157 200 157 229 133 c 128,-1,12
 258 109 258 109 303 109 c 128,-1,13
 348 109 348 109 389 124.5 c 128,-1,14
 430 140 430 140 431 140 c 0,15,16
 446 140 446 140 464.5 110.5 c 128,-1,17
 483 81 483 81 483 64 c 0,18,19
 483 31 483 31 420.5 11.5 c 128,-1,20
 358 -8 358 -8 303 -8 c 0,21,0
 171 -8 171 -8 106.5 62.5 c 128,-1,1
357 313 m 1,22,23
 357 359 357 359 339 386.5 c 128,-1,24
 321 414 321 414 285 414 c 0,25,26
 211 414 211 414 195 313 c 1,27,-1
 357 313 l 1,22,23
EndSplineSet
EndChar

StartChar: f
Encoding: 102 102 73
Width: 325
GlyphClass: 2
Flags: W
LayerCount: 2
Fore
SplineSet
294 639 m 1,0,-1
 263 643 l 1,1,2
 227 643 227 643 227 600 c 2,3,-1
 227 523 l 1,4,-1
 277 523 l 2,5,6
 307 523 307 523 307 473 c 2,7,-1
 307 456 l 2,8,9
 307 406 307 406 277 406 c 2,10,-1
 227 406 l 1,11,-1
 227 30 l 2,12,13
 227 -2 227 -2 167 -2 c 2,14,-1
 139 -2 l 2,15,16
 79 -2 79 -2 79 30 c 2,17,-1
 79 406 l 1,18,-1
 61 406 l 2,19,20
 31 406 31 406 31 456 c 2,21,-1
 31 473 l 2,22,23
 31 523 31 523 61 523 c 2,24,-1
 79 523 l 1,25,-1
 79 598 l 2,26,27
 79 760 79 760 225 760 c 0,28,29
 325 760 325 760 325 711 c 0,30,31
 325 698 325 698 316 668.5 c 128,-1,32
 307 639 307 639 294 639 c 1,0,-1
EndSplineSet
EndChar

StartChar: g
Encoding: 103 103 74
Width: 546
GlyphClass: 2
Flags: W
LayerCount: 2
Fore
SplineSet
24 -74 m 0,0,1
 24 7 24 7 115 42 c 1,2,-1
 116 46 l 1,3,4
 73 68 73 68 73 120 c 128,-1,5
 73 172 73 172 133 204 c 1,6,7
 52 249 52 249 52 346.5 c 128,-1,8
 52 444 52 444 111.5 487.5 c 128,-1,9
 171 531 171 531 267 531 c 0,10,11
 306 531 306 531 344 523 c 1,12,-1
 505 523 l 2,13,14
 535 523 535 523 535 473 c 2,15,-1
 535 456 l 2,16,17
 535 409 535 409 510.5 409 c 128,-1,18
 486 409 486 409 468 413 c 1,19,-1
 466 409 l 1,20,21
 482 388 482 388 482 353 c 0,22,23
 482 264 482 264 425.5 220 c 128,-1,24
 369 176 369 176 278 176 c 0,25,26
 217 176 217 176 217 149 c 0,27,28
 217 120 217 120 296 113 c 256,29,30
 375 106 375 106 442 80 c 0,31,32
 475 67 475 67 497.5 35.5 c 128,-1,33
 520 4 520 4 520 -42 c 0,34,35
 520 -119 520 -119 449 -165.5 c 128,-1,36
 378 -212 378 -212 262 -212 c 0,37,38
 24 -212 24 -212 24 -74 c 0,0,1
267 283 m 128,-1,40
 300 283 300 283 321 300.5 c 128,-1,41
 342 318 342 318 342 353.5 c 128,-1,42
 342 389 342 389 321 406.5 c 128,-1,43
 300 424 300 424 267 424 c 128,-1,44
 234 424 234 424 213 406.5 c 128,-1,45
 192 389 192 389 192 353.5 c 128,-1,46
 192 318 192 318 213 300.5 c 128,-1,39
 234 283 234 283 267 283 c 128,-1,40
168 -50 m 0,47,48
 168 -95 168 -95 272 -95 c 128,-1,49
 376 -95 376 -95 376 -46 c 0,50,51
 376 -23 376 -23 342.5 -12.5 c 128,-1,52
 309 -2 309 -2 222 4 c 1,53,54
 168 -15 168 -15 168 -50 c 0,47,48
EndSplineSet
EndChar

StartChar: h
Encoding: 104 104 75
Width: 565
GlyphClass: 2
Flags: W
LayerCount: 2
Fore
SplineSet
66 30 m 2,0,-1
 66 722 l 2,1,2
 66 754 66 754 126 754 c 2,3,-1
 154 754 l 2,4,5
 214 754 214 754 214 722 c 2,6,-1
 214 463 l 1,7,8
 271 531 271 531 355 531 c 0,9,10
 506 531 506 531 506 369 c 2,11,-1
 506 30 l 2,12,13
 506 -2 506 -2 446 -2 c 2,14,-1
 418 -2 l 2,15,16
 358 -2 358 -2 358 30 c 2,17,-1
 358 347 l 2,18,19
 358 409 358 409 294 409 c 0,20,21
 244 409 244 409 214 351 c 1,22,-1
 214 30 l 2,23,24
 214 -2 214 -2 154 -2 c 2,25,-1
 126 -2 l 2,26,27
 66 -2 66 -2 66 30 c 2,0,-1
EndSplineSet
EndChar

StartChar: i
Encoding: 105 105 76
Width: 265
GlyphClass: 2
Flags: W
LayerCount: 2
Fore
SplineSet
119 609 m 2,0,1
 59 609 59 609 59 641 c 2,2,-1
 59 722 l 2,3,4
 59 754 59 754 119 754 c 2,5,-1
 147 754 l 2,6,7
 207 754 207 754 207 722 c 2,8,-1
 207 641 l 2,9,10
 207 609 207 609 147 609 c 2,11,-1
 119 609 l 2,0,1
59 30 m 2,12,-1
 59 493 l 2,13,14
 59 525 59 525 119 525 c 2,15,-1
 147 525 l 2,16,17
 207 525 207 525 207 493 c 2,18,-1
 207 30 l 2,19,20
 207 -2 207 -2 147 -2 c 2,21,-1
 119 -2 l 2,22,23
 59 -2 59 -2 59 30 c 2,12,-1
EndSplineSet
EndChar

StartChar: j
Encoding: 106 106 77
Width: 276
GlyphClass: 2
Flags: W
LayerCount: 2
Fore
SplineSet
130 609 m 2,0,1
 70 609 70 609 70 641 c 2,2,-1
 70 722 l 2,3,4
 70 754 70 754 130 754 c 2,5,-1
 158 754 l 2,6,7
 218 754 218 754 218 722 c 2,8,-1
 218 641 l 2,9,10
 218 609 218 609 158 609 c 2,11,-1
 130 609 l 2,0,1
4 -91 m 1,12,-1
 34 -95 l 1,13,14
 70 -95 70 -95 70 -52 c 2,15,-1
 70 493 l 2,16,17
 70 525 70 525 130 525 c 2,18,-1
 158 525 l 2,19,20
 218 525 218 525 218 493 c 2,21,-1
 218 -50 l 2,22,23
 218 -129 218 -129 177.5 -170.5 c 128,-1,24
 137 -212 137 -212 75 -212 c 128,-1,25
 13 -212 13 -212 -9.5 -200.5 c 128,-1,26
 -32 -189 -32 -189 -32 -164.5 c 128,-1,27
 -32 -140 -32 -140 -21 -115.5 c 128,-1,28
 -10 -91 -10 -91 4 -91 c 1,12,-1
EndSplineSet
EndChar

StartChar: k
Encoding: 107 107 78
Width: 521
GlyphClass: 2
Flags: W
LayerCount: 2
Fore
SplineSet
66 30 m 2,0,-1
 66 722 l 2,1,2
 66 754 66 754 126 754 c 2,3,-1
 154 754 l 2,4,5
 214 754 214 754 214 722 c 2,6,-1
 214 326 l 1,7,-1
 218 325 l 1,8,-1
 339 506 l 2,9,10
 352 525 352 525 400 525 c 2,11,-1
 437 525 l 2,12,13
 493 525 493 525 493 510 c 0,14,15
 493 502 493 502 484 490 c 2,16,-1
 345 292 l 1,17,-1
 508 34 l 2,18,19
 516 20 516 20 516 13 c 0,20,21
 516 -2 516 -2 459 -2 c 2,22,-1
 417 -2 l 2,23,24
 368 -2 368 -2 357 17 c 2,25,-1
 218 247 l 1,26,-1
 214 246 l 1,27,-1
 214 30 l 2,28,29
 214 -2 214 -2 154 -2 c 2,30,-1
 126 -2 l 2,31,32
 66 -2 66 -2 66 30 c 2,0,-1
EndSplineSet
EndChar

StartChar: l
Encoding: 108 108 79
Width: 297
GlyphClass: 2
Flags: W
LayerCount: 2
Fore
SplineSet
247 109 m 1,0,-1
 274 113 l 1,1,2
 287 113 287 113 296 83.5 c 128,-1,3
 305 54 305 54 305 41 c 0,4,5
 305 -8 305 -8 209 -8 c 0,6,7
 63 -8 63 -8 63 154 c 2,8,-1
 63 722 l 2,9,10
 63 754 63 754 123 754 c 2,11,-1
 151 754 l 2,12,13
 211 754 211 754 211 722 c 2,14,-1
 211 152 l 2,15,16
 211 109 211 109 247 109 c 1,0,-1
EndSplineSet
EndChar

StartChar: m
Encoding: 109 109 80
Width: 848
GlyphClass: 2
Flags: W
LayerCount: 2
Fore
SplineSet
62 30 m 2,0,-1
 62 347 l 2,1,2
 62 422 62 422 56 452 c 128,-1,3
 50 482 50 482 50 488 c 0,4,5
 50 504 50 504 90.5 512 c 128,-1,6
 131 520 131 520 151 520 c 128,-1,7
 171 520 171 520 177.5 516 c 128,-1,8
 184 512 184 512 188 503.5 c 128,-1,9
 192 495 192 495 194 489.5 c 128,-1,10
 196 484 196 484 198.5 471 c 128,-1,11
 201 458 201 458 202 455 c 1,12,13
 226 487 226 487 265.5 509 c 128,-1,14
 305 531 305 531 350 531 c 0,15,16
 453 531 453 531 482 455 c 1,17,18
 507 487 507 487 548 509 c 128,-1,19
 589 531 589 531 636 531 c 0,20,21
 711 531 711 531 746.5 491.5 c 128,-1,22
 782 452 782 452 782 369 c 2,23,-1
 782 30 l 2,24,25
 782 -2 782 -2 722 -2 c 2,26,-1
 694 -2 l 2,27,28
 634 -2 634 -2 634 30 c 2,29,-1
 634 347 l 2,30,31
 634 409 634 409 575 409 c 0,32,33
 526 409 526 409 496 351 c 1,34,-1
 496 30 l 2,35,36
 496 -2 496 -2 436 -2 c 2,37,-1
 408 -2 l 2,38,39
 348 -2 348 -2 348 30 c 2,40,-1
 348 347 l 2,41,42
 348 409 348 409 289 409 c 0,43,44
 240 409 240 409 210 351 c 1,45,-1
 210 30 l 2,46,47
 210 -2 210 -2 150 -2 c 2,48,-1
 122 -2 l 2,49,50
 62 -2 62 -2 62 30 c 2,0,-1
EndSplineSet
EndChar

StartChar: n
Encoding: 110 110 81
Width: 557
GlyphClass: 2
Flags: W
LayerCount: 2
Fore
SplineSet
62 30 m 2,0,-1
 62 347 l 2,1,2
 62 422 62 422 56 452 c 128,-1,3
 50 482 50 482 50 488 c 0,4,5
 50 504 50 504 90.5 512 c 128,-1,6
 131 520 131 520 151 520 c 128,-1,7
 171 520 171 520 177.5 516 c 128,-1,8
 184 512 184 512 188 503.5 c 128,-1,9
 192 495 192 495 194 489.5 c 128,-1,10
 196 484 196 484 198.5 471 c 128,-1,11
 201 458 201 458 202 455 c 1,12,13
 226 487 226 487 266 509 c 128,-1,14
 306 531 306 531 351 531 c 0,15,16
 426 531 426 531 462 491.5 c 128,-1,17
 498 452 498 452 498 369 c 2,18,-1
 498 30 l 2,19,20
 498 -2 498 -2 438 -2 c 2,21,-1
 410 -2 l 2,22,23
 350 -2 350 -2 350 30 c 2,24,-1
 350 347 l 2,25,26
 350 409 350 409 290 409 c 0,27,28
 240 409 240 409 210 351 c 1,29,-1
 210 30 l 2,30,31
 210 -2 210 -2 150 -2 c 2,32,-1
 122 -2 l 2,33,34
 62 -2 62 -2 62 30 c 2,0,-1
EndSplineSet
EndChar

StartChar: o
Encoding: 111 111 82
Width: 569
GlyphClass: 2
Flags: W
LayerCount: 2
Fore
SplineSet
42 262 m 128,-1,1
 42 393 42 393 104 462 c 128,-1,2
 166 531 166 531 285 531 c 128,-1,3
 404 531 404 531 465.5 462 c 128,-1,4
 527 393 527 393 527 262 c 128,-1,5
 527 131 527 131 465.5 61.5 c 128,-1,6
 404 -8 404 -8 285 -8 c 128,-1,7
 166 -8 166 -8 104 61.5 c 128,-1,0
 42 131 42 131 42 262 c 128,-1,1
284.5 109 m 128,-1,9
 377 109 377 109 377 261.5 c 128,-1,10
 377 414 377 414 284.5 414 c 128,-1,11
 192 414 192 414 192 261.5 c 128,-1,8
 192 109 192 109 284.5 109 c 128,-1,9
EndSplineSet
EndChar

StartChar: p
Encoding: 112 112 83
Width: 573
GlyphClass: 2
Flags: W
LayerCount: 2
Fore
SplineSet
70 -174 m 2,0,-1
 70 347 l 2,1,2
 70 422 70 422 64 452 c 128,-1,3
 58 482 58 482 58 488 c 0,4,5
 58 504 58 504 98.5 512 c 128,-1,6
 139 520 139 520 159 520 c 128,-1,7
 179 520 179 520 185.5 516 c 128,-1,8
 192 512 192 512 196 503.5 c 128,-1,9
 200 495 200 495 202 489 c 128,-1,10
 204 483 204 483 206.5 471 c 128,-1,11
 209 459 209 459 210 456 c 1,12,13
 228 489 228 489 263.5 510 c 128,-1,14
 299 531 299 531 344 531 c 0,15,16
 427 531 427 531 479 459.5 c 128,-1,17
 531 388 531 388 531 262.5 c 128,-1,18
 531 137 531 137 475.5 64.5 c 128,-1,19
 420 -8 420 -8 320 -8 c 0,20,21
 261 -8 261 -8 218 23 c 1,22,-1
 218 -174 l 2,23,24
 218 -206 218 -206 158 -206 c 2,25,-1
 130 -206 l 2,26,27
 70 -206 70 -206 70 -174 c 2,0,-1
288 109 m 0,28,29
 381 109 381 109 381 259.5 c 128,-1,30
 381 410 381 410 300 410 c 0,31,32
 252 410 252 410 218 351 c 1,33,-1
 218 128 l 1,34,35
 252 109 252 109 288 109 c 0,28,29
EndSplineSet
EndChar

StartChar: q
Encoding: 113 113 84
Width: 566
GlyphClass: 2
Flags: W
LayerCount: 2
Fore
SplineSet
258 -8 m 0,0,1
 156 -8 156 -8 99 64.5 c 128,-1,2
 42 137 42 137 42 262.5 c 128,-1,3
 42 388 42 388 95 459.5 c 128,-1,4
 148 531 148 531 234 531 c 0,5,6
 279 531 279 531 314.5 510 c 128,-1,7
 350 489 350 489 368 456 c 1,8,-1
 378 499 l 2,9,10
 384 525 384 525 436 525 c 2,11,-1
 448 525 l 2,12,13
 508 525 508 525 508 493 c 2,14,-1
 508 -174 l 2,15,16
 508 -206 508 -206 448 -206 c 2,17,-1
 420 -206 l 2,18,19
 360 -206 360 -206 360 -174 c 2,20,-1
 360 23 l 1,21,22
 317 -8 317 -8 258 -8 c 0,0,1
290 109 m 0,23,24
 326 109 326 109 360 128 c 1,25,-1
 360 351 l 1,26,27
 326 410 326 410 278 410 c 0,28,29
 192 410 192 410 192 259.5 c 128,-1,30
 192 109 192 109 290 109 c 0,23,24
EndSplineSet
EndChar

StartChar: r
Encoding: 114 114 85
Width: 366
GlyphClass: 2
Flags: W
LayerCount: 2
Fore
SplineSet
62 30 m 2,0,-1
 62 347 l 2,1,2
 62 422 62 422 56 452 c 128,-1,3
 50 482 50 482 50 488 c 0,4,5
 50 504 50 504 90.5 512 c 128,-1,6
 131 520 131 520 151 520 c 128,-1,7
 171 520 171 520 177.5 516 c 128,-1,8
 184 512 184 512 188 503.5 c 128,-1,9
 192 495 192 495 194 489.5 c 128,-1,10
 196 484 196 484 198.5 471 c 128,-1,11
 201 458 201 458 202 455 c 1,12,13
 244 531 244 531 311 531 c 0,14,15
 343 531 343 531 355.5 514.5 c 128,-1,16
 368 498 368 498 368 477 c 128,-1,17
 368 456 368 456 359 424.5 c 128,-1,18
 350 393 350 393 337 393 c 0,19,20
 331 393 331 393 316 397 c 128,-1,21
 301 401 301 401 290 401 c 0,22,23
 240 401 240 401 210 351 c 1,24,-1
 210 30 l 2,25,26
 210 -2 210 -2 150 -2 c 2,27,-1
 122 -2 l 2,28,29
 62 -2 62 -2 62 30 c 2,0,-1
EndSplineSet
EndChar

StartChar: s
Encoding: 115 115 86
Width: 413
GlyphClass: 2
Flags: W
LayerCount: 2
Fore
SplineSet
31 63 m 0,0,1
 31 79 31 79 50 108 c 128,-1,2
 69 137 69 137 84 137 c 0,3,4
 86 137 86 137 120 123 c 128,-1,5
 154 109 154 109 182 109 c 0,6,7
 243 109 243 109 243 154 c 0,8,9
 243 178 243 178 222.5 192.5 c 128,-1,10
 202 207 202 207 172.5 217 c 128,-1,11
 143 227 143 227 113.5 241 c 128,-1,12
 84 255 84 255 63.5 287 c 128,-1,13
 43 319 43 319 43 369 c 0,14,15
 43 444 43 444 92.5 487.5 c 128,-1,16
 142 531 142 531 227 531 c 0,17,18
 267 531 267 531 303 523 c 0,19,20
 375 507 375 507 375 468 c 0,21,22
 375 455 375 455 360 424.5 c 128,-1,23
 345 394 345 394 332 394 c 0,24,25
 331 394 331 394 302.5 404.5 c 128,-1,26
 274 415 274 415 247 415 c 0,27,28
 193 415 193 415 193 379 c 0,29,30
 193 359 193 359 213.5 346.5 c 128,-1,31
 234 334 234 334 263.5 323.5 c 128,-1,32
 293 313 293 313 322.5 297.5 c 128,-1,33
 352 282 352 282 372.5 248.5 c 128,-1,34
 393 215 393 215 393 166 c 0,35,36
 393 87 393 87 341.5 39.5 c 128,-1,37
 290 -8 290 -8 212.5 -8 c 128,-1,38
 135 -8 135 -8 83 10.5 c 128,-1,39
 31 29 31 29 31 63 c 0,0,1
EndSplineSet
EndChar

StartChar: t
Encoding: 116 116 87
Width: 342
GlyphClass: 2
Flags: W
LayerCount: 2
Fore
SplineSet
261 109 m 1,0,-1
 288 113 l 1,1,2
 301 113 301 113 310 83.5 c 128,-1,3
 319 54 319 54 319 41 c 0,4,5
 319 -8 319 -8 223 -8 c 0,6,7
 77 -8 77 -8 77 154 c 2,8,-1
 77 406 l 1,9,-1
 61 406 l 2,10,11
 31 406 31 406 31 456 c 2,12,-1
 31 473 l 2,13,14
 31 523 31 523 61 523 c 2,15,-1
 77 523 l 1,16,-1
 90 618 l 2,17,18
 95 650 95 650 144 650 c 2,19,-1
 175 650 l 2,20,21
 225 650 225 650 225 618 c 2,22,-1
 225 523 l 1,23,-1
 274 523 l 2,24,25
 304 523 304 523 304 473 c 2,26,-1
 304 456 l 2,27,28
 304 406 304 406 274 406 c 2,29,-1
 225 406 l 1,30,-1
 225 152 l 2,31,32
 225 109 225 109 261 109 c 1,0,-1
EndSplineSet
EndChar

StartChar: u
Encoding: 117 117 88
Width: 557
GlyphClass: 2
Flags: W
LayerCount: 2
Fore
SplineSet
59 154 m 2,0,-1
 59 493 l 2,1,2
 59 525 59 525 119 525 c 2,3,-1
 147 525 l 2,4,5
 207 525 207 525 207 493 c 2,6,-1
 207 176 l 2,7,8
 207 114 207 114 267 114 c 0,9,10
 317 114 317 114 347 172 c 1,11,-1
 347 493 l 2,12,13
 347 525 347 525 407 525 c 2,14,-1
 435 525 l 2,15,16
 495 525 495 525 495 493 c 2,17,-1
 495 176 l 2,18,19
 495 114 495 114 501 72 c 2,20,-1
 507 31 l 1,21,22
 507 15 507 15 466.5 7 c 128,-1,23
 426 -1 426 -1 406 -1 c 128,-1,24
 386 -1 386 -1 379.5 3 c 128,-1,25
 373 7 373 7 369 16.5 c 128,-1,26
 365 26 365 26 363 31.5 c 128,-1,27
 361 37 361 37 358.5 51 c 128,-1,28
 356 65 356 65 355 68 c 1,29,30
 331 36 331 36 291.5 14 c 128,-1,31
 252 -8 252 -8 206 -8 c 0,32,33
 131 -8 131 -8 95 31.5 c 128,-1,34
 59 71 59 71 59 154 c 2,0,-1
EndSplineSet
EndChar

StartChar: v
Encoding: 118 118 89
Width: 485
GlyphClass: 2
Flags: W
LayerCount: 2
Fore
SplineSet
7 503 m 0,0,1
 7 525 7 525 68 525 c 2,2,-1
 101 525 l 2,3,4
 150 525 150 525 157 504 c 2,5,-1
 216 319 l 2,6,7
 218 311 218 311 244 198 c 1,8,-1
 248 198 l 1,9,10
 266 286 266 286 276 319 c 2,11,-1
 335 504 l 2,12,13
 342 525 342 525 391 525 c 2,14,-1
 416 525 l 2,15,16
 476 525 476 525 476 503 c 0,17,18
 476 496 476 496 473 485 c 2,19,-1
 314 19 l 2,20,21
 307 -2 307 -2 258 -2 c 2,22,-1
 226 -2 l 2,23,24
 177 -2 177 -2 170 19 c 2,25,-1
 11 485 l 2,26,27
 7 499 7 499 7 503 c 0,0,1
EndSplineSet
EndChar

StartChar: w
Encoding: 119 119 90
Width: 747
GlyphClass: 2
Flags: W
LayerCount: 2
Fore
SplineSet
18 499 m 0,0,1
 18 525 18 525 80 525 c 2,2,-1
 104 525 l 2,3,4
 153 525 153 525 159 504 c 2,5,-1
 238 196 l 1,6,-1
 314 504 l 1,7,8
 318 525 318 525 369 525 c 2,9,-1
 393 525 l 2,10,11
 444 525 444 525 448 504 c 1,12,-1
 522 196 l 1,13,-1
 603 504 l 2,14,15
 609 525 609 525 658 525 c 2,16,-1
 662 525 l 2,17,18
 724 525 724 525 724 499 c 0,19,20
 724 496 724 496 722 484 c 1,21,-1
 604 19 l 2,22,23
 598 -2 598 -2 549 -2 c 2,24,-1
 500 -2 l 2,25,26
 451 -2 451 -2 445 19 c 2,27,-1
 373 300 l 1,28,-1
 305 19 l 2,29,30
 300 -2 300 -2 250 -2 c 2,31,-1
 201 -2 l 2,32,33
 152 -2 152 -2 146 19 c 2,34,-1
 20 484 l 2,35,36
 18 490 18 490 18 499 c 0,0,1
EndSplineSet
EndChar

StartChar: x
Encoding: 120 120 91
Width: 485
GlyphClass: 2
Flags: W
LayerCount: 2
Fore
SplineSet
5 16 m 0,0,1
 5 24 5 24 16 41 c 2,2,-1
 167 265 l 1,3,-1
 25 481 l 2,4,5
 14 498 14 498 14 507 c 0,6,7
 14 525 14 525 77 525 c 2,8,-1
 109 525 l 2,9,10
 158 525 158 525 170 506 c 2,11,-1
 246 383 l 1,12,-1
 325 506 l 2,13,14
 337 525 337 525 386 525 c 2,15,-1
 415 525 l 2,16,17
 478 525 478 525 478 507 c 0,18,19
 478 499 478 499 467 482 c 2,20,-1
 321 266 l 1,21,-1
 469 42 l 2,22,23
 480 25 480 25 480 16 c 0,24,25
 480 -2 480 -2 417 -2 c 2,26,-1
 385 -2 l 2,27,28
 336 -2 336 -2 324 17 c 2,29,-1
 242 148 l 1,30,-1
 159 17 l 2,31,32
 147 -2 147 -2 98 -2 c 2,33,-1
 68 -2 l 2,34,35
 5 -2 5 -2 5 16 c 0,0,1
EndSplineSet
EndChar

StartChar: y
Encoding: 121 121 92
Width: 481
GlyphClass: 2
Flags: W
LayerCount: 2
Fore
SplineSet
10 503 m 0,0,1
 10 525 10 525 71 525 c 2,2,-1
 103 525 l 2,3,4
 152 525 152 525 159 504 c 2,5,-1
 218 319 l 2,6,7
 227 291 227 291 246 198 c 1,8,-1
 250 198 l 1,9,10
 270 294 270 294 278 319 c 2,11,-1
 337 504 l 2,12,13
 344 525 344 525 393 525 c 2,14,-1
 417 525 l 2,15,16
 477 525 477 525 477 503 c 0,17,18
 477 496 477 496 474 485 c 2,19,-1
 245 -185 l 2,20,21
 237 -206 237 -206 189 -206 c 2,22,-1
 172 -206 l 2,23,24
 112 -206 112 -206 112 -185 c 0,25,26
 112 -176 112 -176 116 -167 c 2,27,-1
 179 0 l 1,28,-1
 14 485 l 2,29,30
 10 499 10 499 10 503 c 0,0,1
EndSplineSet
EndChar

StartChar: z
Encoding: 122 122 93
Width: 489
GlyphClass: 2
Flags: W
LayerCount: 2
Fore
SplineSet
56 0 m 2,0,1
 47 0 47 0 37 27.5 c 128,-1,2
 27 55 27 55 27 70.5 c 128,-1,3
 27 86 27 86 30 90 c 2,4,-1
 259 406 l 1,5,-1
 73 406 l 2,6,7
 43 406 43 406 43 456 c 2,8,-1
 43 473 l 2,9,10
 43 523 43 523 73 523 c 2,11,-1
 427 523 l 2,12,13
 435 523 435 523 445.5 495 c 128,-1,14
 456 467 456 467 456 451.5 c 128,-1,15
 456 436 456 436 453 431 c 2,16,-1
 225 117 l 1,17,-1
 430 117 l 2,18,19
 460 117 460 117 460 67 c 2,20,-1
 460 50 l 2,21,22
 460 0 460 0 430 0 c 2,23,-1
 56 0 l 2,0,1
EndSplineSet
EndChar

StartChar: braceleft
Encoding: 123 123 94
Width: 274
GlyphClass: 2
Flags: W
LayerCount: 2
Fore
SplineSet
94 -22 m 2,0,-1
 94 146 l 2,1,2
 94 196 94 196 83.5 222 c 128,-1,3
 73 248 73 248 47 259 c 1,4,5
 18 276 18 276 18 309 c 2,6,-1
 18 321 l 2,7,8
 18 354 18 354 47 371 c 1,9,10
 73 382 73 382 83.5 408 c 128,-1,11
 94 434 94 434 94 484 c 2,12,-1
 94 652 l 2,13,14
 94 703 94 703 121.5 735.5 c 128,-1,15
 149 768 149 768 193 768 c 2,16,-1
 232 768 l 2,17,18
 262 768 262 768 262 728 c 2,19,-1
 262 714 l 2,20,21
 262 675 262 675 236 674 c 1,22,-1
 238 674 l 2,23,24
 209 674 209 674 209 638 c 2,25,-1
 209 468 l 2,26,27
 209 354 209 354 141 315 c 1,28,29
 209 276 209 276 209 162 c 2,30,-1
 209 -8 l 2,31,32
 209 -41 209 -41 233 -44 c 1,33,34
 262 -44 262 -44 262 -84 c 2,35,-1
 262 -98 l 2,36,37
 262 -138 262 -138 232 -138 c 2,38,-1
 193 -138 l 2,39,40
 149 -138 149 -138 121.5 -105.5 c 128,-1,41
 94 -73 94 -73 94 -22 c 2,0,-1
EndSplineSet
EndChar

StartChar: bar
Encoding: 124 124 95
Width: 250
GlyphClass: 2
Flags: W
LayerCount: 2
Fore
SplineSet
68 -108 m 2,0,-1
 68 738 l 2,1,2
 68 768 68 768 118 768 c 2,3,-1
 133 768 l 2,4,5
 183 768 183 768 183 738 c 2,6,-1
 183 -108 l 2,7,8
 183 -138 183 -138 133 -138 c 2,9,-1
 118 -138 l 2,10,11
 68 -138 68 -138 68 -108 c 2,0,-1
EndSplineSet
EndChar

StartChar: braceright
Encoding: 125 125 96
Width: 274
GlyphClass: 2
Flags: W
LayerCount: 2
Fore
SplineSet
19 -84 m 2,0,1
 19 -44 19 -44 47 -44 c 1,2,3
 72 -41 72 -41 72 -8 c 2,4,-1
 72 162 l 2,5,6
 72 276 72 276 140 315 c 1,7,8
 72 354 72 354 72 468 c 2,9,-1
 72 638 l 2,10,11
 72 674 72 674 43 674 c 2,12,-1
 44 674 l 1,13,14
 19 675 19 675 19 714 c 2,15,-1
 19 728 l 2,16,17
 19 768 19 768 49 768 c 2,18,-1
 88 768 l 2,19,20
 132 768 132 768 159.5 735.5 c 128,-1,21
 187 703 187 703 187 652 c 2,22,-1
 187 484 l 2,23,24
 187 434 187 434 197.5 408 c 128,-1,25
 208 382 208 382 234 371 c 1,26,27
 263 354 263 354 263 321 c 2,28,-1
 263 309 l 2,29,30
 263 276 263 276 234 259 c 1,31,32
 208 248 208 248 197.5 222 c 128,-1,33
 187 196 187 196 187 146 c 2,34,-1
 187 -22 l 2,35,36
 187 -73 187 -73 159.5 -105.5 c 128,-1,37
 132 -138 132 -138 88 -138 c 2,38,-1
 49 -138 l 2,39,40
 19 -138 19 -138 19 -98 c 2,41,-1
 19 -84 l 2,0,1
EndSplineSet
EndChar

StartChar: asciitilde
Encoding: 126 126 97
Width: 547
GlyphClass: 2
Flags: W
LayerCount: 2
Fore
SplineSet
130.5 219.5 m 128,-1,1
 111 214 111 214 100.5 214 c 128,-1,2
 90 214 90 214 77 231 c 128,-1,3
 64 248 64 248 64 265 c 0,4,5
 64 291 64 291 115 318.5 c 128,-1,6
 166 346 166 346 206 346 c 128,-1,7
 246 346 246 346 300 325 c 128,-1,8
 354 304 354 304 373 304 c 128,-1,9
 392 304 392 304 413 311.5 c 128,-1,10
 434 319 434 319 446.5 319 c 128,-1,11
 459 319 459 319 471.5 299 c 128,-1,12
 484 279 484 279 484 261 c 0,13,14
 484 233 484 233 431 208 c 128,-1,15
 378 183 378 183 339 183 c 128,-1,16
 300 183 300 183 246.5 204 c 128,-1,17
 193 225 193 225 171.5 225 c 128,-1,0
 150 225 150 225 130.5 219.5 c 128,-1,1
EndSplineSet
EndChar

StartChar: exclamdown
Encoding: 161 161 99
Width: 294
GlyphClass: 2
Flags: W
LayerCount: 2
Fore
SplineSet
138 369 m 2,0,1
 78 369 78 369 78 401 c 2,2,-1
 78 493 l 2,3,4
 78 525 78 525 138 525 c 2,5,-1
 170 525 l 2,6,7
 230 525 230 525 230 493 c 2,8,-1
 230 401 l 2,9,10
 230 369 230 369 170 369 c 2,11,-1
 138 369 l 2,0,1
47 -152 m 0,12,13
 47 -145 47 -145 97 268 c 0,14,15
 99 285 99 285 109 292.5 c 128,-1,16
 119 300 119 300 148 300 c 2,17,-1
 159 300 l 2,18,19
 188 300 188 300 199 292.5 c 128,-1,20
 210 285 210 285 210 268 c 2,21,-1
 210 -148 l 2,22,23
 210 -180 210 -180 150 -180 c 2,24,-1
 107 -180 l 2,25,26
 47 -180 47 -180 47 -152 c 0,12,13
EndSplineSet
EndChar

StartChar: cent
Encoding: 162 162 100
Width: 486
GlyphClass: 2
Flags: W
LayerCount: 2
Fore
SplineSet
96.5 64.5 m 128,-1,1
 42 130 42 130 42 257.5 c 128,-1,2
 42 385 42 385 95.5 453.5 c 128,-1,3
 149 522 149 522 263 530 c 1,4,-1
 263 557 l 2,5,6
 263 587 263 587 290 587 c 0,7,8
 320 587 320 587 320 557 c 2,9,-1
 320 530 l 1,10,11
 374 526 374 526 415.5 508 c 128,-1,12
 457 490 457 490 457 462 c 0,13,14
 457 447 457 447 436.5 416 c 128,-1,15
 416 385 416 385 404 385 c 0,16,17
 401 385 401 385 374 397.5 c 128,-1,18
 347 410 347 410 320 413 c 1,19,-1
 320 110 l 1,20,21
 350 113 350 113 378 125.5 c 128,-1,22
 406 138 406 138 409 138 c 0,23,24
 424 138 424 138 442.5 108.5 c 128,-1,25
 461 79 461 79 461 62 c 0,26,27
 461 10 461 10 320 -6 c 1,28,-1
 320 -48 l 2,29,30
 320 -78 320 -78 293 -78 c 0,31,32
 263 -78 263 -78 263 -48 c 2,33,-1
 263 -7 l 1,34,0
 151 -1 151 -1 96.5 64.5 c 128,-1,1
263 409 m 1,35,36
 192 388 192 388 192 260.5 c 128,-1,37
 192 133 192 133 263 113 c 1,38,-1
 263 409 l 1,35,36
EndSplineSet
EndChar

StartChar: sterling
Encoding: 163 163 101
Width: 491
GlyphClass: 2
Flags: W
LayerCount: 2
Fore
SplineSet
18 40 m 2,0,-1
 18 59 l 2,1,2
 18 83 18 83 56 107 c 0,3,4
 70 116 70 116 82 134 c 128,-1,5
 94 152 94 152 94 175 c 2,6,-1
 94 311 l 1,7,-1
 61 311 l 2,8,9
 31 311 31 311 31 361 c 2,10,-1
 31 378 l 2,11,12
 31 428 31 428 61 428 c 2,13,-1
 94 428 l 1,14,-1
 94 502 l 2,15,16
 94 708 94 708 324 708 c 0,17,18
 434 708 434 708 434 663 c 0,19,20
 434 637 434 637 420.5 612.5 c 128,-1,21
 407 588 407 588 394 588 c 0,22,23
 393 588 393 588 384 590 c 0,24,25
 355 596 355 596 330 596 c 0,26,27
 239 596 239 596 239 507 c 2,28,-1
 239 428 l 1,29,-1
 347 428 l 2,30,31
 377 428 377 428 377 378 c 2,32,-1
 377 361 l 2,33,34
 377 311 377 311 347 311 c 2,35,-1
 239 311 l 1,36,-1
 239 251 l 2,37,38
 239 158 239 158 198 117 c 1,39,-1
 421 117 l 2,40,41
 451 117 451 117 451 67 c 2,42,-1
 451 50 l 2,43,44
 451 0 451 0 421 0 c 2,45,-1
 58 0 l 2,46,47
 18 0 18 0 18 40 c 2,0,-1
EndSplineSet
EndChar

StartChar: currency
Encoding: 164 164 102
Width: 534
GlyphClass: 2
Flags: W
LayerCount: 2
Fore
SplineSet
42 139 m 128,-1,1
 42 152 42 152 54 164 c 2,2,-1
 76 186 l 1,3,4
 49 234 49 234 49 291 c 128,-1,5
 49 348 49 348 78 395 c 1,6,-1
 51 422 l 2,7,8
 39 434 39 434 39 447 c 128,-1,9
 39 460 39 460 51 472 c 2,10,-1
 81 502 l 2,11,12
 93 514 93 514 106 514 c 128,-1,13
 119 514 119 514 131 502 c 2,14,-1
 159 474 l 1,15,16
 208 500 208 500 261 500 c 128,-1,17
 314 500 314 500 363 473 c 1,18,-1
 392 502 l 2,19,20
 404 514 404 514 417 514 c 128,-1,21
 430 514 430 514 442 502 c 2,22,-1
 472 472 l 2,23,24
 484 460 484 460 484 447 c 128,-1,25
 484 434 484 434 472 422 c 2,26,-1
 443 393 l 1,27,28
 471 345 471 345 471 291 c 128,-1,29
 471 237 471 237 445 188 c 1,30,-1
 469 164 l 2,31,32
 481 152 481 152 481 139 c 128,-1,33
 481 126 481 126 469 114 c 2,34,-1
 439 84 l 2,35,36
 427 72 427 72 414 72 c 128,-1,37
 401 72 401 72 389 84 c 2,38,-1
 366 107 l 1,39,40
 319 78 319 78 261.5 78 c 128,-1,41
 204 78 204 78 155 105 c 1,42,-1
 134 84 l 2,43,44
 122 72 122 72 109 72 c 128,-1,45
 96 72 96 72 84 84 c 2,46,-1
 54 114 l 2,47,0
 42 126 42 126 42 139 c 128,-1,1
260 192 m 128,-1,49
 300 192 300 192 328.5 220 c 128,-1,50
 357 248 357 248 357 289 c 128,-1,51
 357 330 357 330 328.5 358 c 128,-1,52
 300 386 300 386 260 386 c 128,-1,53
 220 386 220 386 191.5 358 c 128,-1,54
 163 330 163 330 163 289 c 128,-1,55
 163 248 163 248 191.5 220 c 128,-1,48
 220 192 220 192 260 192 c 128,-1,49
EndSplineSet
EndChar

StartChar: yen
Encoding: 165 165 103
Width: 559
GlyphClass: 2
Flags: W
LayerCount: 2
Fore
SplineSet
70 195 m 2,0,1
 40 195 40 195 40 225 c 2,2,-1
 40 240 l 2,3,4
 40 270 40 270 70 270 c 2,5,-1
 205 270 l 1,6,-1
 205 334 l 1,7,-1
 70 334 l 2,8,9
 40 334 40 334 40 364 c 2,10,-1
 40 379 l 2,11,12
 40 409 40 409 70 409 c 2,13,-1
 159 409 l 1,14,-1
 6 657 l 2,15,16
 -4 674 -4 674 -4 682 c 0,17,18
 -4 702 -4 702 60 702 c 2,19,-1
 103 702 l 2,20,21
 152 702 152 702 163 683 c 2,22,-1
 285 469 l 1,23,-1
 408 683 l 2,24,25
 419 702 419 702 468 702 c 2,26,-1
 504 702 l 2,27,28
 567 702 567 702 567 682 c 0,29,30
 567 672 567 672 558 657 c 2,31,-1
 405 409 l 1,32,-1
 487 409 l 2,33,34
 517 409 517 409 517 379 c 2,35,-1
 517 364 l 2,36,37
 517 333 517 333 487 333 c 2,38,-1
 359 333 l 1,39,-1
 359 270 l 1,40,-1
 487 270 l 2,41,42
 517 270 517 270 517 240 c 2,43,-1
 517 225 l 2,44,45
 517 195 517 195 487 195 c 2,46,-1
 359 195 l 1,47,-1
 359 30 l 2,48,49
 359 -2 359 -2 299 -2 c 2,50,-1
 265 -2 l 2,51,52
 205 -2 205 -2 205 30 c 2,53,-1
 205 195 l 1,54,-1
 70 195 l 2,0,1
EndSplineSet
EndChar

StartChar: brokenbar
Encoding: 166 166 104
Width: 250
GlyphClass: 2
Flags: W
LayerCount: 2
Fore
SplineSet
118 380 m 2,0,1
 68 380 68 380 68 412 c 2,2,-1
 68 738 l 2,3,4
 68 770 68 770 118 770 c 2,5,-1
 133 770 l 2,6,7
 183 770 183 770 183 738 c 2,8,-1
 183 412 l 2,9,10
 183 380 183 380 133 380 c 2,11,-1
 118 380 l 2,0,1
68 -108 m 2,12,-1
 68 218 l 2,13,14
 68 250 68 250 118 250 c 2,15,-1
 133 250 l 2,16,17
 183 250 183 250 183 218 c 2,18,-1
 183 -108 l 2,19,20
 183 -140 183 -140 133 -140 c 2,21,-1
 118 -140 l 2,22,23
 68 -140 68 -140 68 -108 c 2,12,-1
EndSplineSet
EndChar

StartChar: section
Encoding: 167 167 105
Width: 429
GlyphClass: 2
Flags: W
LayerCount: 2
Fore
SplineSet
77.5 22.5 m 128,-1,1
 60 36 60 36 60 52.5 c 128,-1,2
 60 69 60 69 75 99.5 c 128,-1,3
 90 130 90 130 103 130 c 0,4,5
 104 130 104 130 132.5 119.5 c 128,-1,6
 161 109 161 109 188 109 c 0,7,8
 242 109 242 109 242 140 c 0,9,10
 242 158 242 158 221.5 170 c 128,-1,11
 201 182 201 182 171.5 193 c 128,-1,12
 142 204 142 204 112.5 219.5 c 128,-1,13
 83 235 83 235 62.5 268 c 128,-1,14
 42 301 42 301 42 357.5 c 128,-1,15
 42 414 42 414 79 459 c 1,16,17
 41 492 41 492 41 559 c 128,-1,18
 41 626 41 626 90.5 667 c 128,-1,19
 140 708 140 708 225 708 c 0,20,21
 265 708 265 708 301 700 c 0,22,23
 373 684 373 684 373 645 c 0,24,25
 373 632 373 632 358 601.5 c 128,-1,26
 343 571 343 571 330 571 c 0,27,28
 329 571 329 571 300.5 581.5 c 128,-1,29
 272 592 272 592 245 592 c 0,30,31
 191 592 191 592 191 561 c 0,32,33
 191 543 191 543 211.5 531 c 128,-1,34
 232 519 232 519 261.5 508 c 128,-1,35
 291 497 291 497 320.5 481.5 c 128,-1,36
 350 466 350 466 370.5 433 c 128,-1,37
 391 400 391 400 391 342.5 c 128,-1,38
 391 285 391 285 354 242 c 1,39,40
 392 206 392 206 392 140.5 c 128,-1,41
 392 75 392 75 342.5 34 c 128,-1,42
 293 -7 293 -7 208 -7 c 0,43,44
 168 -7 168 -7 131.5 1 c 128,-1,0
 95 9 95 9 77.5 22.5 c 128,-1,1
252 292 m 1,45,46
 261 312 261 312 261 338 c 128,-1,47
 261 364 261 364 241 379.5 c 128,-1,48
 221 395 221 395 181 409 c 1,49,50
 172 392 172 392 172 364.5 c 128,-1,51
 172 337 172 337 192 321.5 c 128,-1,52
 212 306 212 306 252 292 c 1,45,46
EndSplineSet
EndChar

StartChar: dieresis
Encoding: 168 168 106
Width: 320
GlyphClass: 2
Flags: W
LayerCount: 2
Fore
SplineSet
251 578 m 128,-1,1
 191 578 191 578 191 610 c 2,2,-1
 191 670 l 2,3,4
 191 702 191 702 251 702 c 128,-1,5
 311 702 311 702 311 670 c 2,6,-1
 311 610 l 2,7,0
 311 578 311 578 251 578 c 128,-1,1
71 578 m 128,-1,9
 11 578 11 578 11 610 c 2,10,-1
 11 670 l 2,11,12
 11 702 11 702 71 702 c 128,-1,13
 131 702 131 702 131 670 c 2,14,-1
 131 610 l 2,15,8
 131 578 131 578 71 578 c 128,-1,9
EndSplineSet
EndChar

StartChar: copyright
Encoding: 169 169 107
Width: 739
GlyphClass: 2
Flags: W
LayerCount: 2
Fore
SplineSet
10 350 m 128,-1,1
 10 498 10 498 115 603 c 128,-1,2
 220 708 220 708 368 708 c 128,-1,3
 516 708 516 708 621 603 c 128,-1,4
 726 498 726 498 726 350 c 128,-1,5
 726 202 726 202 621 97 c 128,-1,6
 516 -8 516 -8 368 -8 c 128,-1,7
 220 -8 220 -8 115 97 c 128,-1,0
 10 202 10 202 10 350 c 128,-1,1
74 350 m 128,-1,9
 74 228 74 228 160 142 c 128,-1,10
 246 56 246 56 368 56 c 128,-1,11
 490 56 490 56 576 142 c 128,-1,12
 662 228 662 228 662 350 c 128,-1,13
 662 472 662 472 576 558 c 128,-1,14
 490 644 490 644 368 644 c 128,-1,15
 246 644 246 644 160 558 c 128,-1,8
 74 472 74 472 74 350 c 128,-1,9
197 353 m 0,16,17
 197 552 197 552 383 552 c 0,18,19
 424 552 424 552 462 540.5 c 128,-1,20
 500 529 500 529 500 513 c 0,21,22
 500 500 500 500 487 480 c 128,-1,23
 474 460 474 460 464 460 c 0,24,25
 462 460 462 460 452 464 c 0,26,27
 424 478 424 478 382 478 c 0,28,29
 285 478 285 478 285 351.5 c 128,-1,30
 285 225 285 225 381 225 c 0,31,32
 424 225 424 225 458 242 c 0,33,34
 470 248 470 248 472 248 c 0,35,36
 484 248 484 248 494.5 228.5 c 128,-1,37
 505 209 505 209 505 199 c 0,38,39
 505 176 505 176 464 164 c 128,-1,40
 423 152 423 152 381 152 c 0,41,42
 287 152 287 152 242 201 c 128,-1,43
 197 250 197 250 197 353 c 0,16,17
EndSplineSet
EndChar

StartChar: ordfeminine
Encoding: 170 170 108
Width: 319
GlyphClass: 2
Flags: W
LayerCount: 2
Fore
SplineSet
115 440 m 0,0,1
 42 440 42 440 42 512 c 0,2,3
 42 605 42 605 185 605 c 1,4,-1
 185 621 l 2,5,6
 185 649 185 649 146 649 c 0,7,8
 116 649 116 649 100 641.5 c 128,-1,9
 84 634 84 634 82 634 c 0,10,11
 75 634 75 634 66 649.5 c 128,-1,12
 57 665 57 665 57 674 c 0,13,14
 57 687 57 687 84.5 697.5 c 128,-1,15
 112 708 112 708 152 708 c 0,16,17
 258 708 258 708 258 625 c 2,18,-1
 258 531 l 2,19,20
 258 491 258 491 261 477 c 128,-1,21
 264 463 264 463 264 460 c 0,22,23
 264 452 264 452 244 447.5 c 128,-1,24
 224 443 224 443 214 443 c 128,-1,25
 204 443 204 443 201 445 c 128,-1,26
 198 447 198 447 196 451.5 c 128,-1,27
 194 456 194 456 193 459 c 0,28,29
 189 471 189 471 189 477 c 1,30,31
 183 462 183 462 159.5 451 c 128,-1,32
 136 440 136 440 115 440 c 0,0,1
115 520 m 0,33,34
 115 498 115 498 143 498 c 128,-1,35
 171 498 171 498 185 529 c 1,36,-1
 185 556 l 1,37,38
 115 556 115 556 115 520 c 0,33,34
EndSplineSet
EndChar

StartChar: guillemotleft
Encoding: 171 171 109
Width: 471
GlyphClass: 2
Flags: W
LayerCount: 2
Fore
SplineSet
226 258 m 128,-1,1
 226 283 226 283 242 302 c 2,2,-1
 369 455 l 1,3,4
 382 469 382 469 397 469 c 128,-1,5
 412 469 412 469 433.5 452.5 c 128,-1,6
 455 436 455 436 455 423 c 128,-1,7
 455 410 455 410 446 398 c 2,8,-1
 336 258 l 1,9,-1
 446 118 l 2,10,11
 455 106 455 106 455 93 c 128,-1,12
 455 80 455 80 434 63 c 128,-1,13
 413 46 413 46 397.5 46 c 128,-1,14
 382 46 382 46 369 61 c 2,15,-1
 242 214 l 2,16,0
 226 233 226 233 226 258 c 128,-1,1
27 258 m 128,-1,18
 27 283 27 283 43 302 c 2,19,-1
 170 455 l 1,20,21
 183 469 183 469 198 469 c 128,-1,22
 213 469 213 469 234.5 452.5 c 128,-1,23
 256 436 256 436 256 423 c 128,-1,24
 256 410 256 410 247 398 c 2,25,-1
 137 258 l 1,26,-1
 247 118 l 2,27,28
 256 106 256 106 256 93 c 128,-1,29
 256 80 256 80 235 63 c 128,-1,30
 214 46 214 46 199 46 c 128,-1,31
 184 46 184 46 170 61 c 1,32,-1
 43 214 l 2,33,17
 27 233 27 233 27 258 c 128,-1,18
EndSplineSet
EndChar

StartChar: logicalnot
Encoding: 172 172 110
Width: 560
GlyphClass: 2
Flags: W
LayerCount: 2
Fore
SplineSet
60 242 m 2,0,1
 30 242 30 242 30 292 c 2,2,-1
 30 299 l 2,3,4
 30 349 30 349 60 349 c 2,5,-1
 490 349 l 2,6,7
 530 349 530 349 530 309 c 2,8,-1
 530 104 l 2,9,10
 530 72 530 72 490 72 c 2,11,-1
 470 72 l 2,12,13
 430 72 430 72 430 104 c 2,14,-1
 430 242 l 1,15,-1
 60 242 l 2,0,1
EndSplineSet
EndChar

StartChar: uni00AD
Encoding: 173 173 111
Width: 320
GlyphClass: 2
Flags: W
LayerCount: 2
Fore
SplineSet
60 212 m 2,0,1
 30 212 30 212 30 262 c 2,2,-1
 30 269 l 2,3,4
 30 319 30 319 60 319 c 2,5,-1
 255 319 l 2,6,7
 285 319 285 319 285 269 c 2,8,-1
 285 262 l 2,9,10
 285 212 285 212 255 212 c 2,11,-1
 60 212 l 2,0,1
EndSplineSet
EndChar

StartChar: registered
Encoding: 174 174 112
Width: 739
GlyphClass: 2
Flags: W
LayerCount: 2
Fore
SplineSet
10 350 m 128,-1,1
 10 498 10 498 115 603 c 128,-1,2
 220 708 220 708 368 708 c 128,-1,3
 516 708 516 708 621 603 c 128,-1,4
 726 498 726 498 726 350 c 128,-1,5
 726 202 726 202 621 97 c 128,-1,6
 516 -8 516 -8 368 -8 c 128,-1,7
 220 -8 220 -8 115 97 c 128,-1,0
 10 202 10 202 10 350 c 128,-1,1
74 350 m 128,-1,9
 74 228 74 228 160 142 c 128,-1,10
 246 56 246 56 368 56 c 128,-1,11
 490 56 490 56 576 142 c 128,-1,12
 662 228 662 228 662 350 c 128,-1,13
 662 472 662 472 576 558 c 128,-1,14
 490 644 490 644 368 644 c 128,-1,15
 246 644 246 644 160 558 c 128,-1,8
 74 472 74 472 74 350 c 128,-1,9
241 174 m 2,16,-1
 241 526 l 2,17,18
 241 548 241 548 263 548 c 2,19,-1
 372 548 l 2,20,21
 511 548 511 548 511 443 c 0,22,23
 511 380 511 380 445 354 c 1,24,-1
 445 350 l 1,25,26
 472 338 472 338 486 301 c 2,27,-1
 535 178 l 2,28,29
 538 171 538 171 538 167 c 0,30,31
 538 156 538 156 505 156 c 2,32,-1
 482 156 l 2,33,34
 454 156 454 156 449 168 c 2,35,-1
 405 277 l 1,36,37
 396 295 396 295 385 302.5 c 128,-1,38
 374 310 374 310 349 310 c 2,39,-1
 327 310 l 1,40,-1
 327 174 l 2,41,42
 327 156 327 156 293 156 c 2,43,-1
 275 156 l 2,44,45
 241 156 241 156 241 174 c 2,16,-1
327 384 m 1,46,-1
 380 384 l 2,47,48
 397 384 397 384 410 398.5 c 128,-1,49
 423 413 423 413 423 432.5 c 128,-1,50
 423 452 423 452 410.5 463.5 c 128,-1,51
 398 475 398 475 376 475 c 2,52,-1
 327 475 l 1,53,-1
 327 384 l 1,46,-1
EndSplineSet
EndChar

StartChar: macron
Encoding: 175 175 113
Width: 320
GlyphClass: 2
Flags: W
LayerCount: 2
Fore
SplineSet
51 597 m 2,0,1
 21 597 21 597 21 637 c 2,2,-1
 21 652 l 2,3,4
 21 692 21 692 51 692 c 2,5,-1
 266 692 l 2,6,7
 296 692 296 692 296 652 c 2,8,-1
 296 637 l 2,9,10
 296 597 296 597 266 597 c 2,11,-1
 51 597 l 2,0,1
EndSplineSet
EndChar

StartChar: degree
Encoding: 176 176 114
Width: 345
GlyphClass: 2
Flags: W
LayerCount: 2
Fore
SplineSet
170 443 m 128,-1,1
 115 443 115 443 76.5 481.5 c 128,-1,2
 38 520 38 520 38 575 c 128,-1,3
 38 630 38 630 76.5 669 c 128,-1,4
 115 708 115 708 170 708 c 128,-1,5
 225 708 225 708 264 669 c 128,-1,6
 303 630 303 630 303 575 c 128,-1,7
 303 520 303 520 264 481.5 c 128,-1,0
 225 443 225 443 170 443 c 128,-1,1
170 505 m 128,-1,9
 198 505 198 505 218 525.5 c 128,-1,10
 238 546 238 546 238 575 c 128,-1,11
 238 604 238 604 218 625 c 128,-1,12
 198 646 198 646 170 646 c 128,-1,13
 142 646 142 646 122.5 625 c 128,-1,14
 103 604 103 604 103 575 c 128,-1,15
 103 546 103 546 122.5 525.5 c 128,-1,8
 142 505 142 505 170 505 c 128,-1,9
EndSplineSet
EndChar

StartChar: plusminus
Encoding: 177 177 115
Width: 560
GlyphClass: 2
Flags: W
LayerCount: 2
Fore
SplineSet
222 160 m 2,0,-1
 222 312 l 1,1,-1
 71 312 l 2,2,3
 41 312 41 312 41 362 c 2,4,-1
 41 369 l 2,5,6
 41 419 41 419 71 419 c 2,7,-1
 222 419 l 1,8,-1
 222 573 l 2,9,10
 222 603 222 603 272 603 c 2,11,-1
 286 603 l 2,12,13
 336 603 336 603 336 573 c 2,14,-1
 336 419 l 1,15,-1
 489 419 l 2,16,17
 519 419 519 419 519 369 c 2,18,-1
 519 362 l 2,19,20
 519 312 519 312 489 312 c 2,21,-1
 336 312 l 1,22,-1
 336 160 l 2,23,24
 336 130 336 130 286 130 c 2,25,-1
 272 130 l 2,26,27
 222 130 222 130 222 160 c 2,0,-1
41 50 m 2,28,-1
 41 57 l 2,29,30
 41 107 41 107 71 107 c 2,31,-1
 489 107 l 2,32,33
 519 107 519 107 519 57 c 2,34,-1
 519 50 l 2,35,36
 519 0 519 0 489 0 c 2,37,-1
 71 0 l 2,38,39
 41 0 41 0 41 50 c 2,28,-1
EndSplineSet
EndChar

StartChar: twosuperior
Encoding: 178 178 116
Width: 320
GlyphClass: 2
Flags: W
LayerCount: 2
Fore
SplineSet
33 292 m 2,0,1
 27 292 27 292 21.5 310.5 c 128,-1,2
 16 329 16 329 16 339 c 128,-1,3
 16 349 16 349 18 353 c 2,4,-1
 166 533 l 2,5,6
 188 560 188 560 188 586 c 0,7,8
 188 637 188 637 134 637 c 0,9,10
 111 637 111 637 88 625 c 2,11,-1
 66 613 l 1,12,13
 53 613 53 613 42.5 626.5 c 128,-1,14
 32 640 32 640 32 653 c 0,15,16
 32 677 32 677 67.5 691.5 c 128,-1,17
 103 706 103 706 155.5 706 c 128,-1,18
 208 706 208 706 242 674.5 c 128,-1,19
 276 643 276 643 276 592 c 128,-1,20
 276 541 276 541 240 496 c 2,21,-1
 131 360 l 1,22,-1
 265 360 l 2,23,24
 283 360 283 360 283 332 c 2,25,-1
 283 322 l 2,26,27
 283 292 283 292 265 292 c 2,28,-1
 33 292 l 2,0,1
EndSplineSet
EndChar

StartChar: threesuperior
Encoding: 179 179 117
Width: 320
GlyphClass: 2
Flags: W
LayerCount: 2
Fore
SplineSet
244.5 320.5 m 128,-1,1
 208 287 208 287 156.5 287 c 128,-1,2
 105 287 105 287 63 299 c 128,-1,3
 21 311 21 311 21 336 c 0,4,5
 21 346 21 346 30.5 363 c 128,-1,6
 40 380 40 380 50 380 c 1,7,-1
 78 368 l 2,8,9
 106 356 106 356 134 356 c 128,-1,10
 162 356 162 356 177.5 371 c 128,-1,11
 193 386 193 386 193 413 c 0,12,13
 193 473 193 473 124 473 c 2,14,-1
 108 473 l 2,15,16
 90 473 90 473 90 502 c 2,17,-1
 90 513 l 2,18,19
 90 542 90 542 108 542 c 2,20,-1
 119 542 l 2,21,22
 147 542 147 542 163.5 555.5 c 128,-1,23
 180 569 180 569 180 591 c 0,24,25
 180 639 180 639 132 639 c 0,26,27
 105 639 105 639 84.5 629.5 c 128,-1,28
 64 620 64 620 63 620 c 0,29,30
 54 620 54 620 43.5 636.5 c 128,-1,31
 33 653 33 653 33 665 c 0,32,33
 33 686 33 686 66.5 697 c 128,-1,34
 100 708 100 708 151.5 708 c 128,-1,35
 203 708 203 708 235.5 680 c 128,-1,36
 268 652 268 652 268 605 c 0,37,38
 268 544 268 544 213 520 c 1,39,-1
 213 516 l 1,40,41
 281 489 281 489 281 412 c 0,42,0
 281 354 281 354 244.5 320.5 c 128,-1,1
EndSplineSet
EndChar

StartChar: acute
Encoding: 180 180 118
Width: 320
GlyphClass: 2
Flags: W
LayerCount: 2
Fore
SplineSet
85 595 m 0,0,1
 54 595 54 595 54 610 c 0,2,3
 54 620 54 620 68.5 642 c 128,-1,4
 83 664 83 664 95 685 c 128,-1,5
 107 706 107 706 119 727 c 0,6,7
 134 754 134 754 199 754 c 128,-1,8
 264 754 264 754 264 740 c 0,9,10
 264 734 264 734 258 726 c 128,-1,11
 252 718 252 718 234 699.5 c 128,-1,12
 216 681 216 681 209 673.5 c 128,-1,13
 202 666 202 666 188 650.5 c 128,-1,14
 174 635 174 635 160 620 c 0,15,16
 137 595 137 595 85 595 c 0,0,1
EndSplineSet
EndChar

StartChar: mu
Encoding: 181 181 119
Width: 566
GlyphClass: 2
Flags: W
LayerCount: 2
Fore
SplineSet
53 -174 m 2,0,-1
 53 493 l 2,1,2
 53 525 53 525 113 525 c 2,3,-1
 141 525 l 2,4,5
 201 525 201 525 201 493 c 2,6,-1
 201 176 l 2,7,8
 201 114 201 114 261 114 c 0,9,10
 311 114 311 114 341 172 c 1,11,-1
 341 493 l 2,12,13
 341 525 341 525 401 525 c 2,14,-1
 429 525 l 2,15,16
 489 525 489 525 489 493 c 2,17,-1
 489 176 l 2,18,19
 489 114 489 114 495 72 c 2,20,-1
 501 31 l 1,21,22
 501 15 501 15 460.5 7 c 128,-1,23
 420 -1 420 -1 400 -1 c 128,-1,24
 380 -1 380 -1 373.5 3 c 128,-1,25
 367 7 367 7 363 16.5 c 128,-1,26
 359 26 359 26 357 31.5 c 128,-1,27
 355 37 355 37 352.5 51 c 128,-1,28
 350 65 350 65 349 68 c 1,29,30
 325 37 325 37 285.5 15 c 128,-1,31
 246 -7 246 -7 201 -8 c 1,32,-1
 201 -174 l 2,33,34
 201 -206 201 -206 141 -206 c 2,35,-1
 113 -206 l 2,36,37
 53 -206 53 -206 53 -174 c 2,0,-1
EndSplineSet
EndChar

StartChar: paragraph
Encoding: 182 182 120
Width: 515
GlyphClass: 2
Flags: W
LayerCount: 2
Fore
SplineSet
243 -141 m 2,0,-1
 243 247 l 1,1,2
 158 257 158 257 99.5 321.5 c 128,-1,3
 41 386 41 386 41 479.5 c 128,-1,4
 41 573 41 573 106.5 636.5 c 128,-1,5
 172 700 172 700 268 700 c 2,6,-1
 471 700 l 2,7,8
 501 700 501 700 501 669 c 128,-1,9
 501 638 501 638 471 638 c 2,10,-1
 445 638 l 1,11,-1
 445 -141 l 2,12,13
 445 -171 445 -171 414 -171 c 128,-1,14
 383 -171 383 -171 383 -141 c 2,15,-1
 383 638 l 1,16,-1
 305 638 l 1,17,-1
 305 -141 l 2,18,19
 305 -171 305 -171 274 -171 c 128,-1,20
 243 -171 243 -171 243 -141 c 2,0,-1
EndSplineSet
EndChar

StartChar: periodcentered
Encoding: 183 183 121
Width: 267
GlyphClass: 2
Flags: W
LayerCount: 2
Fore
SplineSet
141 289 m 128,-1,1
 112 289 112 289 91.5 309.5 c 128,-1,2
 71 330 71 330 71 359 c 128,-1,3
 71 388 71 388 91.5 408.5 c 128,-1,4
 112 429 112 429 141 429 c 128,-1,5
 170 429 170 429 190.5 408.5 c 128,-1,6
 211 388 211 388 211 359 c 128,-1,7
 211 330 211 330 190.5 309.5 c 128,-1,0
 170 289 170 289 141 289 c 128,-1,1
EndSplineSet
EndChar

StartChar: cedilla
Encoding: 184 184 122
Width: 320
GlyphClass: 2
Flags: W
LayerCount: 2
Fore
SplineSet
61 -118 m 128,-1,1
 70 -118 70 -118 99.5 -128.5 c 128,-1,2
 129 -139 129 -139 152.5 -139 c 128,-1,3
 176 -139 176 -139 176 -122 c 0,4,5
 176 -109 176 -109 149.5 -97.5 c 128,-1,6
 123 -86 123 -86 123 -74 c 0,7,8
 123 -66 123 -66 148 10 c 1,9,-1
 214 10 l 1,10,-1
 201 -36 l 1,11,12
 279 -52 279 -52 279 -112 c 0,13,14
 279 -212 279 -212 160 -212 c 0,15,16
 113 -212 113 -212 71 -198 c 128,-1,17
 29 -184 29 -184 29 -162 c 128,-1,18
 29 -140 29 -140 40.5 -129 c 128,-1,0
 52 -118 52 -118 61 -118 c 128,-1,1
EndSplineSet
EndChar

StartChar: onesuperior
Encoding: 185 185 123
Width: 217
GlyphClass: 2
Flags: W
LayerCount: 2
Fore
SplineSet
148 293 m 2,0,1
 113 293 113 293 113 312 c 2,2,-1
 113 624 l 1,3,-1
 34 611 l 1,4,5
 15 611 15 611 15 661 c 0,6,7
 15 675 15 675 30 678 c 2,8,-1
 176 704 l 1,9,10
 183 704 183 704 191 699.5 c 128,-1,11
 199 695 199 695 199 690 c 2,12,-1
 199 312 l 2,13,14
 199 293 199 293 164 293 c 2,15,-1
 148 293 l 2,0,1
EndSplineSet
EndChar

StartChar: ordmasculine
Encoding: 186 186 124
Width: 337
GlyphClass: 2
Flags: W
LayerCount: 2
Fore
SplineSet
168 441 m 0,0,1
 109 441 109 441 78 475.5 c 128,-1,2
 47 510 47 510 47 575 c 128,-1,3
 47 640 47 640 78 674 c 128,-1,4
 109 708 109 708 168 708 c 0,5,6
 288 708 288 708 288 574.5 c 128,-1,7
 288 441 288 441 168 441 c 0,0,1
167.5 499 m 128,-1,9
 213 499 213 499 213 574.5 c 128,-1,10
 213 650 213 650 167.5 650 c 128,-1,11
 122 650 122 650 122 574.5 c 128,-1,8
 122 499 122 499 167.5 499 c 128,-1,9
EndSplineSet
EndChar

StartChar: guillemotright
Encoding: 187 187 125
Width: 471
GlyphClass: 2
Flags: W
LayerCount: 2
Fore
SplineSet
262 63 m 128,-1,1
 241 80 241 80 241 93 c 128,-1,2
 241 106 241 106 250 118 c 2,3,-1
 360 258 l 1,4,-1
 250 398 l 2,5,6
 241 410 241 410 241 423 c 128,-1,7
 241 436 241 436 262.5 452.5 c 128,-1,8
 284 469 284 469 299 469 c 128,-1,9
 314 469 314 469 327 455 c 1,10,-1
 454 302 l 2,11,12
 470 283 470 283 470 258 c 128,-1,13
 470 233 470 233 454 214 c 2,14,-1
 327 61 l 2,15,16
 314 46 314 46 298.5 46 c 128,-1,0
 283 46 283 46 262 63 c 128,-1,1
63 63 m 128,-1,18
 42 80 42 80 42 93 c 128,-1,19
 42 106 42 106 51 118 c 2,20,-1
 161 258 l 1,21,-1
 51 398 l 2,22,23
 42 410 42 410 42 423 c 128,-1,24
 42 436 42 436 63.5 452.5 c 128,-1,25
 85 469 85 469 100 469 c 128,-1,26
 115 469 115 469 128 455 c 1,27,-1
 255 302 l 2,28,29
 271 283 271 283 271 258 c 128,-1,30
 271 233 271 233 255 214 c 2,31,-1
 128 61 l 1,32,33
 114 46 114 46 99 46 c 128,-1,17
 84 46 84 46 63 63 c 128,-1,18
EndSplineSet
EndChar

StartChar: onequarter
Encoding: 188 188 126
Width: 671
GlyphClass: 2
Flags: W
LayerCount: 2
Fore
SplineSet
148 293 m 2,0,1
 113 293 113 293 113 312 c 2,2,-1
 113 624 l 1,3,-1
 34 611 l 1,4,5
 15 611 15 611 15 661 c 0,6,7
 15 675 15 675 30 678 c 2,8,-1
 176 704 l 1,9,10
 183 704 183 704 191 699.5 c 128,-1,11
 199 695 199 695 199 690 c 2,12,-1
 199 312 l 2,13,14
 199 293 199 293 164 293 c 2,15,-1
 148 293 l 2,0,1
112 11 m 0,16,17
 112 17 112 17 118 26 c 2,18,-1
 477 674 l 2,19,20
 491 700 491 700 522 700 c 2,21,-1
 539 700 l 2,22,23
 560 700 560 700 560 689 c 0,24,25
 560 683 560 683 554 674 c 2,26,-1
 195 26 l 2,27,28
 180 0 180 0 150 0 c 2,29,-1
 133 0 l 2,30,31
 112 0 112 0 112 11 c 0,16,17
355 102 m 128,-1,33
 348 122 348 122 348 131.5 c 128,-1,34
 348 141 348 141 349 143 c 2,35,-1
 522 399 l 1,36,37
 531 410 531 410 558 410 c 2,38,-1
 573 410 l 2,39,40
 608 410 608 410 608 391 c 2,41,-1
 608 150 l 1,42,-1
 631 150 l 2,43,44
 648 150 648 150 648 121 c 2,45,-1
 648 111 l 2,46,47
 648 82 648 82 631 82 c 2,48,-1
 608 82 l 1,49,-1
 608 17 l 2,50,51
 608 -2 608 -2 573 -2 c 2,52,-1
 557 -2 l 2,53,54
 522 -2 522 -2 522 17 c 2,55,-1
 522 82 l 1,56,-1
 369 82 l 2,57,32
 362 82 362 82 355 102 c 128,-1,33
522 150 m 1,58,-1
 522 240 l 1,59,-1
 529 293 l 1,60,-1
 525 293 l 1,61,-1
 435 150 l 1,62,-1
 522 150 l 1,58,-1
EndSplineSet
EndChar

StartChar: onehalf
Encoding: 189 189 127
Width: 746
GlyphClass: 2
Flags: W
LayerCount: 2
Fore
SplineSet
148 293 m 2,0,1
 113 293 113 293 113 312 c 2,2,-1
 113 624 l 1,3,-1
 34 611 l 1,4,5
 15 611 15 611 15 661 c 0,6,7
 15 675 15 675 30 678 c 2,8,-1
 176 704 l 1,9,10
 183 704 183 704 191 699.5 c 128,-1,11
 199 695 199 695 199 690 c 2,12,-1
 199 312 l 2,13,14
 199 293 199 293 164 293 c 2,15,-1
 148 293 l 2,0,1
112 11 m 0,16,17
 112 17 112 17 118 26 c 2,18,-1
 477 674 l 2,19,20
 491 700 491 700 522 700 c 2,21,-1
 539 700 l 2,22,23
 560 700 560 700 560 689 c 0,24,25
 560 683 560 683 554 674 c 2,26,-1
 195 26 l 2,27,28
 180 0 180 0 150 0 c 2,29,-1
 133 0 l 2,30,31
 112 0 112 0 112 11 c 0,16,17
439.5 18.5 m 128,-1,33
 434 37 434 37 434 47 c 128,-1,34
 434 57 434 57 436 61 c 2,35,-1
 584 241 l 2,36,37
 606 268 606 268 606 294 c 0,38,39
 606 345 606 345 552 345 c 0,40,41
 529 345 529 345 506 333 c 2,42,-1
 484 321 l 1,43,44
 471 321 471 321 460.5 334.5 c 128,-1,45
 450 348 450 348 450 361 c 0,46,47
 450 385 450 385 485.5 399.5 c 128,-1,48
 521 414 521 414 573.5 414 c 128,-1,49
 626 414 626 414 660 382.5 c 128,-1,50
 694 351 694 351 694 300 c 128,-1,51
 694 249 694 249 658 204 c 2,52,-1
 549 68 l 1,53,-1
 683 68 l 2,54,55
 701 68 701 68 701 40 c 2,56,-1
 701 30 l 2,57,58
 701 0 701 0 683 0 c 2,59,-1
 451 0 l 2,60,32
 445 0 445 0 439.5 18.5 c 128,-1,33
EndSplineSet
EndChar

StartChar: threequarters
Encoding: 190 190 128
Width: 738
GlyphClass: 2
Flags: W
LayerCount: 2
Fore
SplineSet
250.5 320.5 m 128,-1,1
 214 287 214 287 162.5 287 c 128,-1,2
 111 287 111 287 69 299 c 128,-1,3
 27 311 27 311 27 336 c 0,4,5
 27 346 27 346 36.5 363 c 128,-1,6
 46 380 46 380 56 380 c 1,7,-1
 84 368 l 2,8,9
 112 356 112 356 140 356 c 128,-1,10
 168 356 168 356 183.5 371 c 128,-1,11
 199 386 199 386 199 413 c 0,12,13
 199 473 199 473 130 473 c 2,14,-1
 114 473 l 2,15,16
 96 473 96 473 96 502 c 2,17,-1
 96 513 l 2,18,19
 96 542 96 542 114 542 c 2,20,-1
 125 542 l 2,21,22
 153 542 153 542 169.5 555.5 c 128,-1,23
 186 569 186 569 186 591 c 0,24,25
 186 639 186 639 138 639 c 0,26,27
 111 639 111 639 90.5 629.5 c 128,-1,28
 70 620 70 620 69 620 c 0,29,30
 60 620 60 620 49.5 636.5 c 128,-1,31
 39 653 39 653 39 665 c 0,32,33
 39 686 39 686 72.5 697 c 128,-1,34
 106 708 106 708 157.5 708 c 128,-1,35
 209 708 209 708 241.5 680 c 128,-1,36
 274 652 274 652 274 605 c 0,37,38
 274 544 274 544 219 520 c 1,39,-1
 219 516 l 1,40,41
 287 489 287 489 287 412 c 0,42,0
 287 354 287 354 250.5 320.5 c 128,-1,1
150 11 m 0,43,44
 150 17 150 17 156 26 c 2,45,-1
 515 674 l 2,46,47
 529 700 529 700 560 700 c 2,48,-1
 577 700 l 2,49,50
 598 700 598 700 598 689 c 0,51,52
 598 683 598 683 592 674 c 2,53,-1
 233 26 l 2,54,55
 218 0 218 0 188 0 c 2,56,-1
 171 0 l 2,57,58
 150 0 150 0 150 11 c 0,43,44
393 102 m 128,-1,60
 386 122 386 122 386 131.5 c 128,-1,61
 386 141 386 141 387 143 c 2,62,-1
 560 399 l 1,63,64
 569 410 569 410 596 410 c 2,65,-1
 611 410 l 2,66,67
 646 410 646 410 646 391 c 2,68,-1
 646 150 l 1,69,-1
 669 150 l 2,70,71
 686 150 686 150 686 121 c 2,72,-1
 686 111 l 2,73,74
 686 82 686 82 669 82 c 2,75,-1
 646 82 l 1,76,-1
 646 17 l 2,77,78
 646 -2 646 -2 611 -2 c 2,79,-1
 595 -2 l 2,80,81
 560 -2 560 -2 560 17 c 2,82,-1
 560 82 l 1,83,-1
 407 82 l 2,84,59
 400 82 400 82 393 102 c 128,-1,60
560 150 m 1,85,-1
 560 240 l 1,86,-1
 567 293 l 1,87,-1
 563 293 l 1,88,-1
 473 150 l 1,89,-1
 560 150 l 1,85,-1
EndSplineSet
EndChar

StartChar: questiondown
Encoding: 191 191 129
Width: 425
GlyphClass: 2
Flags: W
LayerCount: 2
Fore
SplineSet
193 401 m 2,0,-1
 193 493 l 2,1,2
 193 525 193 525 253 525 c 2,3,-1
 285 525 l 2,4,5
 345 525 345 525 345 493 c 2,6,-1
 345 401 l 2,7,8
 345 369 345 369 285 369 c 2,9,-1
 253 369 l 2,10,11
 193 369 193 369 193 401 c 2,0,-1
78 132 m 1,12,13
 104 156 104 156 130 177 c 0,14,15
 195 228 195 228 204 274 c 1,16,17
 208 289 208 289 220 295 c 128,-1,18
 232 301 232 301 257 301 c 2,19,-1
 280 301 l 2,20,21
 329 301 329 301 329 272 c 0,22,23
 329 205 329 205 274 140 c 0,24,25
 252 113 252 113 229 88 c 0,26,27
 174 30 174 30 174 3 c 0,28,29
 174 -53 174 -53 248 -53 c 0,30,31
 282 -53 282 -53 320 -37.5 c 128,-1,32
 358 -22 358 -22 360 -22 c 0,33,34
 379 -22 379 -22 401 -54 c 128,-1,35
 423 -86 423 -86 423 -104 c 0,36,37
 423 -144 423 -144 364 -164.5 c 128,-1,38
 305 -185 305 -185 235 -185 c 0,39,40
 134 -185 134 -185 76 -137 c 128,-1,41
 18 -89 18 -89 18 -8 c 128,-1,42
 18 73 18 73 78 132 c 1,12,13
EndSplineSet
EndChar

StartChar: Agrave
Encoding: 192 192 130
Width: 613
GlyphClass: 2
Flags: W
LayerCount: 2
Fore
SplineSet
0 20 m 0,0,1
 0 24 0 24 4 38 c 2,2,-1
 224 681 l 2,3,4
 232 702 232 702 281 702 c 2,5,-1
 333 702 l 2,6,7
 382 702 382 702 390 681 c 2,8,-1
 610 38 l 2,9,10
 613 28 613 28 613 20 c 0,11,12
 613 -2 613 -2 563 -2 c 2,13,-1
 519 -2 l 2,14,15
 470 -2 470 -2 463 19 c 2,16,-1
 423 141 l 1,17,-1
 187 141 l 1,18,-1
 147 19 l 2,19,20
 140 -2 140 -2 101 -2 c 2,21,-1
 61 -2 l 2,22,23
 0 -2 0 -2 0 20 c 0,0,1
230 273 m 1,24,-1
 380 273 l 1,25,-1
 323 451 l 1,26,-1
 308 515 l 1,27,-1
 304 515 l 1,28,29
 295 468 295 468 289 451 c 2,30,-1
 230 273 l 1,24,-1
366 775 m 0,31,32
 314 775 314 775 287.5 804 c 128,-1,33
 261 833 261 833 229.5 866.5 c 128,-1,34
 198 900 198 900 192.5 907 c 128,-1,35
 187 914 187 914 187 920 c 0,36,37
 187 934 187 934 252 934 c 128,-1,38
 317 934 317 934 332 907 c 0,39,40
 344 886 344 886 356 865 c 128,-1,41
 368 844 368 844 375 833.5 c 128,-1,42
 382 823 382 823 388 813 c 0,43,44
 397 796 397 796 397 790 c 0,45,46
 397 775 397 775 366 775 c 0,31,32
EndSplineSet
EndChar

StartChar: Aacute
Encoding: 193 193 131
Width: 613
GlyphClass: 2
Flags: W
LayerCount: 2
Fore
SplineSet
0 20 m 0,0,1
 0 24 0 24 4 38 c 2,2,-1
 224 681 l 2,3,4
 232 702 232 702 281 702 c 2,5,-1
 333 702 l 2,6,7
 382 702 382 702 390 681 c 2,8,-1
 610 38 l 2,9,10
 613 28 613 28 613 20 c 0,11,12
 613 -2 613 -2 563 -2 c 2,13,-1
 519 -2 l 2,14,15
 470 -2 470 -2 463 19 c 2,16,-1
 423 141 l 1,17,-1
 187 141 l 1,18,-1
 147 19 l 2,19,20
 140 -2 140 -2 101 -2 c 2,21,-1
 61 -2 l 2,22,23
 0 -2 0 -2 0 20 c 0,0,1
230 273 m 1,24,-1
 380 273 l 1,25,-1
 323 451 l 1,26,-1
 308 515 l 1,27,-1
 304 515 l 1,28,29
 295 468 295 468 289 451 c 2,30,-1
 230 273 l 1,24,-1
260 775 m 0,31,32
 229 775 229 775 229 790 c 0,33,34
 229 800 229 800 243.5 822 c 128,-1,35
 258 844 258 844 270 865 c 128,-1,36
 282 886 282 886 294 907 c 0,37,38
 309 934 309 934 374 934 c 128,-1,39
 439 934 439 934 439 920 c 0,40,41
 439 914 439 914 433 906 c 128,-1,42
 427 898 427 898 409 879.5 c 128,-1,43
 391 861 391 861 384 853.5 c 128,-1,44
 377 846 377 846 363 830.5 c 128,-1,45
 349 815 349 815 335 800 c 0,46,47
 312 775 312 775 260 775 c 0,31,32
EndSplineSet
EndChar

StartChar: Acircumflex
Encoding: 194 194 132
Width: 613
GlyphClass: 2
Flags: W
LayerCount: 2
Fore
SplineSet
0 20 m 0,0,1
 0 24 0 24 4 38 c 2,2,-1
 224 681 l 2,3,4
 232 702 232 702 281 702 c 2,5,-1
 333 702 l 2,6,7
 382 702 382 702 390 681 c 2,8,-1
 610 38 l 2,9,10
 613 28 613 28 613 20 c 0,11,12
 613 -2 613 -2 563 -2 c 2,13,-1
 519 -2 l 2,14,15
 470 -2 470 -2 463 19 c 2,16,-1
 423 141 l 1,17,-1
 187 141 l 1,18,-1
 147 19 l 2,19,20
 140 -2 140 -2 101 -2 c 2,21,-1
 61 -2 l 2,22,23
 0 -2 0 -2 0 20 c 0,0,1
230 273 m 1,24,-1
 380 273 l 1,25,-1
 323 451 l 1,26,-1
 308 515 l 1,27,-1
 304 515 l 1,28,29
 295 468 295 468 289 451 c 2,30,-1
 230 273 l 1,24,-1
187 762 m 2,31,32
 167 762 167 762 167 772 c 0,33,34
 167 778 167 778 173 787 c 2,35,-1
 238 889 l 2,36,37
 250 908 250 908 299 908 c 2,38,-1
 310 908 l 2,39,40
 359 908 359 908 371 889 c 2,41,-1
 436 787 l 2,42,43
 442 778 442 778 442 772 c 0,44,45
 442 762 442 762 422 762 c 2,46,-1
 400 762 l 2,47,48
 348 762 348 762 332 786 c 2,49,-1
 304 826 l 1,50,-1
 276 787 l 2,51,52
 258 762 258 762 209 762 c 2,53,-1
 187 762 l 2,31,32
EndSplineSet
EndChar

StartChar: Atilde
Encoding: 195 195 133
Width: 613
GlyphClass: 2
Flags: W
LayerCount: 2
Fore
SplineSet
0 20 m 0,0,1
 0 24 0 24 4 38 c 2,2,-1
 224 681 l 2,3,4
 232 702 232 702 281 702 c 2,5,-1
 333 702 l 2,6,7
 382 702 382 702 390 681 c 2,8,-1
 610 38 l 2,9,10
 613 28 613 28 613 20 c 0,11,12
 613 -2 613 -2 563 -2 c 2,13,-1
 519 -2 l 2,14,15
 470 -2 470 -2 463 19 c 2,16,-1
 423 141 l 1,17,-1
 187 141 l 1,18,-1
 147 19 l 2,19,20
 140 -2 140 -2 101 -2 c 2,21,-1
 61 -2 l 2,22,23
 0 -2 0 -2 0 20 c 0,0,1
230 273 m 1,24,-1
 380 273 l 1,25,-1
 323 451 l 1,26,-1
 308 515 l 1,27,-1
 304 515 l 1,28,29
 295 468 295 468 289 451 c 2,30,-1
 230 273 l 1,24,-1
232 795 m 1,31,-1
 187 784 l 1,32,33
 171 784 171 784 158 798.5 c 128,-1,34
 145 813 145 813 145 831.5 c 128,-1,35
 145 850 145 850 178.5 869 c 128,-1,36
 212 888 212 888 246.5 888 c 128,-1,37
 281 888 281 888 320.5 878 c 128,-1,38
 360 868 360 868 378 868 c 1,39,-1
 424 879 l 1,40,41
 439 879 439 879 452 864.5 c 128,-1,42
 465 850 465 850 465 831.5 c 128,-1,43
 465 813 465 813 431.5 794 c 128,-1,44
 398 775 398 775 363.5 775 c 128,-1,45
 329 775 329 775 289 785 c 128,-1,46
 249 795 249 795 232 795 c 1,31,-1
EndSplineSet
EndChar

StartChar: Adieresis
Encoding: 196 196 134
Width: 613
GlyphClass: 2
Flags: W
LayerCount: 2
Fore
SplineSet
0 20 m 0,0,1
 0 24 0 24 4 38 c 2,2,-1
 224 681 l 2,3,4
 232 702 232 702 281 702 c 2,5,-1
 333 702 l 2,6,7
 382 702 382 702 390 681 c 2,8,-1
 610 38 l 2,9,10
 613 28 613 28 613 20 c 0,11,12
 613 -2 613 -2 563 -2 c 2,13,-1
 519 -2 l 2,14,15
 470 -2 470 -2 463 19 c 2,16,-1
 423 141 l 1,17,-1
 187 141 l 1,18,-1
 147 19 l 2,19,20
 140 -2 140 -2 101 -2 c 2,21,-1
 61 -2 l 2,22,23
 0 -2 0 -2 0 20 c 0,0,1
230 273 m 1,24,-1
 380 273 l 1,25,-1
 323 451 l 1,26,-1
 308 515 l 1,27,-1
 304 515 l 1,28,29
 295 468 295 468 289 451 c 2,30,-1
 230 273 l 1,24,-1
395 758 m 128,-1,32
 335 758 335 758 335 790 c 2,33,-1
 335 850 l 2,34,35
 335 882 335 882 395 882 c 128,-1,36
 455 882 455 882 455 850 c 2,37,-1
 455 790 l 2,38,31
 455 758 455 758 395 758 c 128,-1,32
215 758 m 128,-1,40
 155 758 155 758 155 790 c 2,41,-1
 155 850 l 2,42,43
 155 882 155 882 215 882 c 128,-1,44
 275 882 275 882 275 850 c 2,45,-1
 275 790 l 2,46,39
 275 758 275 758 215 758 c 128,-1,40
EndSplineSet
EndChar

StartChar: Aring
Encoding: 197 197 135
Width: 613
GlyphClass: 2
Flags: W
LayerCount: 2
Fore
SplineSet
0 20 m 0,0,1
 0 24 0 24 4 38 c 2,2,-1
 224 681 l 2,3,4
 232 702 232 702 281 702 c 2,5,-1
 333 702 l 2,6,7
 382 702 382 702 390 681 c 2,8,-1
 610 38 l 2,9,10
 613 28 613 28 613 20 c 0,11,12
 613 -2 613 -2 563 -2 c 2,13,-1
 519 -2 l 2,14,15
 470 -2 470 -2 463 19 c 2,16,-1
 423 141 l 1,17,-1
 187 141 l 1,18,-1
 147 19 l 2,19,20
 140 -2 140 -2 101 -2 c 2,21,-1
 61 -2 l 2,22,23
 0 -2 0 -2 0 20 c 0,0,1
230 273 m 1,24,-1
 380 273 l 1,25,-1
 323 451 l 1,26,-1
 308 515 l 1,27,-1
 304 515 l 1,28,29
 295 468 295 468 289 451 c 2,30,-1
 230 273 l 1,24,-1
305 730 m 128,-1,32
 263 730 263 730 234.5 758.5 c 128,-1,33
 206 787 206 787 206 829 c 128,-1,34
 206 871 206 871 234.5 900 c 128,-1,35
 263 929 263 929 305 929 c 128,-1,36
 347 929 347 929 376 900 c 128,-1,37
 405 871 405 871 405 829 c 128,-1,38
 405 787 405 787 376 758.5 c 128,-1,31
 347 730 347 730 305 730 c 128,-1,32
305 792 m 128,-1,40
 320 792 320 792 331 802.5 c 128,-1,41
 342 813 342 813 342 828 c 128,-1,42
 342 843 342 843 331 854 c 128,-1,43
 320 865 320 865 305 865 c 128,-1,44
 290 865 290 865 279.5 854 c 128,-1,45
 269 843 269 843 269 828 c 128,-1,46
 269 813 269 813 279.5 802.5 c 128,-1,39
 290 792 290 792 305 792 c 128,-1,40
EndSplineSet
EndChar

StartChar: AE
Encoding: 198 198 136
Width: 915
GlyphClass: 2
Flags: W
LayerCount: 2
Fore
SplineSet
1 20 m 0,0,1
 1 30 1 30 5 38 c 2,2,-1
 326 673 l 2,3,4
 340 700 340 700 370 700 c 2,5,-1
 834 700 l 2,6,7
 864 700 864 700 864 650 c 2,8,-1
 864 619 l 2,9,10
 864 569 864 569 834 569 c 2,11,-1
 517 569 l 1,12,-1
 545 424 l 1,13,-1
 807 424 l 2,14,15
 837 424 837 424 837 374 c 2,16,-1
 837 343 l 2,17,18
 837 293 837 293 807 293 c 2,19,-1
 571 293 l 1,20,-1
 602 131 l 1,21,-1
 835 131 l 2,22,23
 865 131 865 131 865 81 c 2,24,-1
 865 50 l 2,25,26
 865 0 865 0 835 0 c 2,27,-1
 504 0 l 2,28,29
 475 0 475 0 469 30 c 2,30,-1
 448 141 l 1,31,-1
 205 141 l 1,32,-1
 145 19 l 2,33,34
 134 -2 134 -2 99 -2 c 2,35,-1
 62 -2 l 2,36,37
 1 -2 1 -2 1 20 c 0,0,1
391 537 m 1,38,-1
 387 537 l 1,39,-1
 359 455 l 1,40,-1
 270 273 l 1,41,-1
 424 273 l 1,42,-1
 391 454 l 1,43,-1
 391 537 l 1,38,-1
EndSplineSet
EndChar

StartChar: Ccedilla
Encoding: 199 199 137
Width: 619
GlyphClass: 2
Flags: W
LayerCount: 2
Fore
SplineSet
231 -117 m 128,-1,1
 240 -117 240 -117 269.5 -127.5 c 128,-1,2
 299 -138 299 -138 322.5 -138 c 128,-1,3
 346 -138 346 -138 346 -121 c 0,4,5
 346 -108 346 -108 319.5 -96.5 c 128,-1,6
 293 -85 293 -85 293 -73.5 c 128,-1,7
 293 -62 293 -62 312 -4 c 1,8,9
 176 10 176 10 110.5 97.5 c 128,-1,10
 45 185 45 185 45 352 c 0,11,12
 45 708 45 708 379 708 c 0,13,14
 452 708 452 708 520 688 c 128,-1,15
 588 668 588 668 588 638 c 0,16,17
 588 616 588 616 564.5 580 c 128,-1,18
 541 544 541 544 523 544 c 0,19,20
 520 544 520 544 502 552 c 0,21,22
 450 576 450 576 376 576 c 0,23,24
 203 576 203 576 203 349.5 c 128,-1,25
 203 123 203 123 374 123 c 0,26,27
 446 123 446 123 512 153 c 0,28,29
 534 163 534 163 538 163 c 0,30,31
 559 163 559 163 578 128.5 c 128,-1,32
 597 94 597 94 597 76 c 0,33,34
 597 36 597 36 525.5 14.5 c 128,-1,35
 454 -7 454 -7 378 -8 c 1,36,-1
 371 -35 l 1,37,38
 449 -51 449 -51 449 -111 c 0,39,40
 449 -211 449 -211 330 -211 c 0,41,42
 283 -211 283 -211 241 -197 c 128,-1,43
 199 -183 199 -183 199 -161 c 128,-1,44
 199 -139 199 -139 210.5 -128 c 128,-1,0
 222 -117 222 -117 231 -117 c 128,-1,1
EndSplineSet
EndChar

StartChar: Egrave
Encoding: 200 200 138
Width: 546
GlyphClass: 2
Flags: W
LayerCount: 2
Fore
SplineSet
69 40 m 2,0,-1
 69 660 l 2,1,2
 69 700 69 700 109 700 c 2,3,-1
 475 700 l 2,4,5
 505 700 505 700 505 650 c 2,6,-1
 505 619 l 2,7,8
 505 569 505 569 475 569 c 2,9,-1
 223 569 l 1,10,-1
 223 424 l 1,11,-1
 448 424 l 2,12,13
 478 424 478 424 478 374 c 2,14,-1
 478 343 l 2,15,16
 478 293 478 293 448 293 c 2,17,-1
 223 293 l 1,18,-1
 223 131 l 1,19,-1
 476 131 l 2,20,21
 506 131 506 131 506 81 c 2,22,-1
 506 50 l 2,23,24
 506 0 506 0 476 0 c 2,25,-1
 109 0 l 2,26,27
 69 0 69 0 69 40 c 2,0,-1
353 775 m 0,28,29
 301 775 301 775 274.5 804 c 128,-1,30
 248 833 248 833 216.5 866.5 c 128,-1,31
 185 900 185 900 179.5 907 c 128,-1,32
 174 914 174 914 174 920 c 0,33,34
 174 934 174 934 239 934 c 128,-1,35
 304 934 304 934 319 907 c 0,36,37
 331 886 331 886 343 865 c 128,-1,38
 355 844 355 844 362 833.5 c 128,-1,39
 369 823 369 823 374 813 c 0,40,41
 384 796 384 796 384 790 c 0,42,43
 384 775 384 775 353 775 c 0,28,29
EndSplineSet
EndChar

StartChar: Eacute
Encoding: 201 201 139
Width: 546
GlyphClass: 2
Flags: W
LayerCount: 2
Fore
SplineSet
69 40 m 2,0,-1
 69 660 l 2,1,2
 69 700 69 700 109 700 c 2,3,-1
 475 700 l 2,4,5
 505 700 505 700 505 650 c 2,6,-1
 505 619 l 2,7,8
 505 569 505 569 475 569 c 2,9,-1
 223 569 l 1,10,-1
 223 424 l 1,11,-1
 448 424 l 2,12,13
 478 424 478 424 478 374 c 2,14,-1
 478 343 l 2,15,16
 478 293 478 293 448 293 c 2,17,-1
 223 293 l 1,18,-1
 223 131 l 1,19,-1
 476 131 l 2,20,21
 506 131 506 131 506 81 c 2,22,-1
 506 50 l 2,23,24
 506 0 506 0 476 0 c 2,25,-1
 109 0 l 2,26,27
 69 0 69 0 69 40 c 2,0,-1
247 775 m 0,28,29
 216 775 216 775 216 790 c 0,30,31
 216 800 216 800 230.5 822 c 128,-1,32
 245 844 245 844 257 865 c 128,-1,33
 269 886 269 886 281 907 c 0,34,35
 296 934 296 934 361 934 c 128,-1,36
 426 934 426 934 426 920 c 0,37,38
 426 914 426 914 420 906 c 128,-1,39
 414 898 414 898 396 879.5 c 128,-1,40
 378 861 378 861 371 853.5 c 128,-1,41
 364 846 364 846 350 830.5 c 128,-1,42
 336 815 336 815 322 800 c 0,43,44
 299 775 299 775 247 775 c 0,28,29
EndSplineSet
EndChar

StartChar: Ecircumflex
Encoding: 202 202 140
Width: 546
GlyphClass: 2
Flags: W
LayerCount: 2
Fore
SplineSet
69 40 m 2,0,-1
 69 660 l 2,1,2
 69 700 69 700 109 700 c 2,3,-1
 475 700 l 2,4,5
 505 700 505 700 505 650 c 2,6,-1
 505 619 l 2,7,8
 505 569 505 569 475 569 c 2,9,-1
 223 569 l 1,10,-1
 223 424 l 1,11,-1
 448 424 l 2,12,13
 478 424 478 424 478 374 c 2,14,-1
 478 343 l 2,15,16
 478 293 478 293 448 293 c 2,17,-1
 223 293 l 1,18,-1
 223 131 l 1,19,-1
 476 131 l 2,20,21
 506 131 506 131 506 81 c 2,22,-1
 506 50 l 2,23,24
 506 0 506 0 476 0 c 2,25,-1
 109 0 l 2,26,27
 69 0 69 0 69 40 c 2,0,-1
174 762 m 2,28,29
 154 762 154 762 154 772 c 0,30,31
 154 778 154 778 160 787 c 2,32,-1
 225 889 l 2,33,34
 237 908 237 908 286 908 c 2,35,-1
 297 908 l 2,36,37
 346 908 346 908 358 889 c 2,38,-1
 423 787 l 2,39,40
 429 778 429 778 429 772 c 0,41,42
 429 762 429 762 409 762 c 2,43,-1
 387 762 l 2,44,45
 335 762 335 762 319 786 c 2,46,-1
 291 826 l 1,47,-1
 263 787 l 2,48,49
 245 762 245 762 196 762 c 2,50,-1
 174 762 l 2,28,29
EndSplineSet
EndChar

StartChar: Edieresis
Encoding: 203 203 141
Width: 546
GlyphClass: 2
Flags: W
LayerCount: 2
Fore
SplineSet
69 40 m 2,0,-1
 69 660 l 2,1,2
 69 700 69 700 109 700 c 2,3,-1
 475 700 l 2,4,5
 505 700 505 700 505 650 c 2,6,-1
 505 619 l 2,7,8
 505 569 505 569 475 569 c 2,9,-1
 223 569 l 1,10,-1
 223 424 l 1,11,-1
 448 424 l 2,12,13
 478 424 478 424 478 374 c 2,14,-1
 478 343 l 2,15,16
 478 293 478 293 448 293 c 2,17,-1
 223 293 l 1,18,-1
 223 131 l 1,19,-1
 476 131 l 2,20,21
 506 131 506 131 506 81 c 2,22,-1
 506 50 l 2,23,24
 506 0 506 0 476 0 c 2,25,-1
 109 0 l 2,26,27
 69 0 69 0 69 40 c 2,0,-1
382 758 m 128,-1,29
 322 758 322 758 322 790 c 2,30,-1
 322 850 l 2,31,32
 322 882 322 882 382 882 c 128,-1,33
 442 882 442 882 442 850 c 2,34,-1
 442 790 l 2,35,28
 442 758 442 758 382 758 c 128,-1,29
202 758 m 128,-1,37
 142 758 142 758 142 790 c 2,38,-1
 142 850 l 2,39,40
 142 882 142 882 202 882 c 128,-1,41
 262 882 262 882 262 850 c 2,42,-1
 262 790 l 2,43,36
 262 758 262 758 202 758 c 128,-1,37
EndSplineSet
EndChar

StartChar: Igrave
Encoding: 204 204 142
Width: 282
GlyphClass: 2
Flags: W
LayerCount: 2
Fore
SplineSet
63 30 m 2,0,-1
 63 670 l 2,1,2
 63 703 63 703 123 703 c 2,3,-1
 158 703 l 2,4,5
 218 703 218 703 218 670 c 2,6,-1
 218 30 l 2,7,8
 218 -3 218 -3 158 -3 c 2,9,-1
 123 -3 l 2,10,11
 63 -3 63 -3 63 30 c 2,0,-1
206 775 m 0,12,13
 154 775 154 775 127.5 804 c 128,-1,14
 101 833 101 833 69.5 866.5 c 128,-1,15
 38 900 38 900 32.5 907 c 128,-1,16
 27 914 27 914 27 920 c 0,17,18
 27 934 27 934 92 934 c 128,-1,19
 157 934 157 934 172 907 c 0,20,21
 184 886 184 886 196 865 c 128,-1,22
 208 844 208 844 215 833.5 c 128,-1,23
 222 823 222 823 228 813 c 0,24,25
 237 796 237 796 237 790 c 0,26,27
 237 775 237 775 206 775 c 0,12,13
EndSplineSet
EndChar

StartChar: Iacute
Encoding: 205 205 143
Width: 282
GlyphClass: 2
Flags: W
LayerCount: 2
Fore
SplineSet
63 30 m 2,0,-1
 63 670 l 2,1,2
 63 703 63 703 123 703 c 2,3,-1
 158 703 l 2,4,5
 218 703 218 703 218 670 c 2,6,-1
 218 30 l 2,7,8
 218 -3 218 -3 158 -3 c 2,9,-1
 123 -3 l 2,10,11
 63 -3 63 -3 63 30 c 2,0,-1
100 775 m 0,12,13
 69 775 69 775 69 790 c 0,14,15
 69 800 69 800 83.5 822 c 128,-1,16
 98 844 98 844 110 865 c 128,-1,17
 122 886 122 886 134 907 c 0,18,19
 149 934 149 934 214 934 c 128,-1,20
 279 934 279 934 279 920 c 0,21,22
 279 914 279 914 273 906 c 128,-1,23
 267 898 267 898 249 879.5 c 128,-1,24
 231 861 231 861 224 853.5 c 128,-1,25
 217 846 217 846 203 830.5 c 128,-1,26
 189 815 189 815 175 800 c 0,27,28
 152 775 152 775 100 775 c 0,12,13
EndSplineSet
EndChar

StartChar: Icircumflex
Encoding: 206 206 144
Width: 282
GlyphClass: 2
Flags: W
LayerCount: 2
Fore
SplineSet
63 30 m 2,0,-1
 63 670 l 2,1,2
 63 703 63 703 123 703 c 2,3,-1
 158 703 l 2,4,5
 218 703 218 703 218 670 c 2,6,-1
 218 30 l 2,7,8
 218 -3 218 -3 158 -3 c 2,9,-1
 123 -3 l 2,10,11
 63 -3 63 -3 63 30 c 2,0,-1
27 762 m 2,12,13
 7 762 7 762 7 772 c 0,14,15
 7 778 7 778 13 787 c 2,16,-1
 78 889 l 2,17,18
 90 908 90 908 139 908 c 2,19,-1
 150 908 l 2,20,21
 199 908 199 908 211 889 c 2,22,-1
 276 787 l 2,23,24
 282 778 282 778 282 772 c 0,25,26
 282 762 282 762 262 762 c 2,27,-1
 240 762 l 2,28,29
 188 762 188 762 172 786 c 2,30,-1
 144 826 l 1,31,-1
 116 787 l 2,32,33
 98 762 98 762 49 762 c 2,34,-1
 27 762 l 2,12,13
EndSplineSet
EndChar

StartChar: Idieresis
Encoding: 207 207 145
Width: 282
GlyphClass: 2
Flags: W
LayerCount: 2
Fore
SplineSet
63 30 m 2,0,-1
 63 670 l 2,1,2
 63 703 63 703 123 703 c 2,3,-1
 158 703 l 2,4,5
 218 703 218 703 218 670 c 2,6,-1
 218 30 l 2,7,8
 218 -3 218 -3 158 -3 c 2,9,-1
 123 -3 l 2,10,11
 63 -3 63 -3 63 30 c 2,0,-1
235 758 m 128,-1,13
 175 758 175 758 175 790 c 2,14,-1
 175 850 l 2,15,16
 175 882 175 882 235 882 c 128,-1,17
 295 882 295 882 295 850 c 2,18,-1
 295 790 l 2,19,12
 295 758 295 758 235 758 c 128,-1,13
55 758 m 128,-1,21
 -5 758 -5 758 -5 790 c 2,22,-1
 -5 850 l 2,23,24
 -5 882 -5 882 55 882 c 128,-1,25
 115 882 115 882 115 850 c 2,26,-1
 115 790 l 2,27,20
 115 758 115 758 55 758 c 128,-1,21
EndSplineSet
EndChar

StartChar: Eth
Encoding: 208 208 146
Width: 696
GlyphClass: 2
Flags: W
LayerCount: 2
Fore
SplineSet
71 40 m 2,0,-1
 71 291 l 1,1,-1
 42 291 l 2,2,3
 12 291 12 291 12 341 c 2,4,-1
 12 371 l 2,5,6
 12 421 12 421 42 421 c 2,7,-1
 71 421 l 1,8,-1
 71 660 l 2,9,10
 71 700 71 700 111 700 c 2,11,-1
 335 700 l 2,12,13
 490 700 490 700 572.5 609.5 c 128,-1,14
 655 519 655 519 655 350 c 128,-1,15
 655 181 655 181 572.5 90.5 c 128,-1,16
 490 0 490 0 335 0 c 2,17,-1
 111 0 l 2,18,19
 71 0 71 0 71 40 c 2,0,-1
226 131 m 1,20,-1
 335 131 l 2,21,22
 415 131 415 131 456 187 c 128,-1,23
 497 243 497 243 497 350 c 128,-1,24
 497 457 497 457 456 513 c 128,-1,25
 415 569 415 569 335 569 c 2,26,-1
 226 569 l 1,27,-1
 226 421 l 1,28,-1
 285 421 l 2,29,30
 315 421 315 421 315 371 c 2,31,-1
 315 341 l 2,32,33
 315 291 315 291 285 291 c 2,34,-1
 226 291 l 1,35,-1
 226 131 l 1,20,-1
EndSplineSet
EndChar

StartChar: Ntilde
Encoding: 209 209 147
Width: 719
GlyphClass: 2
Flags: W
LayerCount: 2
Fore
SplineSet
69 30 m 2,0,-1
 69 670 l 2,1,2
 69 702 69 702 129 702 c 2,3,-1
 172 702 l 2,4,5
 220 702 220 702 238 675 c 2,6,-1
 501 270 l 1,7,-1
 501 670 l 2,8,9
 501 702 501 702 561 702 c 2,10,-1
 590 702 l 2,11,12
 650 702 650 702 650 670 c 2,13,-1
 650 30 l 2,14,15
 650 -2 650 -2 590 -2 c 2,16,-1
 552 -2 l 2,17,18
 504 -2 504 -2 486 25 c 2,19,-1
 218 435 l 1,20,-1
 218 30 l 2,21,22
 218 -2 218 -2 158 -2 c 2,23,-1
 129 -2 l 2,24,25
 69 -2 69 -2 69 30 c 2,0,-1
287 795 m 1,26,-1
 242 784 l 1,27,28
 226 784 226 784 213 798.5 c 128,-1,29
 200 813 200 813 200 831.5 c 128,-1,30
 200 850 200 850 233.5 869 c 128,-1,31
 267 888 267 888 301.5 888 c 128,-1,32
 336 888 336 888 375.5 878 c 128,-1,33
 415 868 415 868 433 868 c 1,34,-1
 479 879 l 1,35,36
 494 879 494 879 507 864.5 c 128,-1,37
 520 850 520 850 520 831.5 c 128,-1,38
 520 813 520 813 486.5 794 c 128,-1,39
 453 775 453 775 418.5 775 c 128,-1,40
 384 775 384 775 344 785 c 128,-1,41
 304 795 304 795 287 795 c 1,26,-1
EndSplineSet
EndChar

StartChar: Ograve
Encoding: 210 210 148
Width: 731
GlyphClass: 2
Flags: W
LayerCount: 2
Fore
SplineSet
45 350 m 128,-1,1
 45 523 45 523 128 615.5 c 128,-1,2
 211 708 211 708 366 708 c 128,-1,3
 521 708 521 708 603.5 615.5 c 128,-1,4
 686 523 686 523 686 350 c 128,-1,5
 686 177 686 177 603.5 84.5 c 128,-1,6
 521 -8 521 -8 366 -8 c 128,-1,7
 211 -8 211 -8 128 84.5 c 128,-1,0
 45 177 45 177 45 350 c 128,-1,1
366 123 m 128,-1,9
 446 123 446 123 487 181 c 128,-1,10
 528 239 528 239 528 350 c 128,-1,11
 528 461 528 461 487 518.5 c 128,-1,12
 446 576 446 576 366 576 c 128,-1,13
 286 576 286 576 244.5 518.5 c 128,-1,14
 203 461 203 461 203 350 c 128,-1,15
 203 239 203 239 244.5 181 c 128,-1,8
 286 123 286 123 366 123 c 128,-1,9
426 775 m 0,16,17
 374 775 374 775 347.5 804 c 128,-1,18
 321 833 321 833 289.5 866.5 c 128,-1,19
 258 900 258 900 252.5 907 c 128,-1,20
 247 914 247 914 247 920 c 0,21,22
 247 934 247 934 312 934 c 128,-1,23
 377 934 377 934 392 907 c 0,24,25
 404 886 404 886 416 865 c 128,-1,26
 428 844 428 844 435 833.5 c 128,-1,27
 442 823 442 823 448 813 c 0,28,29
 457 796 457 796 457 790 c 0,30,31
 457 775 457 775 426 775 c 0,16,17
EndSplineSet
EndChar

StartChar: Oacute
Encoding: 211 211 149
Width: 731
GlyphClass: 2
Flags: W
LayerCount: 2
Fore
SplineSet
45 350 m 128,-1,1
 45 523 45 523 128 615.5 c 128,-1,2
 211 708 211 708 366 708 c 128,-1,3
 521 708 521 708 603.5 615.5 c 128,-1,4
 686 523 686 523 686 350 c 128,-1,5
 686 177 686 177 603.5 84.5 c 128,-1,6
 521 -8 521 -8 366 -8 c 128,-1,7
 211 -8 211 -8 128 84.5 c 128,-1,0
 45 177 45 177 45 350 c 128,-1,1
366 123 m 128,-1,9
 446 123 446 123 487 181 c 128,-1,10
 528 239 528 239 528 350 c 128,-1,11
 528 461 528 461 487 518.5 c 128,-1,12
 446 576 446 576 366 576 c 128,-1,13
 286 576 286 576 244.5 518.5 c 128,-1,14
 203 461 203 461 203 350 c 128,-1,15
 203 239 203 239 244.5 181 c 128,-1,8
 286 123 286 123 366 123 c 128,-1,9
320 775 m 0,16,17
 289 775 289 775 289 790 c 0,18,19
 289 800 289 800 303.5 822 c 128,-1,20
 318 844 318 844 330 865 c 128,-1,21
 342 886 342 886 354 907 c 0,22,23
 369 934 369 934 434 934 c 128,-1,24
 499 934 499 934 499 920 c 0,25,26
 499 914 499 914 493 906 c 128,-1,27
 487 898 487 898 469 879.5 c 128,-1,28
 451 861 451 861 444 853.5 c 128,-1,29
 437 846 437 846 423 830.5 c 128,-1,30
 409 815 409 815 395 800 c 0,31,32
 372 775 372 775 320 775 c 0,16,17
EndSplineSet
EndChar

StartChar: Ocircumflex
Encoding: 212 212 150
Width: 731
GlyphClass: 2
Flags: W
LayerCount: 2
Fore
SplineSet
45 350 m 128,-1,1
 45 523 45 523 128 615.5 c 128,-1,2
 211 708 211 708 366 708 c 128,-1,3
 521 708 521 708 603.5 615.5 c 128,-1,4
 686 523 686 523 686 350 c 128,-1,5
 686 177 686 177 603.5 84.5 c 128,-1,6
 521 -8 521 -8 366 -8 c 128,-1,7
 211 -8 211 -8 128 84.5 c 128,-1,0
 45 177 45 177 45 350 c 128,-1,1
366 123 m 128,-1,9
 446 123 446 123 487 181 c 128,-1,10
 528 239 528 239 528 350 c 128,-1,11
 528 461 528 461 487 518.5 c 128,-1,12
 446 576 446 576 366 576 c 128,-1,13
 286 576 286 576 244.5 518.5 c 128,-1,14
 203 461 203 461 203 350 c 128,-1,15
 203 239 203 239 244.5 181 c 128,-1,8
 286 123 286 123 366 123 c 128,-1,9
247 762 m 2,16,17
 227 762 227 762 227 772 c 0,18,19
 227 778 227 778 233 787 c 2,20,-1
 298 889 l 2,21,22
 310 908 310 908 359 908 c 2,23,-1
 370 908 l 2,24,25
 419 908 419 908 431 889 c 2,26,-1
 496 787 l 2,27,28
 502 778 502 778 502 772 c 0,29,30
 502 762 502 762 482 762 c 2,31,-1
 460 762 l 2,32,33
 408 762 408 762 392 786 c 2,34,-1
 364 826 l 1,35,-1
 336 787 l 2,36,37
 318 762 318 762 269 762 c 2,38,-1
 247 762 l 2,16,17
EndSplineSet
EndChar

StartChar: Otilde
Encoding: 213 213 151
Width: 731
GlyphClass: 2
Flags: W
LayerCount: 2
Fore
SplineSet
45 350 m 128,-1,1
 45 523 45 523 128 615.5 c 128,-1,2
 211 708 211 708 366 708 c 128,-1,3
 521 708 521 708 603.5 615.5 c 128,-1,4
 686 523 686 523 686 350 c 128,-1,5
 686 177 686 177 603.5 84.5 c 128,-1,6
 521 -8 521 -8 366 -8 c 128,-1,7
 211 -8 211 -8 128 84.5 c 128,-1,0
 45 177 45 177 45 350 c 128,-1,1
366 123 m 128,-1,9
 446 123 446 123 487 181 c 128,-1,10
 528 239 528 239 528 350 c 128,-1,11
 528 461 528 461 487 518.5 c 128,-1,12
 446 576 446 576 366 576 c 128,-1,13
 286 576 286 576 244.5 518.5 c 128,-1,14
 203 461 203 461 203 350 c 128,-1,15
 203 239 203 239 244.5 181 c 128,-1,8
 286 123 286 123 366 123 c 128,-1,9
292 795 m 1,16,-1
 247 784 l 1,17,18
 231 784 231 784 218 798.5 c 128,-1,19
 205 813 205 813 205 831.5 c 128,-1,20
 205 850 205 850 238.5 869 c 128,-1,21
 272 888 272 888 306.5 888 c 128,-1,22
 341 888 341 888 380.5 878 c 128,-1,23
 420 868 420 868 438 868 c 1,24,-1
 484 879 l 1,25,26
 499 879 499 879 512 864.5 c 128,-1,27
 525 850 525 850 525 831.5 c 128,-1,28
 525 813 525 813 491.5 794 c 128,-1,29
 458 775 458 775 423.5 775 c 128,-1,30
 389 775 389 775 349 785 c 128,-1,31
 309 795 309 795 292 795 c 1,16,-1
EndSplineSet
EndChar

StartChar: Odieresis
Encoding: 214 214 152
Width: 731
GlyphClass: 2
Flags: W
LayerCount: 2
Fore
SplineSet
45 350 m 128,-1,1
 45 523 45 523 128 615.5 c 128,-1,2
 211 708 211 708 366 708 c 128,-1,3
 521 708 521 708 603.5 615.5 c 128,-1,4
 686 523 686 523 686 350 c 128,-1,5
 686 177 686 177 603.5 84.5 c 128,-1,6
 521 -8 521 -8 366 -8 c 128,-1,7
 211 -8 211 -8 128 84.5 c 128,-1,0
 45 177 45 177 45 350 c 128,-1,1
366 123 m 128,-1,9
 446 123 446 123 487 181 c 128,-1,10
 528 239 528 239 528 350 c 128,-1,11
 528 461 528 461 487 518.5 c 128,-1,12
 446 576 446 576 366 576 c 128,-1,13
 286 576 286 576 244.5 518.5 c 128,-1,14
 203 461 203 461 203 350 c 128,-1,15
 203 239 203 239 244.5 181 c 128,-1,8
 286 123 286 123 366 123 c 128,-1,9
455 758 m 128,-1,17
 395 758 395 758 395 790 c 2,18,-1
 395 850 l 2,19,20
 395 882 395 882 455 882 c 128,-1,21
 515 882 515 882 515 850 c 2,22,-1
 515 790 l 2,23,16
 515 758 515 758 455 758 c 128,-1,17
275 758 m 128,-1,25
 215 758 215 758 215 790 c 2,26,-1
 215 850 l 2,27,28
 215 882 215 882 275 882 c 128,-1,29
 335 882 335 882 335 850 c 2,30,-1
 335 790 l 2,31,24
 335 758 335 758 275 758 c 128,-1,25
EndSplineSet
EndChar

StartChar: multiply
Encoding: 215 215 153
Width: 560
GlyphClass: 2
Flags: W
LayerCount: 2
Fore
SplineSet
125 20 m 2,0,1
 116 11 116 11 104 11 c 128,-1,2
 92 11 92 11 66.5 36.5 c 128,-1,3
 41 62 41 62 41 74 c 128,-1,4
 41 86 41 86 50 95 c 2,5,-1
 197 242 l 1,6,-1
 50 390 l 2,7,8
 41 398 41 398 41 410.5 c 128,-1,9
 41 423 41 423 66.5 448.5 c 128,-1,10
 92 474 92 474 104 474 c 128,-1,11
 116 474 116 474 125 465 c 2,12,-1
 272 318 l 1,13,-1
 420 465 l 2,14,15
 428 474 428 474 440.5 474 c 128,-1,16
 453 474 453 474 478.5 448.5 c 128,-1,17
 504 423 504 423 504 410.5 c 128,-1,18
 504 398 504 398 495 390 c 2,19,-1
 348 242 l 1,20,-1
 495 95 l 2,21,22
 504 86 504 86 504 74 c 128,-1,23
 504 62 504 62 478.5 36.5 c 128,-1,24
 453 11 453 11 440.5 11 c 128,-1,25
 428 11 428 11 420 20 c 2,26,-1
 272 167 l 1,27,-1
 125 20 l 2,0,1
EndSplineSet
EndChar

StartChar: Oslash
Encoding: 216 216 154
Width: 731
GlyphClass: 2
Flags: W
LayerCount: 2
Fore
SplineSet
36.5 4 m 128,-1,1
 19 20 19 20 19 32 c 128,-1,2
 19 44 19 44 29 54 c 2,3,-1
 95 129 l 1,4,5
 45 215 45 215 45 350 c 0,6,7
 45 523 45 523 128 615.5 c 128,-1,8
 211 708 211 708 366 708 c 0,9,10
 484 708 484 708 560 653 c 1,11,-1
 612 712 l 2,12,13
 622 724 622 724 634.5 724 c 128,-1,14
 647 724 647 724 664.5 707.5 c 128,-1,15
 682 691 682 691 682 679.5 c 128,-1,16
 682 668 682 668 672 658 c 2,17,-1
 618 597 l 1,18,19
 686 504 686 504 686 340.5 c 128,-1,20
 686 177 686 177 603.5 84.5 c 128,-1,21
 521 -8 521 -8 374 -8 c 128,-1,22
 227 -8 227 -8 147 66 c 1,23,-1
 89 0 l 2,24,25
 78 -12 78 -12 66 -12 c 128,-1,0
 54 -12 54 -12 36.5 4 c 128,-1,1
366 576 m 0,26,27
 286 576 286 576 244.5 518.5 c 128,-1,28
 203 461 203 461 203 350 c 0,29,30
 203 303 203 303 211 260 c 1,31,-1
 463 544 l 1,32,33
 425 576 425 576 366 576 c 0,26,27
247 178 m 1,34,35
 288 123 288 123 367 123 c 128,-1,36
 446 123 446 123 487 181 c 128,-1,37
 528 239 528 239 528 350 c 0,38,39
 528 422 528 422 509 474 c 1,40,-1
 247 178 l 1,34,35
EndSplineSet
EndChar

StartChar: Ugrave
Encoding: 217 217 155
Width: 712
GlyphClass: 2
Flags: W
LayerCount: 2
Fore
SplineSet
66 234 m 2,0,-1
 66 670 l 2,1,2
 66 702 66 702 126 702 c 2,3,-1
 160 702 l 2,4,5
 220 702 220 702 220 670 c 2,6,-1
 220 244 l 2,7,8
 220 191 220 191 258 157 c 128,-1,9
 296 123 296 123 356 123 c 128,-1,10
 416 123 416 123 454.5 157 c 128,-1,11
 493 191 493 191 493 244 c 2,12,-1
 493 670 l 2,13,14
 493 702 493 702 553 702 c 2,15,-1
 586 702 l 2,16,17
 646 702 646 702 646 670 c 2,18,-1
 646 234 l 2,19,20
 646 119 646 119 570 55.5 c 128,-1,21
 494 -8 494 -8 356 -8 c 128,-1,22
 218 -8 218 -8 142 55.5 c 128,-1,23
 66 119 66 119 66 234 c 2,0,-1
422 775 m 0,24,25
 370 775 370 775 343.5 804 c 128,-1,26
 317 833 317 833 285.5 866.5 c 128,-1,27
 254 900 254 900 248.5 907 c 128,-1,28
 243 914 243 914 243 920 c 0,29,30
 243 934 243 934 308 934 c 128,-1,31
 373 934 373 934 388 907 c 0,32,33
 400 886 400 886 412 865 c 128,-1,34
 424 844 424 844 431 833.5 c 128,-1,35
 438 823 438 823 444 813 c 0,36,37
 453 796 453 796 453 790 c 0,38,39
 453 775 453 775 422 775 c 0,24,25
EndSplineSet
EndChar

StartChar: Uacute
Encoding: 218 218 156
Width: 712
GlyphClass: 2
Flags: W
LayerCount: 2
Fore
SplineSet
66 234 m 2,0,-1
 66 670 l 2,1,2
 66 702 66 702 126 702 c 2,3,-1
 160 702 l 2,4,5
 220 702 220 702 220 670 c 2,6,-1
 220 244 l 2,7,8
 220 191 220 191 258 157 c 128,-1,9
 296 123 296 123 356 123 c 128,-1,10
 416 123 416 123 454.5 157 c 128,-1,11
 493 191 493 191 493 244 c 2,12,-1
 493 670 l 2,13,14
 493 702 493 702 553 702 c 2,15,-1
 586 702 l 2,16,17
 646 702 646 702 646 670 c 2,18,-1
 646 234 l 2,19,20
 646 119 646 119 570 55.5 c 128,-1,21
 494 -8 494 -8 356 -8 c 128,-1,22
 218 -8 218 -8 142 55.5 c 128,-1,23
 66 119 66 119 66 234 c 2,0,-1
316 775 m 0,24,25
 285 775 285 775 285 790 c 0,26,27
 285 800 285 800 299.5 822 c 128,-1,28
 314 844 314 844 326 865 c 128,-1,29
 338 886 338 886 350 907 c 0,30,31
 365 934 365 934 430 934 c 128,-1,32
 495 934 495 934 495 920 c 0,33,34
 495 914 495 914 489 906 c 128,-1,35
 483 898 483 898 465 879.5 c 128,-1,36
 447 861 447 861 440 853.5 c 128,-1,37
 433 846 433 846 419 830.5 c 128,-1,38
 405 815 405 815 391 800 c 0,39,40
 368 775 368 775 316 775 c 0,24,25
EndSplineSet
EndChar

StartChar: Ucircumflex
Encoding: 219 219 157
Width: 712
GlyphClass: 2
Flags: W
LayerCount: 2
Fore
SplineSet
66 234 m 2,0,-1
 66 670 l 2,1,2
 66 702 66 702 126 702 c 2,3,-1
 160 702 l 2,4,5
 220 702 220 702 220 670 c 2,6,-1
 220 244 l 2,7,8
 220 191 220 191 258 157 c 128,-1,9
 296 123 296 123 356 123 c 128,-1,10
 416 123 416 123 454.5 157 c 128,-1,11
 493 191 493 191 493 244 c 2,12,-1
 493 670 l 2,13,14
 493 702 493 702 553 702 c 2,15,-1
 586 702 l 2,16,17
 646 702 646 702 646 670 c 2,18,-1
 646 234 l 2,19,20
 646 119 646 119 570 55.5 c 128,-1,21
 494 -8 494 -8 356 -8 c 128,-1,22
 218 -8 218 -8 142 55.5 c 128,-1,23
 66 119 66 119 66 234 c 2,0,-1
243 762 m 2,24,25
 223 762 223 762 223 772 c 0,26,27
 223 778 223 778 229 787 c 2,28,-1
 294 889 l 2,29,30
 306 908 306 908 355 908 c 2,31,-1
 366 908 l 2,32,33
 415 908 415 908 427 889 c 2,34,-1
 492 787 l 2,35,36
 498 778 498 778 498 772 c 0,37,38
 498 762 498 762 478 762 c 2,39,-1
 456 762 l 2,40,41
 404 762 404 762 388 786 c 2,42,-1
 360 826 l 1,43,-1
 332 787 l 2,44,45
 314 762 314 762 265 762 c 2,46,-1
 243 762 l 2,24,25
EndSplineSet
EndChar

StartChar: Udieresis
Encoding: 220 220 158
Width: 712
GlyphClass: 2
Flags: W
LayerCount: 2
Fore
SplineSet
66 234 m 2,0,-1
 66 670 l 2,1,2
 66 702 66 702 126 702 c 2,3,-1
 160 702 l 2,4,5
 220 702 220 702 220 670 c 2,6,-1
 220 244 l 2,7,8
 220 191 220 191 258 157 c 128,-1,9
 296 123 296 123 356 123 c 128,-1,10
 416 123 416 123 454.5 157 c 128,-1,11
 493 191 493 191 493 244 c 2,12,-1
 493 670 l 2,13,14
 493 702 493 702 553 702 c 2,15,-1
 586 702 l 2,16,17
 646 702 646 702 646 670 c 2,18,-1
 646 234 l 2,19,20
 646 119 646 119 570 55.5 c 128,-1,21
 494 -8 494 -8 356 -8 c 128,-1,22
 218 -8 218 -8 142 55.5 c 128,-1,23
 66 119 66 119 66 234 c 2,0,-1
451 758 m 128,-1,25
 391 758 391 758 391 790 c 2,26,-1
 391 850 l 2,27,28
 391 882 391 882 451 882 c 128,-1,29
 511 882 511 882 511 850 c 2,30,-1
 511 790 l 2,31,24
 511 758 511 758 451 758 c 128,-1,25
271 758 m 128,-1,33
 211 758 211 758 211 790 c 2,34,-1
 211 850 l 2,35,36
 211 882 211 882 271 882 c 128,-1,37
 331 882 331 882 331 850 c 2,38,-1
 331 790 l 2,39,32
 331 758 331 758 271 758 c 128,-1,33
EndSplineSet
EndChar

StartChar: Yacute
Encoding: 221 221 159
Width: 559
GlyphClass: 2
Flags: W
LayerCount: 2
Fore
SplineSet
203 30 m 2,0,-1
 203 336 l 1,1,-1
 4 657 l 2,2,3
 -6 674 -6 674 -6 682 c 0,4,5
 -6 702 -6 702 58 702 c 2,6,-1
 101 702 l 2,7,8
 150 702 150 702 161 683 c 2,9,-1
 283 469 l 1,10,-1
 406 683 l 2,11,12
 417 702 417 702 466 702 c 2,13,-1
 502 702 l 2,14,15
 565 702 565 702 565 682 c 0,16,17
 565 672 565 672 556 657 c 2,18,-1
 357 333 l 1,19,-1
 357 30 l 2,20,21
 357 -2 357 -2 297 -2 c 2,22,-1
 263 -2 l 2,23,24
 203 -2 203 -2 203 30 c 2,0,-1
232 775 m 0,25,26
 201 775 201 775 201 790 c 0,27,28
 201 800 201 800 215.5 822 c 128,-1,29
 230 844 230 844 242 865 c 128,-1,30
 254 886 254 886 266 907 c 0,31,32
 281 934 281 934 346 934 c 128,-1,33
 411 934 411 934 411 920 c 0,34,35
 411 914 411 914 405 906 c 128,-1,36
 399 898 399 898 381 879.5 c 128,-1,37
 363 861 363 861 356 853.5 c 128,-1,38
 349 846 349 846 335 830.5 c 128,-1,39
 321 815 321 815 307 800 c 0,40,41
 284 775 284 775 232 775 c 0,25,26
EndSplineSet
EndChar

StartChar: Thorn
Encoding: 222 222 160
Width: 567
GlyphClass: 2
Flags: W
LayerCount: 2
Fore
SplineSet
68 30 m 2,0,-1
 68 670 l 2,1,2
 68 702 68 702 128 702 c 2,3,-1
 162 702 l 2,4,5
 222 702 222 702 222 670 c 2,6,-1
 222 593 l 1,7,-1
 325 593 l 2,8,9
 442 593 442 593 506 534 c 0,10,11
 530 512 530 512 546.5 470.5 c 128,-1,12
 563 429 563 429 563 374 c 128,-1,13
 563 319 563 319 544 277.5 c 128,-1,14
 525 236 525 236 498.5 213.5 c 128,-1,15
 472 191 472 191 438 177 c 0,16,17
 385 155 385 155 335 155 c 2,18,-1
 222 155 l 1,19,-1
 222 30 l 2,20,21
 222 -2 222 -2 162 -2 c 2,22,-1
 128 -2 l 2,23,24
 68 -2 68 -2 68 30 c 2,0,-1
222 287 m 1,25,-1
 318 287 l 2,26,27
 354 287 354 287 379.5 306 c 128,-1,28
 405 325 405 325 405 374 c 128,-1,29
 405 423 405 423 379.5 442.5 c 128,-1,30
 354 462 354 462 318 462 c 2,31,-1
 222 462 l 1,32,-1
 222 287 l 1,25,-1
EndSplineSet
EndChar

StartChar: germandbls
Encoding: 223 223 161
Width: 554
GlyphClass: 2
Flags: W
LayerCount: 2
Fore
SplineSet
58 30 m 2,0,-1
 58 490 l 2,1,2
 58 589 58 589 122 648.5 c 128,-1,3
 186 708 186 708 285 708 c 128,-1,4
 384 708 384 708 446 660 c 128,-1,5
 508 612 508 612 508 530 c 0,6,7
 508 425 508 425 415 387 c 1,8,-1
 415 383 l 1,9,10
 533 338 533 338 533 210 c 0,11,12
 533 118 533 118 469.5 59 c 128,-1,13
 406 0 406 0 299 0 c 2,14,-1
 276 0 l 2,15,16
 246 0 246 0 246 50 c 2,17,-1
 246 67 l 2,18,19
 246 117 246 117 276 117 c 2,20,-1
 290 117 l 2,21,22
 332 117 332 117 357.5 142.5 c 128,-1,23
 383 168 383 168 383 212 c 128,-1,24
 383 256 383 256 354.5 283.5 c 128,-1,25
 326 311 326 311 276 311 c 0,26,27
 246 311 246 311 246 361 c 2,28,-1
 246 378 l 2,29,30
 246 425 246 425 273 428 c 1,31,32
 311 429 311 429 334.5 452 c 128,-1,33
 358 475 358 475 358 506.5 c 128,-1,34
 358 538 358 538 339.5 560.5 c 128,-1,35
 321 583 321 583 285 583 c 128,-1,36
 249 583 249 583 227.5 560.5 c 128,-1,37
 206 538 206 538 206 502 c 2,38,-1
 206 30 l 2,39,40
 206 -2 206 -2 146 -2 c 2,41,-1
 118 -2 l 2,42,43
 58 -2 58 -2 58 30 c 2,0,-1
EndSplineSet
EndChar

StartChar: agrave
Encoding: 224 224 162
Width: 545
GlyphClass: 2
Flags: W
LayerCount: 2
Fore
SplineSet
42 138 m 0,0,1
 42 166 42 166 47 189 c 128,-1,2
 52 212 52 212 70 238.5 c 128,-1,3
 88 265 88 265 118 282 c 0,4,5
 189 324 189 324 329 324 c 1,6,-1
 329 357 l 2,7,8
 329 414 329 414 251 414 c 0,9,10
 196 414 196 414 144 390 c 0,11,12
 126 382 126 382 123 382 c 0,13,14
 108 382 108 382 89.5 413 c 128,-1,15
 71 444 71 444 71 462 c 0,16,17
 71 489 71 489 126.5 510 c 128,-1,18
 182 531 182 531 262 531 c 0,19,20
 477 531 477 531 477 364 c 2,21,-1
 477 176 l 2,22,23
 477 114 477 114 483 72 c 2,24,-1
 489 31 l 1,25,26
 489 15 489 15 448.5 7 c 128,-1,27
 408 -1 408 -1 388 -1 c 128,-1,28
 368 -1 368 -1 361.5 3 c 128,-1,29
 355 7 355 7 351 16.5 c 128,-1,30
 347 26 347 26 345 31.5 c 128,-1,31
 343 37 343 37 340.5 51 c 128,-1,32
 338 65 338 65 337 68 c 1,33,34
 319 36 319 36 275 14 c 128,-1,35
 231 -8 231 -8 190 -8 c 0,36,37
 113 -8 113 -8 77.5 32 c 128,-1,38
 42 72 42 72 42 138 c 0,0,1
189 153 m 0,39,40
 189 133 189 133 202 121 c 128,-1,41
 215 109 215 109 241 109 c 128,-1,42
 267 109 267 109 292 127 c 128,-1,43
 317 145 317 145 329 172 c 1,44,-1
 329 227 l 1,45,46
 189 227 189 227 189 153 c 0,39,40
345 595 m 0,47,48
 293 595 293 595 266.5 624 c 128,-1,49
 240 653 240 653 208.5 686.5 c 128,-1,50
 177 720 177 720 171.5 727 c 128,-1,51
 166 734 166 734 166 740 c 0,52,53
 166 754 166 754 231 754 c 128,-1,54
 296 754 296 754 311 727 c 0,55,56
 323 706 323 706 335 685 c 128,-1,57
 347 664 347 664 354 653.5 c 128,-1,58
 361 643 361 643 366 633 c 0,59,60
 376 616 376 616 376 610 c 0,61,62
 376 595 376 595 345 595 c 0,47,48
EndSplineSet
EndChar

StartChar: aacute
Encoding: 225 225 163
Width: 545
GlyphClass: 2
Flags: W
LayerCount: 2
Fore
SplineSet
42 138 m 0,0,1
 42 166 42 166 47 189 c 128,-1,2
 52 212 52 212 70 238.5 c 128,-1,3
 88 265 88 265 118 282 c 0,4,5
 189 324 189 324 329 324 c 1,6,-1
 329 357 l 2,7,8
 329 414 329 414 251 414 c 0,9,10
 196 414 196 414 144 390 c 0,11,12
 126 382 126 382 123 382 c 0,13,14
 108 382 108 382 89.5 413 c 128,-1,15
 71 444 71 444 71 462 c 0,16,17
 71 489 71 489 126.5 510 c 128,-1,18
 182 531 182 531 262 531 c 0,19,20
 477 531 477 531 477 364 c 2,21,-1
 477 176 l 2,22,23
 477 114 477 114 483 72 c 2,24,-1
 489 31 l 1,25,26
 489 15 489 15 448.5 7 c 128,-1,27
 408 -1 408 -1 388 -1 c 128,-1,28
 368 -1 368 -1 361.5 3 c 128,-1,29
 355 7 355 7 351 16.5 c 128,-1,30
 347 26 347 26 345 31.5 c 128,-1,31
 343 37 343 37 340.5 51 c 128,-1,32
 338 65 338 65 337 68 c 1,33,34
 319 36 319 36 275 14 c 128,-1,35
 231 -8 231 -8 190 -8 c 0,36,37
 113 -8 113 -8 77.5 32 c 128,-1,38
 42 72 42 72 42 138 c 0,0,1
189 153 m 0,39,40
 189 133 189 133 202 121 c 128,-1,41
 215 109 215 109 241 109 c 128,-1,42
 267 109 267 109 292 127 c 128,-1,43
 317 145 317 145 329 172 c 1,44,-1
 329 227 l 1,45,46
 189 227 189 227 189 153 c 0,39,40
239 595 m 0,47,48
 208 595 208 595 208 610 c 0,49,50
 208 620 208 620 222.5 642 c 128,-1,51
 237 664 237 664 249 685 c 128,-1,52
 261 706 261 706 273 727 c 0,53,54
 288 754 288 754 353 754 c 128,-1,55
 418 754 418 754 418 740 c 0,56,57
 418 734 418 734 412 726 c 128,-1,58
 406 718 406 718 388 699.5 c 128,-1,59
 370 681 370 681 363 673.5 c 128,-1,60
 356 666 356 666 342 650.5 c 128,-1,61
 328 635 328 635 314 620 c 0,62,63
 291 595 291 595 239 595 c 0,47,48
EndSplineSet
EndChar

StartChar: acircumflex
Encoding: 226 226 164
Width: 545
GlyphClass: 2
Flags: W
LayerCount: 2
Fore
SplineSet
42 138 m 0,0,1
 42 166 42 166 47 189 c 128,-1,2
 52 212 52 212 70 238.5 c 128,-1,3
 88 265 88 265 118 282 c 0,4,5
 189 324 189 324 329 324 c 1,6,-1
 329 357 l 2,7,8
 329 414 329 414 251 414 c 0,9,10
 196 414 196 414 144 390 c 0,11,12
 126 382 126 382 123 382 c 0,13,14
 108 382 108 382 89.5 413 c 128,-1,15
 71 444 71 444 71 462 c 0,16,17
 71 489 71 489 126.5 510 c 128,-1,18
 182 531 182 531 262 531 c 0,19,20
 477 531 477 531 477 364 c 2,21,-1
 477 176 l 2,22,23
 477 114 477 114 483 72 c 2,24,-1
 489 31 l 1,25,26
 489 15 489 15 448.5 7 c 128,-1,27
 408 -1 408 -1 388 -1 c 128,-1,28
 368 -1 368 -1 361.5 3 c 128,-1,29
 355 7 355 7 351 16.5 c 128,-1,30
 347 26 347 26 345 31.5 c 128,-1,31
 343 37 343 37 340.5 51 c 128,-1,32
 338 65 338 65 337 68 c 1,33,34
 319 36 319 36 275 14 c 128,-1,35
 231 -8 231 -8 190 -8 c 0,36,37
 113 -8 113 -8 77.5 32 c 128,-1,38
 42 72 42 72 42 138 c 0,0,1
189 153 m 0,39,40
 189 133 189 133 202 121 c 128,-1,41
 215 109 215 109 241 109 c 128,-1,42
 267 109 267 109 292 127 c 128,-1,43
 317 145 317 145 329 172 c 1,44,-1
 329 227 l 1,45,46
 189 227 189 227 189 153 c 0,39,40
166 582 m 2,47,48
 146 582 146 582 146 592 c 0,49,50
 146 598 146 598 152 607 c 2,51,-1
 217 709 l 2,52,53
 229 728 229 728 278 728 c 2,54,-1
 289 728 l 2,55,56
 338 728 338 728 350 709 c 2,57,-1
 415 607 l 2,58,59
 421 598 421 598 421 592 c 0,60,61
 421 582 421 582 401 582 c 2,62,-1
 379 582 l 2,63,64
 327 582 327 582 311 606 c 2,65,-1
 283 646 l 1,66,-1
 255 607 l 2,67,68
 237 582 237 582 188 582 c 2,69,-1
 166 582 l 2,47,48
EndSplineSet
EndChar

StartChar: atilde
Encoding: 227 227 165
Width: 545
GlyphClass: 2
Flags: W
LayerCount: 2
Fore
SplineSet
42 138 m 0,0,1
 42 166 42 166 47 189 c 128,-1,2
 52 212 52 212 70 238.5 c 128,-1,3
 88 265 88 265 118 282 c 0,4,5
 189 324 189 324 329 324 c 1,6,-1
 329 357 l 2,7,8
 329 414 329 414 251 414 c 0,9,10
 196 414 196 414 144 390 c 0,11,12
 126 382 126 382 123 382 c 0,13,14
 108 382 108 382 89.5 413 c 128,-1,15
 71 444 71 444 71 462 c 0,16,17
 71 489 71 489 126.5 510 c 128,-1,18
 182 531 182 531 262 531 c 0,19,20
 477 531 477 531 477 364 c 2,21,-1
 477 176 l 2,22,23
 477 114 477 114 483 72 c 2,24,-1
 489 31 l 1,25,26
 489 15 489 15 448.5 7 c 128,-1,27
 408 -1 408 -1 388 -1 c 128,-1,28
 368 -1 368 -1 361.5 3 c 128,-1,29
 355 7 355 7 351 16.5 c 128,-1,30
 347 26 347 26 345 31.5 c 128,-1,31
 343 37 343 37 340.5 51 c 128,-1,32
 338 65 338 65 337 68 c 1,33,34
 319 36 319 36 275 14 c 128,-1,35
 231 -8 231 -8 190 -8 c 0,36,37
 113 -8 113 -8 77.5 32 c 128,-1,38
 42 72 42 72 42 138 c 0,0,1
189 153 m 0,39,40
 189 133 189 133 202 121 c 128,-1,41
 215 109 215 109 241 109 c 128,-1,42
 267 109 267 109 292 127 c 128,-1,43
 317 145 317 145 329 172 c 1,44,-1
 329 227 l 1,45,46
 189 227 189 227 189 153 c 0,39,40
211 615 m 1,47,-1
 166 604 l 1,48,49
 150 604 150 604 137 618.5 c 128,-1,50
 124 633 124 633 124 651.5 c 128,-1,51
 124 670 124 670 157.5 689 c 128,-1,52
 191 708 191 708 225.5 708 c 128,-1,53
 260 708 260 708 299.5 698 c 128,-1,54
 339 688 339 688 357 688 c 1,55,-1
 403 699 l 1,56,57
 418 699 418 699 431 684.5 c 128,-1,58
 444 670 444 670 444 651.5 c 128,-1,59
 444 633 444 633 410.5 614 c 128,-1,60
 377 595 377 595 342.5 595 c 128,-1,61
 308 595 308 595 268 605 c 128,-1,62
 228 615 228 615 211 615 c 1,47,-1
EndSplineSet
EndChar

StartChar: adieresis
Encoding: 228 228 166
Width: 545
GlyphClass: 2
Flags: W
LayerCount: 2
Fore
SplineSet
42 138 m 0,0,1
 42 166 42 166 47 189 c 128,-1,2
 52 212 52 212 70 238.5 c 128,-1,3
 88 265 88 265 118 282 c 0,4,5
 189 324 189 324 329 324 c 1,6,-1
 329 357 l 2,7,8
 329 414 329 414 251 414 c 0,9,10
 196 414 196 414 144 390 c 0,11,12
 126 382 126 382 123 382 c 0,13,14
 108 382 108 382 89.5 413 c 128,-1,15
 71 444 71 444 71 462 c 0,16,17
 71 489 71 489 126.5 510 c 128,-1,18
 182 531 182 531 262 531 c 0,19,20
 477 531 477 531 477 364 c 2,21,-1
 477 176 l 2,22,23
 477 114 477 114 483 72 c 2,24,-1
 489 31 l 1,25,26
 489 15 489 15 448.5 7 c 128,-1,27
 408 -1 408 -1 388 -1 c 128,-1,28
 368 -1 368 -1 361.5 3 c 128,-1,29
 355 7 355 7 351 16.5 c 128,-1,30
 347 26 347 26 345 31.5 c 128,-1,31
 343 37 343 37 340.5 51 c 128,-1,32
 338 65 338 65 337 68 c 1,33,34
 319 36 319 36 275 14 c 128,-1,35
 231 -8 231 -8 190 -8 c 0,36,37
 113 -8 113 -8 77.5 32 c 128,-1,38
 42 72 42 72 42 138 c 0,0,1
189 153 m 0,39,40
 189 133 189 133 202 121 c 128,-1,41
 215 109 215 109 241 109 c 128,-1,42
 267 109 267 109 292 127 c 128,-1,43
 317 145 317 145 329 172 c 1,44,-1
 329 227 l 1,45,46
 189 227 189 227 189 153 c 0,39,40
374 578 m 128,-1,48
 314 578 314 578 314 610 c 2,49,-1
 314 670 l 2,50,51
 314 702 314 702 374 702 c 128,-1,52
 434 702 434 702 434 670 c 2,53,-1
 434 610 l 2,54,47
 434 578 434 578 374 578 c 128,-1,48
194 578 m 128,-1,56
 134 578 134 578 134 610 c 2,57,-1
 134 670 l 2,58,59
 134 702 134 702 194 702 c 128,-1,60
 254 702 254 702 254 670 c 2,61,-1
 254 610 l 2,62,55
 254 578 254 578 194 578 c 128,-1,56
EndSplineSet
EndChar

StartChar: aring
Encoding: 229 229 167
Width: 545
GlyphClass: 2
Flags: W
LayerCount: 2
Fore
SplineSet
42 138 m 0,0,1
 42 166 42 166 47 189 c 128,-1,2
 52 212 52 212 70 238.5 c 128,-1,3
 88 265 88 265 118 282 c 0,4,5
 189 324 189 324 329 324 c 1,6,-1
 329 357 l 2,7,8
 329 414 329 414 251 414 c 0,9,10
 196 414 196 414 144 390 c 0,11,12
 126 382 126 382 123 382 c 0,13,14
 108 382 108 382 89.5 413 c 128,-1,15
 71 444 71 444 71 462 c 0,16,17
 71 489 71 489 126.5 510 c 128,-1,18
 182 531 182 531 262 531 c 0,19,20
 477 531 477 531 477 364 c 2,21,-1
 477 176 l 2,22,23
 477 114 477 114 483 72 c 2,24,-1
 489 31 l 1,25,26
 489 15 489 15 448.5 7 c 128,-1,27
 408 -1 408 -1 388 -1 c 128,-1,28
 368 -1 368 -1 361.5 3 c 128,-1,29
 355 7 355 7 351 16.5 c 128,-1,30
 347 26 347 26 345 31.5 c 128,-1,31
 343 37 343 37 340.5 51 c 128,-1,32
 338 65 338 65 337 68 c 1,33,34
 319 36 319 36 275 14 c 128,-1,35
 231 -8 231 -8 190 -8 c 0,36,37
 113 -8 113 -8 77.5 32 c 128,-1,38
 42 72 42 72 42 138 c 0,0,1
189 153 m 0,39,40
 189 133 189 133 202 121 c 128,-1,41
 215 109 215 109 241 109 c 128,-1,42
 267 109 267 109 292 127 c 128,-1,43
 317 145 317 145 329 172 c 1,44,-1
 329 227 l 1,45,46
 189 227 189 227 189 153 c 0,39,40
284 550 m 128,-1,48
 242 550 242 550 213.5 578.5 c 128,-1,49
 185 607 185 607 185 649 c 128,-1,50
 185 691 185 691 213.5 720 c 128,-1,51
 242 749 242 749 284 749 c 128,-1,52
 326 749 326 749 355 720 c 128,-1,53
 384 691 384 691 384 649 c 128,-1,54
 384 607 384 607 355 578.5 c 128,-1,47
 326 550 326 550 284 550 c 128,-1,48
284 612 m 128,-1,56
 299 612 299 612 310 622.5 c 128,-1,57
 321 633 321 633 321 648 c 128,-1,58
 321 663 321 663 310 674 c 128,-1,59
 299 685 299 685 284 685 c 128,-1,60
 269 685 269 685 258.5 674 c 128,-1,61
 248 663 248 663 248 648 c 128,-1,62
 248 633 248 633 258.5 622.5 c 128,-1,55
 269 612 269 612 284 612 c 128,-1,56
EndSplineSet
EndChar

StartChar: ae
Encoding: 230 230 168
Width: 829
GlyphClass: 2
Flags: W
LayerCount: 2
Fore
SplineSet
41 138 m 0,0,1
 41 166 41 166 46 188.5 c 128,-1,2
 51 211 51 211 69 237 c 128,-1,3
 87 263 87 263 116 281 c 0,4,5
 185 323 185 323 325 323 c 1,6,7
 329 358 329 358 340 387 c 1,8,9
 319 414 319 414 250 414 c 0,10,11
 213 414 213 414 168.5 398 c 128,-1,12
 124 382 124 382 122 382 c 0,13,14
 107 382 107 382 88.5 413 c 128,-1,15
 70 444 70 444 70 462 c 0,16,17
 70 489 70 489 125.5 510 c 128,-1,18
 181 531 181 531 275 531 c 128,-1,19
 369 531 369 531 422 495 c 1,20,21
 480 531 480 531 564 531 c 0,22,23
 676 531 676 531 728 463 c 128,-1,24
 780 395 780 395 780 283 c 0,25,26
 780 270 780 270 760.5 247 c 128,-1,27
 741 224 741 224 731 224 c 2,28,-1
 476 224 l 1,29,30
 476 163 476 163 508 136 c 128,-1,31
 540 109 540 109 583.5 109 c 128,-1,32
 627 109 627 109 668 124.5 c 128,-1,33
 709 140 709 140 710 140 c 0,34,35
 725 140 725 140 743.5 110.5 c 128,-1,36
 762 81 762 81 762 64 c 0,37,38
 762 31 762 31 699.5 11.5 c 128,-1,39
 637 -8 637 -8 582 -8 c 0,40,41
 455 -8 455 -8 387 60 c 1,42,43
 363 36 363 36 315.5 14 c 128,-1,44
 268 -8 268 -8 198.5 -8 c 128,-1,45
 129 -8 129 -8 85 33 c 128,-1,46
 41 74 41 74 41 138 c 0,0,1
636 323 m 1,47,48
 636 366 636 366 616.5 390 c 128,-1,49
 597 414 597 414 564 414 c 0,50,51
 488 414 488 414 474 323 c 1,52,-1
 636 323 l 1,47,48
188 153 m 0,53,54
 188 133 188 133 201 121 c 128,-1,55
 214 109 214 109 240 109 c 128,-1,56
 266 109 266 109 293 121.5 c 128,-1,57
 320 134 320 134 334 156 c 1,58,59
 325 188 325 188 322 225 c 1,60,61
 188 224 188 224 188 153 c 0,53,54
EndSplineSet
EndChar

StartChar: ccedilla
Encoding: 231 231 169
Width: 485
GlyphClass: 2
Flags: W
LayerCount: 2
Fore
SplineSet
160 -113 m 128,-1,1
 169 -113 169 -113 198.5 -123.5 c 128,-1,2
 228 -134 228 -134 251.5 -134 c 128,-1,3
 275 -134 275 -134 275 -117 c 0,4,5
 275 -104 275 -104 248.5 -92.5 c 128,-1,6
 222 -81 222 -81 222 -69.5 c 128,-1,7
 222 -58 222 -58 240 -5 c 1,8,9
 42 20 42 20 42 258 c 0,10,11
 42 394 42 394 104.5 462.5 c 128,-1,12
 167 531 167 531 299 531 c 0,13,14
 360 531 360 531 412.5 512.5 c 128,-1,15
 465 494 465 494 465 462 c 0,16,17
 465 447 465 447 444.5 416 c 128,-1,18
 424 385 424 385 412 385 c 0,19,20
 408 385 408 385 394 392 c 0,21,22
 350 414 350 414 299 414 c 128,-1,23
 248 414 248 414 221 377 c 128,-1,24
 194 340 194 340 194 262 c 128,-1,25
 194 184 194 184 219.5 146.5 c 128,-1,26
 245 109 245 109 297.5 109 c 128,-1,27
 350 109 350 109 399 132 c 1,28,29
 415 138 415 138 417 138 c 0,30,31
 432 138 432 138 450.5 108.5 c 128,-1,32
 469 79 469 79 469 62 c 0,33,34
 469 29 469 29 415 12.5 c 128,-1,35
 361 -4 361 -4 306 -8 c 1,36,-1
 300 -31 l 1,37,38
 378 -47 378 -47 378 -107 c 0,39,40
 378 -207 378 -207 259 -207 c 0,41,42
 212 -207 212 -207 170 -193 c 128,-1,43
 128 -179 128 -179 128 -157 c 128,-1,44
 128 -135 128 -135 139.5 -124 c 128,-1,0
 151 -113 151 -113 160 -113 c 128,-1,1
EndSplineSet
EndChar

StartChar: egrave
Encoding: 232 232 170
Width: 539
GlyphClass: 2
Flags: W
LayerCount: 2
Fore
SplineSet
106.5 62.5 m 128,-1,1
 42 133 42 133 42 266 c 128,-1,2
 42 399 42 399 106.5 465 c 128,-1,3
 171 531 171 531 283.5 531 c 128,-1,4
 396 531 396 531 448.5 459 c 128,-1,5
 501 387 501 387 501 273 c 0,6,7
 501 261 501 261 480.5 237.5 c 128,-1,8
 460 214 460 214 450 214 c 2,9,-1
 195 214 l 1,10,11
 200 157 200 157 229 133 c 128,-1,12
 258 109 258 109 303 109 c 128,-1,13
 348 109 348 109 389 124.5 c 128,-1,14
 430 140 430 140 431 140 c 0,15,16
 446 140 446 140 464.5 110.5 c 128,-1,17
 483 81 483 81 483 64 c 0,18,19
 483 31 483 31 420.5 11.5 c 128,-1,20
 358 -8 358 -8 303 -8 c 0,21,0
 171 -8 171 -8 106.5 62.5 c 128,-1,1
357 313 m 1,22,23
 357 359 357 359 339 386.5 c 128,-1,24
 321 414 321 414 285 414 c 0,25,26
 211 414 211 414 195 313 c 1,27,-1
 357 313 l 1,22,23
341 595 m 0,28,29
 289 595 289 595 262.5 624 c 128,-1,30
 236 653 236 653 204.5 686.5 c 128,-1,31
 173 720 173 720 167.5 727 c 128,-1,32
 162 734 162 734 162 740 c 0,33,34
 162 754 162 754 227 754 c 128,-1,35
 292 754 292 754 307 727 c 0,36,37
 319 706 319 706 331 685 c 128,-1,38
 343 664 343 664 350 653.5 c 128,-1,39
 357 643 357 643 362 633 c 0,40,41
 372 616 372 616 372 610 c 0,42,43
 372 595 372 595 341 595 c 0,28,29
EndSplineSet
EndChar

StartChar: eacute
Encoding: 233 233 171
Width: 539
GlyphClass: 2
Flags: W
LayerCount: 2
Fore
SplineSet
106.5 62.5 m 128,-1,1
 42 133 42 133 42 266 c 128,-1,2
 42 399 42 399 106.5 465 c 128,-1,3
 171 531 171 531 283.5 531 c 128,-1,4
 396 531 396 531 448.5 459 c 128,-1,5
 501 387 501 387 501 273 c 0,6,7
 501 261 501 261 480.5 237.5 c 128,-1,8
 460 214 460 214 450 214 c 2,9,-1
 195 214 l 1,10,11
 200 157 200 157 229 133 c 128,-1,12
 258 109 258 109 303 109 c 128,-1,13
 348 109 348 109 389 124.5 c 128,-1,14
 430 140 430 140 431 140 c 0,15,16
 446 140 446 140 464.5 110.5 c 128,-1,17
 483 81 483 81 483 64 c 0,18,19
 483 31 483 31 420.5 11.5 c 128,-1,20
 358 -8 358 -8 303 -8 c 0,21,0
 171 -8 171 -8 106.5 62.5 c 128,-1,1
357 313 m 1,22,23
 357 359 357 359 339 386.5 c 128,-1,24
 321 414 321 414 285 414 c 0,25,26
 211 414 211 414 195 313 c 1,27,-1
 357 313 l 1,22,23
235 595 m 0,28,29
 204 595 204 595 204 610 c 0,30,31
 204 620 204 620 218.5 642 c 128,-1,32
 233 664 233 664 245 685 c 128,-1,33
 257 706 257 706 269 727 c 0,34,35
 284 754 284 754 349 754 c 128,-1,36
 414 754 414 754 414 740 c 0,37,38
 414 734 414 734 408 726 c 128,-1,39
 402 718 402 718 384 699.5 c 128,-1,40
 366 681 366 681 359 673.5 c 128,-1,41
 352 666 352 666 338 650.5 c 128,-1,42
 324 635 324 635 310 620 c 0,43,44
 287 595 287 595 235 595 c 0,28,29
EndSplineSet
EndChar

StartChar: ecircumflex
Encoding: 234 234 172
Width: 539
GlyphClass: 2
Flags: W
LayerCount: 2
Fore
SplineSet
106.5 62.5 m 128,-1,1
 42 133 42 133 42 266 c 128,-1,2
 42 399 42 399 106.5 465 c 128,-1,3
 171 531 171 531 283.5 531 c 128,-1,4
 396 531 396 531 448.5 459 c 128,-1,5
 501 387 501 387 501 273 c 0,6,7
 501 261 501 261 480.5 237.5 c 128,-1,8
 460 214 460 214 450 214 c 2,9,-1
 195 214 l 1,10,11
 200 157 200 157 229 133 c 128,-1,12
 258 109 258 109 303 109 c 128,-1,13
 348 109 348 109 389 124.5 c 128,-1,14
 430 140 430 140 431 140 c 0,15,16
 446 140 446 140 464.5 110.5 c 128,-1,17
 483 81 483 81 483 64 c 0,18,19
 483 31 483 31 420.5 11.5 c 128,-1,20
 358 -8 358 -8 303 -8 c 0,21,0
 171 -8 171 -8 106.5 62.5 c 128,-1,1
357 313 m 1,22,23
 357 359 357 359 339 386.5 c 128,-1,24
 321 414 321 414 285 414 c 0,25,26
 211 414 211 414 195 313 c 1,27,-1
 357 313 l 1,22,23
162 582 m 2,28,29
 142 582 142 582 142 592 c 0,30,31
 142 598 142 598 148 607 c 2,32,-1
 213 709 l 2,33,34
 225 728 225 728 274 728 c 2,35,-1
 285 728 l 2,36,37
 334 728 334 728 346 709 c 2,38,-1
 411 607 l 2,39,40
 417 598 417 598 417 592 c 0,41,42
 417 582 417 582 397 582 c 2,43,-1
 375 582 l 2,44,45
 323 582 323 582 307 606 c 2,46,-1
 279 646 l 1,47,-1
 251 607 l 2,48,49
 233 582 233 582 184 582 c 2,50,-1
 162 582 l 2,28,29
EndSplineSet
EndChar

StartChar: edieresis
Encoding: 235 235 173
Width: 539
GlyphClass: 2
Flags: W
LayerCount: 2
Fore
SplineSet
106.5 62.5 m 128,-1,1
 42 133 42 133 42 266 c 128,-1,2
 42 399 42 399 106.5 465 c 128,-1,3
 171 531 171 531 283.5 531 c 128,-1,4
 396 531 396 531 448.5 459 c 128,-1,5
 501 387 501 387 501 273 c 0,6,7
 501 261 501 261 480.5 237.5 c 128,-1,8
 460 214 460 214 450 214 c 2,9,-1
 195 214 l 1,10,11
 200 157 200 157 229 133 c 128,-1,12
 258 109 258 109 303 109 c 128,-1,13
 348 109 348 109 389 124.5 c 128,-1,14
 430 140 430 140 431 140 c 0,15,16
 446 140 446 140 464.5 110.5 c 128,-1,17
 483 81 483 81 483 64 c 0,18,19
 483 31 483 31 420.5 11.5 c 128,-1,20
 358 -8 358 -8 303 -8 c 0,21,0
 171 -8 171 -8 106.5 62.5 c 128,-1,1
357 313 m 1,22,23
 357 359 357 359 339 386.5 c 128,-1,24
 321 414 321 414 285 414 c 0,25,26
 211 414 211 414 195 313 c 1,27,-1
 357 313 l 1,22,23
370 578 m 128,-1,29
 310 578 310 578 310 610 c 2,30,-1
 310 670 l 2,31,32
 310 702 310 702 370 702 c 128,-1,33
 430 702 430 702 430 670 c 2,34,-1
 430 610 l 2,35,28
 430 578 430 578 370 578 c 128,-1,29
190 578 m 128,-1,37
 130 578 130 578 130 610 c 2,38,-1
 130 670 l 2,39,40
 130 702 130 702 190 702 c 128,-1,41
 250 702 250 702 250 670 c 2,42,-1
 250 610 l 2,43,36
 250 578 250 578 190 578 c 128,-1,37
EndSplineSet
EndChar

StartChar: igrave
Encoding: 236 236 174
Width: 265
GlyphClass: 2
Flags: W
LayerCount: 2
Fore
SplineSet
59 30 m 2,0,-1
 59 493 l 2,1,2
 59 525 59 525 119 525 c 2,3,-1
 147 525 l 2,4,5
 207 525 207 525 207 493 c 2,6,-1
 207 30 l 2,7,8
 207 -2 207 -2 147 -2 c 2,9,-1
 119 -2 l 2,10,11
 59 -2 59 -2 59 30 c 2,0,-1
194 595 m 0,12,13
 142 595 142 595 115.5 624 c 128,-1,14
 89 653 89 653 57.5 686.5 c 128,-1,15
 26 720 26 720 20.5 727 c 128,-1,16
 15 734 15 734 15 740 c 0,17,18
 15 754 15 754 80 754 c 128,-1,19
 145 754 145 754 160 727 c 0,20,21
 172 706 172 706 184 685 c 128,-1,22
 196 664 196 664 203 653.5 c 128,-1,23
 210 643 210 643 216 633 c 0,24,25
 225 616 225 616 225 610 c 0,26,27
 225 595 225 595 194 595 c 0,12,13
EndSplineSet
EndChar

StartChar: iacute
Encoding: 237 237 175
Width: 265
GlyphClass: 2
Flags: W
LayerCount: 2
Fore
SplineSet
59 30 m 2,0,-1
 59 493 l 2,1,2
 59 525 59 525 119 525 c 2,3,-1
 147 525 l 2,4,5
 207 525 207 525 207 493 c 2,6,-1
 207 30 l 2,7,8
 207 -2 207 -2 147 -2 c 2,9,-1
 119 -2 l 2,10,11
 59 -2 59 -2 59 30 c 2,0,-1
88 595 m 0,12,13
 57 595 57 595 57 610 c 0,14,15
 57 620 57 620 71.5 642 c 128,-1,16
 86 664 86 664 98 685 c 128,-1,17
 110 706 110 706 122 727 c 0,18,19
 137 754 137 754 202 754 c 128,-1,20
 267 754 267 754 267 740 c 0,21,22
 267 734 267 734 261 726 c 128,-1,23
 255 718 255 718 237 699.5 c 128,-1,24
 219 681 219 681 212 673.5 c 128,-1,25
 205 666 205 666 191 650.5 c 128,-1,26
 177 635 177 635 163 620 c 0,27,28
 140 595 140 595 88 595 c 0,12,13
EndSplineSet
EndChar

StartChar: icircumflex
Encoding: 238 238 176
Width: 265
GlyphClass: 2
Flags: W
LayerCount: 2
Fore
SplineSet
59 30 m 2,0,-1
 59 493 l 2,1,2
 59 525 59 525 119 525 c 2,3,-1
 147 525 l 2,4,5
 207 525 207 525 207 493 c 2,6,-1
 207 30 l 2,7,8
 207 -2 207 -2 147 -2 c 2,9,-1
 119 -2 l 2,10,11
 59 -2 59 -2 59 30 c 2,0,-1
15 582 m 2,12,13
 -5 582 -5 582 -5 592 c 0,14,15
 -5 598 -5 598 1 607 c 2,16,-1
 66 709 l 2,17,18
 78 728 78 728 127 728 c 2,19,-1
 138 728 l 2,20,21
 187 728 187 728 199 709 c 2,22,-1
 264 607 l 2,23,24
 270 598 270 598 270 592 c 0,25,26
 270 582 270 582 250 582 c 2,27,-1
 228 582 l 2,28,29
 176 582 176 582 160 606 c 2,30,-1
 132 646 l 1,31,-1
 104 607 l 2,32,33
 86 582 86 582 37 582 c 2,34,-1
 15 582 l 2,12,13
EndSplineSet
EndChar

StartChar: idieresis
Encoding: 239 239 177
Width: 265
GlyphClass: 2
Flags: W
LayerCount: 2
Fore
SplineSet
59 30 m 2,0,-1
 59 493 l 2,1,2
 59 525 59 525 119 525 c 2,3,-1
 147 525 l 2,4,5
 207 525 207 525 207 493 c 2,6,-1
 207 30 l 2,7,8
 207 -2 207 -2 147 -2 c 2,9,-1
 119 -2 l 2,10,11
 59 -2 59 -2 59 30 c 2,0,-1
223 578 m 128,-1,13
 163 578 163 578 163 610 c 2,14,-1
 163 670 l 2,15,16
 163 702 163 702 223 702 c 128,-1,17
 283 702 283 702 283 670 c 2,18,-1
 283 610 l 2,19,12
 283 578 283 578 223 578 c 128,-1,13
43 578 m 128,-1,21
 -17 578 -17 578 -17 610 c 2,22,-1
 -17 670 l 2,23,24
 -17 702 -17 702 43 702 c 128,-1,25
 103 702 103 702 103 670 c 2,26,-1
 103 610 l 2,27,20
 103 578 103 578 43 578 c 128,-1,21
EndSplineSet
EndChar

StartChar: eth
Encoding: 240 240 178
Width: 569
GlyphClass: 2
Flags: W
LayerCount: 2
Fore
SplineSet
42 262 m 128,-1,1
 42 393 42 393 104 462 c 128,-1,2
 166 531 166 531 285 531 c 0,3,4
 304 531 304 531 336 527 c 1,5,6
 324 554 324 554 304 589 c 1,7,8
 249 581 249 581 238.5 581 c 128,-1,9
 228 581 228 581 216 594 c 128,-1,10
 204 607 204 607 204 623 c 0,11,12
 204 636 204 636 225 639 c 2,13,-1
 268 645 l 1,14,15
 264 650 264 650 253 663 c 0,16,17
 230 690 230 690 230 696 c 0,18,19
 230 705 230 705 249 708 c 2,20,-1
 311 715 l 1,21,22
 335 715 335 715 350 703 c 0,23,24
 363 693 363 693 389 661 c 1,25,26
 455 670 455 670 462.5 670 c 128,-1,27
 470 670 470 670 482 656.5 c 128,-1,28
 494 643 494 643 494 628 c 0,29,30
 494 615 494 615 473 612 c 2,31,-1
 427 606 l 1,32,33
 469 542 469 542 498 449.5 c 128,-1,34
 527 357 527 357 527 262 c 0,35,36
 527 131 527 131 465.5 61.5 c 128,-1,37
 404 -8 404 -8 285 -8 c 128,-1,38
 166 -8 166 -8 104 61.5 c 128,-1,0
 42 131 42 131 42 262 c 128,-1,1
284.5 109 m 128,-1,40
 377 109 377 109 377 261.5 c 128,-1,41
 377 414 377 414 284.5 414 c 128,-1,42
 192 414 192 414 192 261.5 c 128,-1,39
 192 109 192 109 284.5 109 c 128,-1,40
EndSplineSet
EndChar

StartChar: ntilde
Encoding: 241 241 179
Width: 557
GlyphClass: 2
Flags: W
LayerCount: 2
Fore
SplineSet
62 30 m 2,0,-1
 62 347 l 2,1,2
 62 422 62 422 56 452 c 128,-1,3
 50 482 50 482 50 488 c 0,4,5
 50 504 50 504 90.5 512 c 128,-1,6
 131 520 131 520 151 520 c 128,-1,7
 171 520 171 520 177.5 516 c 128,-1,8
 184 512 184 512 188 503.5 c 128,-1,9
 192 495 192 495 194 489.5 c 128,-1,10
 196 484 196 484 198.5 471 c 128,-1,11
 201 458 201 458 202 455 c 1,12,13
 226 487 226 487 266 509 c 128,-1,14
 306 531 306 531 351 531 c 0,15,16
 426 531 426 531 462 491.5 c 128,-1,17
 498 452 498 452 498 369 c 2,18,-1
 498 30 l 2,19,20
 498 -2 498 -2 438 -2 c 2,21,-1
 410 -2 l 2,22,23
 350 -2 350 -2 350 30 c 2,24,-1
 350 347 l 2,25,26
 350 409 350 409 290 409 c 0,27,28
 240 409 240 409 210 351 c 1,29,-1
 210 30 l 2,30,31
 210 -2 210 -2 150 -2 c 2,32,-1
 122 -2 l 2,33,34
 62 -2 62 -2 62 30 c 2,0,-1
213 615 m 1,35,-1
 168 604 l 1,36,37
 152 604 152 604 139 618.5 c 128,-1,38
 126 633 126 633 126 651.5 c 128,-1,39
 126 670 126 670 159.5 689 c 128,-1,40
 193 708 193 708 227.5 708 c 128,-1,41
 262 708 262 708 301.5 698 c 128,-1,42
 341 688 341 688 359 688 c 1,43,-1
 405 699 l 1,44,45
 420 699 420 699 433 684.5 c 128,-1,46
 446 670 446 670 446 651.5 c 128,-1,47
 446 633 446 633 412.5 614 c 128,-1,48
 379 595 379 595 344.5 595 c 128,-1,49
 310 595 310 595 270 605 c 128,-1,50
 230 615 230 615 213 615 c 1,35,-1
EndSplineSet
EndChar

StartChar: ograve
Encoding: 242 242 180
Width: 569
GlyphClass: 2
Flags: W
LayerCount: 2
Fore
SplineSet
42 262 m 128,-1,1
 42 393 42 393 104 462 c 128,-1,2
 166 531 166 531 285 531 c 128,-1,3
 404 531 404 531 465.5 462 c 128,-1,4
 527 393 527 393 527 262 c 128,-1,5
 527 131 527 131 465.5 61.5 c 128,-1,6
 404 -8 404 -8 285 -8 c 128,-1,7
 166 -8 166 -8 104 61.5 c 128,-1,0
 42 131 42 131 42 262 c 128,-1,1
284.5 109 m 128,-1,9
 377 109 377 109 377 261.5 c 128,-1,10
 377 414 377 414 284.5 414 c 128,-1,11
 192 414 192 414 192 261.5 c 128,-1,8
 192 109 192 109 284.5 109 c 128,-1,9
345 595 m 0,12,13
 293 595 293 595 266.5 624 c 128,-1,14
 240 653 240 653 208.5 686.5 c 128,-1,15
 177 720 177 720 171.5 727 c 128,-1,16
 166 734 166 734 166 740 c 0,17,18
 166 754 166 754 231 754 c 128,-1,19
 296 754 296 754 311 727 c 0,20,21
 323 706 323 706 335 685 c 128,-1,22
 347 664 347 664 354 653.5 c 128,-1,23
 361 643 361 643 366 633 c 0,24,25
 376 616 376 616 376 610 c 0,26,27
 376 595 376 595 345 595 c 0,12,13
EndSplineSet
EndChar

StartChar: oacute
Encoding: 243 243 181
Width: 569
GlyphClass: 2
Flags: W
LayerCount: 2
Fore
SplineSet
42 262 m 128,-1,1
 42 393 42 393 104 462 c 128,-1,2
 166 531 166 531 285 531 c 128,-1,3
 404 531 404 531 465.5 462 c 128,-1,4
 527 393 527 393 527 262 c 128,-1,5
 527 131 527 131 465.5 61.5 c 128,-1,6
 404 -8 404 -8 285 -8 c 128,-1,7
 166 -8 166 -8 104 61.5 c 128,-1,0
 42 131 42 131 42 262 c 128,-1,1
284.5 109 m 128,-1,9
 377 109 377 109 377 261.5 c 128,-1,10
 377 414 377 414 284.5 414 c 128,-1,11
 192 414 192 414 192 261.5 c 128,-1,8
 192 109 192 109 284.5 109 c 128,-1,9
239 595 m 0,12,13
 208 595 208 595 208 610 c 0,14,15
 208 620 208 620 222.5 642 c 128,-1,16
 237 664 237 664 249 685 c 128,-1,17
 261 706 261 706 273 727 c 0,18,19
 288 754 288 754 353 754 c 128,-1,20
 418 754 418 754 418 740 c 0,21,22
 418 734 418 734 412 726 c 128,-1,23
 406 718 406 718 388 699.5 c 128,-1,24
 370 681 370 681 363 673.5 c 128,-1,25
 356 666 356 666 342 650.5 c 128,-1,26
 328 635 328 635 314 620 c 0,27,28
 291 595 291 595 239 595 c 0,12,13
EndSplineSet
EndChar

StartChar: ocircumflex
Encoding: 244 244 182
Width: 569
GlyphClass: 2
Flags: W
LayerCount: 2
Fore
SplineSet
42 262 m 128,-1,1
 42 393 42 393 104 462 c 128,-1,2
 166 531 166 531 285 531 c 128,-1,3
 404 531 404 531 465.5 462 c 128,-1,4
 527 393 527 393 527 262 c 128,-1,5
 527 131 527 131 465.5 61.5 c 128,-1,6
 404 -8 404 -8 285 -8 c 128,-1,7
 166 -8 166 -8 104 61.5 c 128,-1,0
 42 131 42 131 42 262 c 128,-1,1
284.5 109 m 128,-1,9
 377 109 377 109 377 261.5 c 128,-1,10
 377 414 377 414 284.5 414 c 128,-1,11
 192 414 192 414 192 261.5 c 128,-1,8
 192 109 192 109 284.5 109 c 128,-1,9
166 582 m 2,12,13
 146 582 146 582 146 592 c 0,14,15
 146 598 146 598 152 607 c 2,16,-1
 217 709 l 2,17,18
 229 728 229 728 278 728 c 2,19,-1
 289 728 l 2,20,21
 338 728 338 728 350 709 c 2,22,-1
 415 607 l 2,23,24
 421 598 421 598 421 592 c 0,25,26
 421 582 421 582 401 582 c 2,27,-1
 379 582 l 2,28,29
 327 582 327 582 311 606 c 2,30,-1
 283 646 l 1,31,-1
 255 607 l 2,32,33
 237 582 237 582 188 582 c 2,34,-1
 166 582 l 2,12,13
EndSplineSet
EndChar

StartChar: otilde
Encoding: 245 245 183
Width: 569
GlyphClass: 2
Flags: W
LayerCount: 2
Fore
SplineSet
42 262 m 128,-1,1
 42 393 42 393 104 462 c 128,-1,2
 166 531 166 531 285 531 c 128,-1,3
 404 531 404 531 465.5 462 c 128,-1,4
 527 393 527 393 527 262 c 128,-1,5
 527 131 527 131 465.5 61.5 c 128,-1,6
 404 -8 404 -8 285 -8 c 128,-1,7
 166 -8 166 -8 104 61.5 c 128,-1,0
 42 131 42 131 42 262 c 128,-1,1
284.5 109 m 128,-1,9
 377 109 377 109 377 261.5 c 128,-1,10
 377 414 377 414 284.5 414 c 128,-1,11
 192 414 192 414 192 261.5 c 128,-1,8
 192 109 192 109 284.5 109 c 128,-1,9
211 615 m 1,12,-1
 166 604 l 1,13,14
 150 604 150 604 137 618.5 c 128,-1,15
 124 633 124 633 124 651.5 c 128,-1,16
 124 670 124 670 157.5 689 c 128,-1,17
 191 708 191 708 225.5 708 c 128,-1,18
 260 708 260 708 299.5 698 c 128,-1,19
 339 688 339 688 357 688 c 1,20,-1
 403 699 l 1,21,22
 418 699 418 699 431 684.5 c 128,-1,23
 444 670 444 670 444 651.5 c 128,-1,24
 444 633 444 633 410.5 614 c 128,-1,25
 377 595 377 595 342.5 595 c 128,-1,26
 308 595 308 595 268 605 c 128,-1,27
 228 615 228 615 211 615 c 1,12,-1
EndSplineSet
EndChar

StartChar: odieresis
Encoding: 246 246 184
Width: 569
GlyphClass: 2
Flags: W
LayerCount: 2
Fore
SplineSet
42 262 m 128,-1,1
 42 393 42 393 104 462 c 128,-1,2
 166 531 166 531 285 531 c 128,-1,3
 404 531 404 531 465.5 462 c 128,-1,4
 527 393 527 393 527 262 c 128,-1,5
 527 131 527 131 465.5 61.5 c 128,-1,6
 404 -8 404 -8 285 -8 c 128,-1,7
 166 -8 166 -8 104 61.5 c 128,-1,0
 42 131 42 131 42 262 c 128,-1,1
284.5 109 m 128,-1,9
 377 109 377 109 377 261.5 c 128,-1,10
 377 414 377 414 284.5 414 c 128,-1,11
 192 414 192 414 192 261.5 c 128,-1,8
 192 109 192 109 284.5 109 c 128,-1,9
374 578 m 128,-1,13
 314 578 314 578 314 610 c 2,14,-1
 314 670 l 2,15,16
 314 702 314 702 374 702 c 128,-1,17
 434 702 434 702 434 670 c 2,18,-1
 434 610 l 2,19,12
 434 578 434 578 374 578 c 128,-1,13
194 578 m 128,-1,21
 134 578 134 578 134 610 c 2,22,-1
 134 670 l 2,23,24
 134 702 134 702 194 702 c 128,-1,25
 254 702 254 702 254 670 c 2,26,-1
 254 610 l 2,27,20
 254 578 254 578 194 578 c 128,-1,21
EndSplineSet
EndChar

StartChar: divide
Encoding: 247 247 185
Width: 560
GlyphClass: 2
Flags: W
LayerCount: 2
Fore
SplineSet
214 350 m 2,0,-1
 214 421 l 2,1,2
 214 453 214 453 274 453 c 2,3,-1
 285 453 l 2,4,5
 345 453 345 453 345 421 c 2,6,-1
 345 350 l 2,7,8
 345 318 345 318 285 318 c 2,9,-1
 274 318 l 2,10,11
 214 318 214 318 214 350 c 2,0,-1
58 172 m 2,12,13
 28 172 28 172 28 222 c 2,14,-1
 28 229 l 2,15,16
 28 279 28 279 58 279 c 2,17,-1
 502 279 l 2,18,19
 532 279 532 279 532 229 c 2,20,-1
 532 222 l 2,21,22
 532 172 532 172 502 172 c 2,23,-1
 58 172 l 2,12,13
214 30 m 2,24,-1
 214 101 l 2,25,26
 214 133 214 133 274 133 c 2,27,-1
 285 133 l 2,28,29
 345 133 345 133 345 101 c 2,30,-1
 345 30 l 2,31,32
 345 -2 345 -2 285 -2 c 2,33,-1
 274 -2 l 2,34,35
 214 -2 214 -2 214 30 c 2,24,-1
EndSplineSet
EndChar

StartChar: oslash
Encoding: 248 248 186
Width: 569
GlyphClass: 2
Flags: W
LayerCount: 2
Fore
SplineSet
56.5 3 m 128,-1,1
 39 18 39 18 39 30 c 128,-1,2
 39 42 39 42 49 53 c 2,3,-1
 82 91 l 1,4,5
 42 156 42 156 42 262 c 0,6,7
 42 393 42 393 104 462 c 128,-1,8
 166 531 166 531 285 531 c 0,9,10
 371 531 371 531 428 494 c 1,11,-1
 460 531 l 2,12,13
 471 544 471 544 482.5 544 c 128,-1,14
 494 544 494 544 512 528 c 128,-1,15
 530 512 530 512 530 501.5 c 128,-1,16
 530 491 530 491 520 479 c 2,17,-1
 484 437 l 1,18,19
 527 369 527 369 527 262 c 0,20,21
 527 131 527 131 465.5 61.5 c 128,-1,22
 404 -8 404 -8 285 -8 c 0,23,24
 194 -8 194 -8 136 33 c 1,25,-1
 108 1 l 1,26,27
 98 -12 98 -12 86 -12 c 128,-1,0
 74 -12 74 -12 56.5 3 c 128,-1,1
285 414 m 0,28,29
 192 414 192 414 192 262 c 0,30,31
 192 247 192 247 194 221 c 1,32,-1
 341 393 l 1,33,34
 320 414 320 414 285 414 c 0,28,29
285 109 m 0,35,36
 377 109 377 109 377 262 c 0,37,38
 377 288 377 288 374 310 c 1,39,-1
 224 135 l 1,40,41
 247 109 247 109 285 109 c 0,35,36
EndSplineSet
EndChar

StartChar: ugrave
Encoding: 249 249 187
Width: 557
GlyphClass: 2
Flags: W
LayerCount: 2
Fore
SplineSet
59 154 m 2,0,-1
 59 493 l 2,1,2
 59 525 59 525 119 525 c 2,3,-1
 147 525 l 2,4,5
 207 525 207 525 207 493 c 2,6,-1
 207 176 l 2,7,8
 207 114 207 114 267 114 c 0,9,10
 317 114 317 114 347 172 c 1,11,-1
 347 493 l 2,12,13
 347 525 347 525 407 525 c 2,14,-1
 435 525 l 2,15,16
 495 525 495 525 495 493 c 2,17,-1
 495 176 l 2,18,19
 495 114 495 114 501 72 c 2,20,-1
 507 31 l 1,21,22
 507 15 507 15 466.5 7 c 128,-1,23
 426 -1 426 -1 406 -1 c 128,-1,24
 386 -1 386 -1 379.5 3 c 128,-1,25
 373 7 373 7 369 16.5 c 128,-1,26
 365 26 365 26 363 31.5 c 128,-1,27
 361 37 361 37 358.5 51 c 128,-1,28
 356 65 356 65 355 68 c 1,29,30
 331 36 331 36 291.5 14 c 128,-1,31
 252 -8 252 -8 206 -8 c 0,32,33
 131 -8 131 -8 95 31.5 c 128,-1,34
 59 71 59 71 59 154 c 2,0,-1
347 595 m 0,35,36
 295 595 295 595 268.5 624 c 128,-1,37
 242 653 242 653 210.5 686.5 c 128,-1,38
 179 720 179 720 173.5 727 c 128,-1,39
 168 734 168 734 168 740 c 0,40,41
 168 754 168 754 233 754 c 128,-1,42
 298 754 298 754 313 727 c 0,43,44
 325 706 325 706 337 685 c 128,-1,45
 349 664 349 664 356 653.5 c 128,-1,46
 363 643 363 643 368 633 c 0,47,48
 378 616 378 616 378 610 c 0,49,50
 378 595 378 595 347 595 c 0,35,36
EndSplineSet
EndChar

StartChar: uacute
Encoding: 250 250 188
Width: 557
GlyphClass: 2
Flags: W
LayerCount: 2
Fore
SplineSet
59 154 m 2,0,-1
 59 493 l 2,1,2
 59 525 59 525 119 525 c 2,3,-1
 147 525 l 2,4,5
 207 525 207 525 207 493 c 2,6,-1
 207 176 l 2,7,8
 207 114 207 114 267 114 c 0,9,10
 317 114 317 114 347 172 c 1,11,-1
 347 493 l 2,12,13
 347 525 347 525 407 525 c 2,14,-1
 435 525 l 2,15,16
 495 525 495 525 495 493 c 2,17,-1
 495 176 l 2,18,19
 495 114 495 114 501 72 c 2,20,-1
 507 31 l 1,21,22
 507 15 507 15 466.5 7 c 128,-1,23
 426 -1 426 -1 406 -1 c 128,-1,24
 386 -1 386 -1 379.5 3 c 128,-1,25
 373 7 373 7 369 16.5 c 128,-1,26
 365 26 365 26 363 31.5 c 128,-1,27
 361 37 361 37 358.5 51 c 128,-1,28
 356 65 356 65 355 68 c 1,29,30
 331 36 331 36 291.5 14 c 128,-1,31
 252 -8 252 -8 206 -8 c 0,32,33
 131 -8 131 -8 95 31.5 c 128,-1,34
 59 71 59 71 59 154 c 2,0,-1
241 595 m 0,35,36
 210 595 210 595 210 610 c 0,37,38
 210 620 210 620 224.5 642 c 128,-1,39
 239 664 239 664 251 685 c 128,-1,40
 263 706 263 706 275 727 c 0,41,42
 290 754 290 754 355 754 c 128,-1,43
 420 754 420 754 420 740 c 0,44,45
 420 734 420 734 414 726 c 128,-1,46
 408 718 408 718 390 699.5 c 128,-1,47
 372 681 372 681 365 673.5 c 128,-1,48
 358 666 358 666 344 650.5 c 128,-1,49
 330 635 330 635 316 620 c 0,50,51
 293 595 293 595 241 595 c 0,35,36
EndSplineSet
EndChar

StartChar: ucircumflex
Encoding: 251 251 189
Width: 557
GlyphClass: 2
Flags: W
LayerCount: 2
Fore
SplineSet
59 154 m 2,0,-1
 59 493 l 2,1,2
 59 525 59 525 119 525 c 2,3,-1
 147 525 l 2,4,5
 207 525 207 525 207 493 c 2,6,-1
 207 176 l 2,7,8
 207 114 207 114 267 114 c 0,9,10
 317 114 317 114 347 172 c 1,11,-1
 347 493 l 2,12,13
 347 525 347 525 407 525 c 2,14,-1
 435 525 l 2,15,16
 495 525 495 525 495 493 c 2,17,-1
 495 176 l 2,18,19
 495 114 495 114 501 72 c 2,20,-1
 507 31 l 1,21,22
 507 15 507 15 466.5 7 c 128,-1,23
 426 -1 426 -1 406 -1 c 128,-1,24
 386 -1 386 -1 379.5 3 c 128,-1,25
 373 7 373 7 369 16.5 c 128,-1,26
 365 26 365 26 363 31.5 c 128,-1,27
 361 37 361 37 358.5 51 c 128,-1,28
 356 65 356 65 355 68 c 1,29,30
 331 36 331 36 291.5 14 c 128,-1,31
 252 -8 252 -8 206 -8 c 0,32,33
 131 -8 131 -8 95 31.5 c 128,-1,34
 59 71 59 71 59 154 c 2,0,-1
168 582 m 2,35,36
 148 582 148 582 148 592 c 0,37,38
 148 598 148 598 154 607 c 2,39,-1
 219 709 l 2,40,41
 231 728 231 728 280 728 c 2,42,-1
 291 728 l 2,43,44
 340 728 340 728 352 709 c 2,45,-1
 417 607 l 2,46,47
 423 598 423 598 423 592 c 0,48,49
 423 582 423 582 403 582 c 2,50,-1
 381 582 l 2,51,52
 329 582 329 582 313 606 c 2,53,-1
 285 646 l 1,54,-1
 257 607 l 2,55,56
 239 582 239 582 190 582 c 2,57,-1
 168 582 l 2,35,36
EndSplineSet
EndChar

StartChar: udieresis
Encoding: 252 252 190
Width: 557
GlyphClass: 2
Flags: W
LayerCount: 2
Fore
SplineSet
59 154 m 2,0,-1
 59 493 l 2,1,2
 59 525 59 525 119 525 c 2,3,-1
 147 525 l 2,4,5
 207 525 207 525 207 493 c 2,6,-1
 207 176 l 2,7,8
 207 114 207 114 267 114 c 0,9,10
 317 114 317 114 347 172 c 1,11,-1
 347 493 l 2,12,13
 347 525 347 525 407 525 c 2,14,-1
 435 525 l 2,15,16
 495 525 495 525 495 493 c 2,17,-1
 495 176 l 2,18,19
 495 114 495 114 501 72 c 2,20,-1
 507 31 l 1,21,22
 507 15 507 15 466.5 7 c 128,-1,23
 426 -1 426 -1 406 -1 c 128,-1,24
 386 -1 386 -1 379.5 3 c 128,-1,25
 373 7 373 7 369 16.5 c 128,-1,26
 365 26 365 26 363 31.5 c 128,-1,27
 361 37 361 37 358.5 51 c 128,-1,28
 356 65 356 65 355 68 c 1,29,30
 331 36 331 36 291.5 14 c 128,-1,31
 252 -8 252 -8 206 -8 c 0,32,33
 131 -8 131 -8 95 31.5 c 128,-1,34
 59 71 59 71 59 154 c 2,0,-1
376 578 m 128,-1,36
 316 578 316 578 316 610 c 2,37,-1
 316 670 l 2,38,39
 316 702 316 702 376 702 c 128,-1,40
 436 702 436 702 436 670 c 2,41,-1
 436 610 l 2,42,35
 436 578 436 578 376 578 c 128,-1,36
196 578 m 128,-1,44
 136 578 136 578 136 610 c 2,45,-1
 136 670 l 2,46,47
 136 702 136 702 196 702 c 128,-1,48
 256 702 256 702 256 670 c 2,49,-1
 256 610 l 2,50,43
 256 578 256 578 196 578 c 128,-1,44
EndSplineSet
EndChar

StartChar: yacute
Encoding: 253 253 191
Width: 481
GlyphClass: 2
Flags: W
LayerCount: 2
Fore
SplineSet
10 503 m 0,0,1
 10 525 10 525 71 525 c 2,2,-1
 103 525 l 2,3,4
 152 525 152 525 159 504 c 2,5,-1
 218 319 l 2,6,7
 227 291 227 291 246 198 c 1,8,-1
 250 198 l 1,9,10
 270 294 270 294 278 319 c 2,11,-1
 337 504 l 2,12,13
 344 525 344 525 393 525 c 2,14,-1
 417 525 l 2,15,16
 477 525 477 525 477 503 c 0,17,18
 477 496 477 496 474 485 c 2,19,-1
 245 -185 l 2,20,21
 237 -206 237 -206 189 -206 c 2,22,-1
 172 -206 l 2,23,24
 112 -206 112 -206 112 -185 c 0,25,26
 112 -176 112 -176 116 -167 c 2,27,-1
 179 0 l 1,28,-1
 14 485 l 2,29,30
 10 499 10 499 10 503 c 0,0,1
200 595 m 0,31,32
 169 595 169 595 169 610 c 0,33,34
 169 620 169 620 183.5 642 c 128,-1,35
 198 664 198 664 210 685 c 128,-1,36
 222 706 222 706 234 727 c 0,37,38
 249 754 249 754 314 754 c 128,-1,39
 379 754 379 754 379 740 c 0,40,41
 379 734 379 734 373 726 c 128,-1,42
 367 718 367 718 349 699.5 c 128,-1,43
 331 681 331 681 324 673.5 c 128,-1,44
 317 666 317 666 303 650.5 c 128,-1,45
 289 635 289 635 275 620 c 0,46,47
 252 595 252 595 200 595 c 0,31,32
EndSplineSet
EndChar

StartChar: thorn
Encoding: 254 254 192
Width: 570
GlyphClass: 2
Flags: W
LayerCount: 2
Fore
SplineSet
65 -174 m 2,0,-1
 65 722 l 2,1,2
 65 754 65 754 125 754 c 2,3,-1
 153 754 l 2,4,5
 213 754 213 754 213 722 c 2,6,-1
 213 470 l 1,7,8
 255 531 255 531 338.5 531 c 128,-1,9
 422 531 422 531 474 459.5 c 128,-1,10
 526 388 526 388 526 262.5 c 128,-1,11
 526 137 526 137 470.5 64.5 c 128,-1,12
 415 -8 415 -8 315 -8 c 0,13,14
 256 -8 256 -8 213 23 c 1,15,-1
 213 -174 l 2,16,17
 213 -206 213 -206 153 -206 c 2,18,-1
 125 -206 l 2,19,20
 65 -206 65 -206 65 -174 c 2,0,-1
283 109 m 0,21,22
 376 109 376 109 376 259.5 c 128,-1,23
 376 410 376 410 295 410 c 0,24,25
 247 410 247 410 213 351 c 1,26,-1
 213 128 l 1,27,28
 247 109 247 109 283 109 c 0,21,22
EndSplineSet
EndChar

StartChar: ydieresis
Encoding: 255 255 193
Width: 481
GlyphClass: 2
Flags: W
LayerCount: 2
Fore
SplineSet
10 503 m 0,0,1
 10 525 10 525 71 525 c 2,2,-1
 103 525 l 2,3,4
 152 525 152 525 159 504 c 2,5,-1
 218 319 l 2,6,7
 227 291 227 291 246 198 c 1,8,-1
 250 198 l 1,9,10
 270 294 270 294 278 319 c 2,11,-1
 337 504 l 2,12,13
 344 525 344 525 393 525 c 2,14,-1
 417 525 l 2,15,16
 477 525 477 525 477 503 c 0,17,18
 477 496 477 496 474 485 c 2,19,-1
 245 -185 l 2,20,21
 237 -206 237 -206 189 -206 c 2,22,-1
 172 -206 l 2,23,24
 112 -206 112 -206 112 -185 c 0,25,26
 112 -176 112 -176 116 -167 c 2,27,-1
 179 0 l 1,28,-1
 14 485 l 2,29,30
 10 499 10 499 10 503 c 0,0,1
335 578 m 128,-1,32
 275 578 275 578 275 610 c 2,33,-1
 275 670 l 2,34,35
 275 702 275 702 335 702 c 128,-1,36
 395 702 395 702 395 670 c 2,37,-1
 395 610 l 2,38,31
 395 578 395 578 335 578 c 128,-1,32
155 578 m 128,-1,40
 95 578 95 578 95 610 c 2,41,-1
 95 670 l 2,42,43
 95 702 95 702 155 702 c 128,-1,44
 215 702 215 702 215 670 c 2,45,-1
 215 610 l 2,46,39
 215 578 215 578 155 578 c 128,-1,40
EndSplineSet
EndChar

StartChar: dotlessi
Encoding: 305 305 194
Width: 265
GlyphClass: 2
Flags: W
LayerCount: 2
Fore
SplineSet
59 30 m 2,0,-1
 59 493 l 2,1,2
 59 525 59 525 119 525 c 2,3,-1
 147 525 l 2,4,5
 207 525 207 525 207 493 c 2,6,-1
 207 30 l 2,7,8
 207 -2 207 -2 147 -2 c 2,9,-1
 119 -2 l 2,10,11
 59 -2 59 -2 59 30 c 2,0,-1
EndSplineSet
EndChar

StartChar: Lslash
Encoding: 321 321 195
Width: 486
GlyphClass: 2
Flags: W
LayerCount: 2
Fore
SplineSet
71 40 m 2,0,-1
 71 301 l 1,1,-1
 52 289 l 2,2,3
 44 284 44 284 37 284 c 0,4,5
 26 284 26 284 26 304 c 2,6,-1
 26 324 l 2,7,8
 26 353 26 353 52 369 c 2,9,-1
 71 381 l 1,10,-1
 71 670 l 2,11,12
 71 702 71 702 131 702 c 2,13,-1
 165 702 l 2,14,15
 225 702 225 702 225 670 c 2,16,-1
 225 475 l 1,17,-1
 312 528 l 2,18,19
 321 534 321 534 327 534 c 0,20,21
 338 534 338 534 338 514 c 2,22,-1
 338 494 l 2,23,24
 338 464 338 464 312 448 c 2,25,-1
 225 395 l 1,26,-1
 225 131 l 1,27,-1
 448 131 l 2,28,29
 478 131 478 131 478 81 c 2,30,-1
 478 50 l 2,31,32
 478 0 478 0 448 0 c 2,33,-1
 111 0 l 2,34,35
 71 0 71 0 71 40 c 2,0,-1
EndSplineSet
EndChar

StartChar: lslash
Encoding: 322 322 196
Width: 293
GlyphClass: 2
Flags: W
LayerCount: 2
Fore
SplineSet
243 109 m 1,0,-1
 270 113 l 1,1,2
 283 113 283 113 292 83.5 c 128,-1,3
 301 54 301 54 301 41 c 0,4,5
 301 -8 301 -8 205 -8 c 0,6,7
 59 -8 59 -8 59 154 c 2,8,-1
 59 323 l 1,9,-1
 37 310 l 2,10,11
 27 304 27 304 21 304 c 0,12,13
 11 304 11 304 11 324 c 2,14,-1
 11 344 l 2,15,16
 11 374 11 374 37 390 c 2,17,-1
 59 403 l 1,18,-1
 59 722 l 2,19,20
 59 754 59 754 119 754 c 2,21,-1
 147 754 l 2,22,23
 207 754 207 754 207 722 c 2,24,-1
 207 492 l 1,25,-1
 231 507 l 1,26,27
 241 512 241 512 246 512 c 0,28,29
 257 512 257 512 257 492 c 2,30,-1
 257 472 l 2,31,32
 257 443 257 443 231 427 c 2,33,-1
 207 412 l 1,34,-1
 207 152 l 2,35,36
 207 109 207 109 243 109 c 1,0,-1
EndSplineSet
EndChar

StartChar: OE
Encoding: 338 338 197
Width: 1021
GlyphClass: 2
Flags: W
LayerCount: 2
Fore
SplineSet
45 350 m 128,-1,1
 45 523 45 523 125.5 615.5 c 128,-1,2
 206 708 206 708 356 708 c 0,3,4
 457 708 457 708 530 662 c 1,5,6
 530 700 530 700 570 700 c 2,7,-1
 936 700 l 2,8,9
 966 700 966 700 966 650 c 2,10,-1
 966 619 l 2,11,12
 966 569 966 569 936 569 c 2,13,-1
 684 569 l 1,14,-1
 684 424 l 1,15,-1
 909 424 l 2,16,17
 939 424 939 424 939 374 c 2,18,-1
 939 343 l 2,19,20
 939 293 939 293 909 293 c 2,21,-1
 684 293 l 1,22,-1
 684 131 l 1,23,-1
 937 131 l 2,24,25
 967 131 967 131 967 81 c 2,26,-1
 967 50 l 2,27,28
 967 0 967 0 937 0 c 2,29,-1
 570 0 l 2,30,31
 531 0 531 0 530 37 c 1,32,33
 456 -8 456 -8 356 -8 c 0,34,35
 206 -8 206 -8 125.5 84.5 c 128,-1,0
 45 177 45 177 45 350 c 128,-1,1
366 123 m 128,-1,37
 446 123 446 123 487 181 c 128,-1,38
 528 239 528 239 528 350 c 128,-1,39
 528 461 528 461 487 518.5 c 128,-1,40
 446 576 446 576 366 576 c 128,-1,41
 286 576 286 576 244.5 518.5 c 128,-1,42
 203 461 203 461 203 350 c 128,-1,43
 203 239 203 239 244.5 181 c 128,-1,36
 286 123 286 123 366 123 c 128,-1,37
EndSplineSet
EndChar

StartChar: oe
Encoding: 339 339 198
Width: 871
GlyphClass: 2
Flags: W
LayerCount: 2
Fore
SplineSet
41 262 m 128,-1,1
 41 393 41 393 103 462 c 128,-1,2
 165 531 165 531 275 531 c 128,-1,3
 385 531 385 531 451 470 c 1,4,5
 518 531 518 531 624.5 531 c 128,-1,6
 731 531 731 531 783.5 459 c 128,-1,7
 836 387 836 387 836 273 c 0,8,9
 836 261 836 261 815.5 237.5 c 128,-1,10
 795 214 795 214 785 214 c 2,11,-1
 530 214 l 1,12,13
 535 157 535 157 564 133 c 128,-1,14
 593 109 593 109 638 109 c 128,-1,15
 683 109 683 109 724 124.5 c 128,-1,16
 765 140 765 140 766 140 c 0,17,18
 781 140 781 140 799.5 110.5 c 128,-1,19
 818 81 818 81 818 64 c 0,20,21
 818 31 818 31 755.5 11.5 c 128,-1,22
 693 -8 693 -8 638 -8 c 0,23,24
 524 -8 524 -8 454 54 c 1,25,26
 387 -8 387 -8 276 -8 c 128,-1,27
 165 -8 165 -8 103 61.5 c 128,-1,0
 41 131 41 131 41 262 c 128,-1,1
692 313 m 1,28,29
 692 359 692 359 674 386.5 c 128,-1,30
 656 414 656 414 620 414 c 0,31,32
 546 414 546 414 530 313 c 1,33,-1
 692 313 l 1,28,29
283.5 109 m 128,-1,35
 376 109 376 109 376 261.5 c 128,-1,36
 376 414 376 414 283.5 414 c 128,-1,37
 191 414 191 414 191 261.5 c 128,-1,34
 191 109 191 109 283.5 109 c 128,-1,35
EndSplineSet
EndChar

StartChar: Scaron
Encoding: 352 352 199
Width: 500
GlyphClass: 2
Flags: W
LayerCount: 2
Fore
SplineSet
22 80 m 0,0,1
 22 103 22 103 45 136 c 128,-1,2
 68 169 68 169 84 169 c 0,3,4
 90 169 90 169 110 158 c 0,5,6
 172 123 172 123 231 123 c 0,7,8
 325 123 325 123 325 196 c 0,9,10
 325 228 325 228 295 250 c 128,-1,11
 265 272 265 272 222.5 288.5 c 128,-1,12
 180 305 180 305 138 326.5 c 128,-1,13
 96 348 96 348 66 393 c 128,-1,14
 36 438 36 438 36 505.5 c 128,-1,15
 36 573 36 573 72 621 c 0,16,17
 137 708 137 708 273 708 c 0,18,19
 349 708 349 708 401 686 c 128,-1,20
 453 664 453 664 453 638 c 0,21,22
 453 616 453 616 434 583.5 c 128,-1,23
 415 551 415 551 398 551 c 0,24,25
 394 551 394 551 380 558 c 0,26,27
 340 576 340 576 287.5 576 c 128,-1,28
 235 576 235 576 214.5 558 c 128,-1,29
 194 540 194 540 194 513 c 128,-1,30
 194 486 194 486 224 465 c 128,-1,31
 254 444 254 444 296 428 c 128,-1,32
 338 412 338 412 380.5 390.5 c 128,-1,33
 423 369 423 369 453 324 c 128,-1,34
 483 279 483 279 483 216.5 c 128,-1,35
 483 154 483 154 463.5 109.5 c 128,-1,36
 444 65 444 65 410 40 c 0,37,38
 344 -8 344 -8 248 -8 c 128,-1,39
 152 -8 152 -8 87 21 c 128,-1,40
 22 50 22 50 22 80 c 0,0,1
245 785 m 2,41,42
 196 785 196 785 184 804 c 2,43,-1
 119 906 l 2,44,45
 113 915 113 915 113 921 c 0,46,47
 113 931 113 931 133 931 c 2,48,-1
 155 931 l 2,49,50
 204 931 204 931 222 906 c 2,51,-1
 250 867 l 1,52,-1
 278 907 l 2,53,54
 294 931 294 931 346 931 c 2,55,-1
 368 931 l 2,56,57
 388 931 388 931 388 921 c 0,58,59
 388 915 388 915 382 906 c 2,60,-1
 317 804 l 2,61,62
 305 785 305 785 256 785 c 2,63,-1
 245 785 l 2,41,42
EndSplineSet
EndChar

StartChar: scaron
Encoding: 353 353 200
Width: 413
GlyphClass: 2
Flags: W
LayerCount: 2
Fore
SplineSet
31 63 m 0,0,1
 31 79 31 79 50 108 c 128,-1,2
 69 137 69 137 84 137 c 0,3,4
 86 137 86 137 120 123 c 128,-1,5
 154 109 154 109 182 109 c 0,6,7
 243 109 243 109 243 154 c 0,8,9
 243 178 243 178 222.5 192.5 c 128,-1,10
 202 207 202 207 172.5 217 c 128,-1,11
 143 227 143 227 113.5 241 c 128,-1,12
 84 255 84 255 63.5 287 c 128,-1,13
 43 319 43 319 43 369 c 0,14,15
 43 444 43 444 92.5 487.5 c 128,-1,16
 142 531 142 531 227 531 c 0,17,18
 267 531 267 531 303 523 c 0,19,20
 375 507 375 507 375 468 c 0,21,22
 375 455 375 455 360 424.5 c 128,-1,23
 345 394 345 394 332 394 c 0,24,25
 331 394 331 394 302.5 404.5 c 128,-1,26
 274 415 274 415 247 415 c 0,27,28
 193 415 193 415 193 379 c 0,29,30
 193 359 193 359 213.5 346.5 c 128,-1,31
 234 334 234 334 263.5 323.5 c 128,-1,32
 293 313 293 313 322.5 297.5 c 128,-1,33
 352 282 352 282 372.5 248.5 c 128,-1,34
 393 215 393 215 393 166 c 0,35,36
 393 87 393 87 341.5 39.5 c 128,-1,37
 290 -8 290 -8 212.5 -8 c 128,-1,38
 135 -8 135 -8 83 10.5 c 128,-1,39
 31 29 31 29 31 63 c 0,0,1
215 582 m 2,40,41
 166 582 166 582 154 601 c 2,42,-1
 89 703 l 2,43,44
 83 712 83 712 83 718 c 0,45,46
 83 728 83 728 103 728 c 2,47,-1
 125 728 l 2,48,49
 174 728 174 728 192 703 c 2,50,-1
 220 664 l 1,51,-1
 248 704 l 2,52,53
 264 728 264 728 316 728 c 2,54,-1
 338 728 l 2,55,56
 358 728 358 728 358 718 c 0,57,58
 358 712 358 712 352 703 c 2,59,-1
 287 601 l 2,60,61
 275 582 275 582 226 582 c 2,62,-1
 215 582 l 2,40,41
EndSplineSet
EndChar

StartChar: Ydieresis
Encoding: 376 376 201
Width: 559
GlyphClass: 2
Flags: W
LayerCount: 2
Fore
SplineSet
203 30 m 2,0,-1
 203 336 l 1,1,-1
 4 657 l 2,2,3
 -6 674 -6 674 -6 682 c 0,4,5
 -6 702 -6 702 58 702 c 2,6,-1
 101 702 l 2,7,8
 150 702 150 702 161 683 c 2,9,-1
 283 469 l 1,10,-1
 406 683 l 2,11,12
 417 702 417 702 466 702 c 2,13,-1
 502 702 l 2,14,15
 565 702 565 702 565 682 c 0,16,17
 565 672 565 672 556 657 c 2,18,-1
 357 333 l 1,19,-1
 357 30 l 2,20,21
 357 -2 357 -2 297 -2 c 2,22,-1
 263 -2 l 2,23,24
 203 -2 203 -2 203 30 c 2,0,-1
367 758 m 128,-1,26
 307 758 307 758 307 790 c 2,27,-1
 307 850 l 2,28,29
 307 882 307 882 367 882 c 128,-1,30
 427 882 427 882 427 850 c 2,31,-1
 427 790 l 2,32,25
 427 758 427 758 367 758 c 128,-1,26
187 758 m 128,-1,34
 127 758 127 758 127 790 c 2,35,-1
 127 850 l 2,36,37
 127 882 127 882 187 882 c 128,-1,38
 247 882 247 882 247 850 c 2,39,-1
 247 790 l 2,40,33
 247 758 247 758 187 758 c 128,-1,34
EndSplineSet
EndChar

StartChar: Zcaron
Encoding: 381 381 202
Width: 616
GlyphClass: 2
Flags: W
LayerCount: 2
Fore
SplineSet
66 0 m 2,0,1
 54 0 54 0 40.5 33.5 c 128,-1,2
 27 67 27 67 27 81 c 128,-1,3
 27 95 27 95 29 99 c 2,4,-1
 364 569 l 1,5,-1
 86 569 l 2,6,7
 56 569 56 569 56 619 c 2,8,-1
 56 650 l 2,9,10
 56 700 56 700 86 700 c 2,11,-1
 543 700 l 2,12,13
 554 700 554 700 567 665 c 128,-1,14
 580 630 580 630 580 616 c 128,-1,15
 580 602 580 602 579 600 c 2,16,-1
 245 131 l 1,17,-1
 550 131 l 2,18,19
 580 131 580 131 580 81 c 2,20,-1
 580 50 l 2,21,22
 580 0 580 0 550 0 c 2,23,-1
 66 0 l 2,0,1
297 762 m 2,24,25
 248 762 248 762 236 781 c 2,26,-1
 171 883 l 2,27,28
 165 892 165 892 165 898 c 0,29,30
 165 908 165 908 185 908 c 2,31,-1
 207 908 l 2,32,33
 256 908 256 908 274 883 c 2,34,-1
 302 844 l 1,35,-1
 330 884 l 2,36,37
 346 908 346 908 398 908 c 2,38,-1
 420 908 l 2,39,40
 440 908 440 908 440 898 c 0,41,42
 440 892 440 892 434 883 c 2,43,-1
 369 781 l 2,44,45
 357 762 357 762 308 762 c 2,46,-1
 297 762 l 2,24,25
EndSplineSet
EndChar

StartChar: zcaron
Encoding: 382 382 203
Width: 489
GlyphClass: 2
Flags: W
LayerCount: 2
Fore
SplineSet
56 0 m 2,0,1
 47 0 47 0 37 27.5 c 128,-1,2
 27 55 27 55 27 70.5 c 128,-1,3
 27 86 27 86 30 90 c 2,4,-1
 259 406 l 1,5,-1
 73 406 l 2,6,7
 43 406 43 406 43 456 c 2,8,-1
 43 473 l 2,9,10
 43 523 43 523 73 523 c 2,11,-1
 427 523 l 2,12,13
 435 523 435 523 445.5 495 c 128,-1,14
 456 467 456 467 456 451.5 c 128,-1,15
 456 436 456 436 453 431 c 2,16,-1
 225 117 l 1,17,-1
 430 117 l 2,18,19
 460 117 460 117 460 67 c 2,20,-1
 460 50 l 2,21,22
 460 0 460 0 430 0 c 2,23,-1
 56 0 l 2,0,1
244 582 m 2,24,25
 195 582 195 582 183 601 c 2,26,-1
 118 703 l 2,27,28
 112 712 112 712 112 718 c 0,29,30
 112 728 112 728 132 728 c 2,31,-1
 154 728 l 2,32,33
 203 728 203 728 221 703 c 2,34,-1
 249 664 l 1,35,-1
 277 704 l 2,36,37
 293 728 293 728 345 728 c 2,38,-1
 367 728 l 2,39,40
 387 728 387 728 387 718 c 0,41,42
 387 712 387 712 381 703 c 2,43,-1
 316 601 l 2,44,45
 304 582 304 582 255 582 c 2,46,-1
 244 582 l 2,24,25
EndSplineSet
EndChar

StartChar: florin
Encoding: 402 402 204
Width: 332
GlyphClass: 2
Flags: W
LayerCount: 2
Fore
SplineSet
316 639 m 1,0,-1
 286 643 l 1,1,2
 250 643 250 643 244 600 c 2,3,-1
 233 523 l 1,4,-1
 283 523 l 2,5,6
 307 523 307 523 307 492 c 0,7,8
 307 479 307 479 303 455 c 0,9,10
 295 406 295 406 266 406 c 2,11,-1
 216 406 l 1,12,-1
 135 -175 l 2,13,14
 130 -207 130 -207 71 -207 c 2,15,-1
 43 -207 l 2,16,17
 10 -207 10 -207 -1.5 -199.5 c 128,-1,18
 -13 -192 -13 -192 -13 -175 c 1,19,-1
 68 406 l 1,20,-1
 50 406 l 2,21,22
 25 406 25 406 25 437 c 0,23,24
 25 488 25 488 44 511 c 0,25,26
 53 523 53 523 67 523 c 2,27,-1
 85 523 l 1,28,-1
 95 598 l 2,29,30
 117 760 117 760 264 760 c 0,31,32
 357 760 357 760 357 711 c 0,33,34
 357 696 357 696 343 667.5 c 128,-1,35
 329 639 329 639 316 639 c 1,0,-1
EndSplineSet
EndChar

StartChar: circumflex
Encoding: 710 710 205
Width: 320
GlyphClass: 2
Flags: W
LayerCount: 2
Fore
SplineSet
39 582 m 2,0,1
 19 582 19 582 19 592 c 0,2,3
 19 598 19 598 25 607 c 2,4,-1
 90 709 l 2,5,6
 102 728 102 728 151 728 c 2,7,-1
 162 728 l 2,8,9
 211 728 211 728 223 709 c 2,10,-1
 288 607 l 2,11,12
 294 598 294 598 294 592 c 0,13,14
 294 582 294 582 274 582 c 2,15,-1
 252 582 l 2,16,17
 200 582 200 582 184 606 c 2,18,-1
 156 646 l 1,19,-1
 128 607 l 2,20,21
 110 582 110 582 61 582 c 2,22,-1
 39 582 l 2,0,1
EndSplineSet
EndChar

StartChar: caron
Encoding: 711 711 206
Width: 320
GlyphClass: 2
Flags: W
LayerCount: 2
Fore
SplineSet
151 582 m 2,0,1
 102 582 102 582 90 601 c 2,2,-1
 25 703 l 2,3,4
 19 712 19 712 19 718 c 0,5,6
 19 728 19 728 39 728 c 2,7,-1
 61 728 l 2,8,9
 110 728 110 728 128 703 c 2,10,-1
 156 664 l 1,11,-1
 184 704 l 2,12,13
 200 728 200 728 252 728 c 2,14,-1
 274 728 l 2,15,16
 294 728 294 728 294 718 c 0,17,18
 294 712 294 712 288 703 c 2,19,-1
 223 601 l 2,20,21
 211 582 211 582 162 582 c 2,22,-1
 151 582 l 2,0,1
EndSplineSet
EndChar

StartChar: breve
Encoding: 728 728 207
Width: 320
GlyphClass: 2
Flags: W
LayerCount: 2
Fore
SplineSet
158 575 m 128,-1,1
 95 575 95 575 53 609 c 128,-1,2
 11 643 11 643 11 687 c 0,3,4
 11 715 11 715 46 715 c 0,5,6
 68 715 68 715 84 690 c 1,7,8
 91 681 91 681 110 673.5 c 128,-1,9
 129 666 129 666 158 666 c 128,-1,10
 187 666 187 666 206 673.5 c 128,-1,11
 225 681 225 681 232 690 c 1,12,13
 248 715 248 715 270 715 c 0,14,15
 305 715 305 715 305 687 c 0,16,17
 305 643 305 643 263 609 c 128,-1,0
 221 575 221 575 158 575 c 128,-1,1
EndSplineSet
EndChar

StartChar: dotaccent
Encoding: 729 729 208
Width: 320
GlyphClass: 2
Flags: W
LayerCount: 2
Fore
SplineSet
162 578 m 128,-1,1
 102 578 102 578 102 610 c 2,2,-1
 102 670 l 2,3,4
 102 702 102 702 162 702 c 128,-1,5
 222 702 222 702 222 670 c 2,6,-1
 222 610 l 2,7,0
 222 578 222 578 162 578 c 128,-1,1
EndSplineSet
EndChar

StartChar: ring
Encoding: 730 730 209
Width: 320
GlyphClass: 2
Flags: W
LayerCount: 2
Fore
SplineSet
160 550 m 128,-1,1
 118 550 118 550 89.5 578.5 c 128,-1,2
 61 607 61 607 61 649 c 128,-1,3
 61 691 61 691 89.5 720 c 128,-1,4
 118 749 118 749 160 749 c 128,-1,5
 202 749 202 749 231 720 c 128,-1,6
 260 691 260 691 260 649 c 128,-1,7
 260 607 260 607 231 578.5 c 128,-1,0
 202 550 202 550 160 550 c 128,-1,1
160 612 m 128,-1,9
 175 612 175 612 186 622.5 c 128,-1,10
 197 633 197 633 197 648 c 128,-1,11
 197 663 197 663 186 674 c 128,-1,12
 175 685 175 685 160 685 c 128,-1,13
 145 685 145 685 134.5 674 c 128,-1,14
 124 663 124 663 124 648 c 128,-1,15
 124 633 124 633 134.5 622.5 c 128,-1,8
 145 612 145 612 160 612 c 128,-1,9
EndSplineSet
EndChar

StartChar: ogonek
Encoding: 731 731 210
Width: 320
GlyphClass: 2
Flags: W
LayerCount: 2
Fore
SplineSet
58 -109.5 m 128,-1,1
 54 -95 54 -95 54 -79.5 c 128,-1,2
 54 -64 54 -64 57.5 -45 c 128,-1,3
 61 -26 61 -26 75 -6 c 128,-1,4
 89 14 89 14 110.5 14 c 128,-1,5
 132 14 132 14 132 -5 c 0,6,7
 132 -11 132 -11 126.5 -28.5 c 128,-1,8
 121 -46 121 -46 121 -62 c 0,9,10
 121 -113 121 -113 183 -113 c 0,11,12
 196 -113 196 -113 210 -109 c 128,-1,13
 224 -105 224 -105 232 -105 c 0,14,15
 254 -105 254 -105 254 -133 c 0,16,17
 254 -183 254 -183 172 -183 c 0,18,19
 135 -183 135 -183 109 -171.5 c 128,-1,20
 83 -160 83 -160 72.5 -142 c 128,-1,0
 62 -124 62 -124 58 -109.5 c 128,-1,1
EndSplineSet
EndChar

StartChar: tilde
Encoding: 732 732 211
Width: 365
GlyphClass: 2
Flags: W
LayerCount: 2
Fore
SplineSet
110 615 m 1,0,-1
 65 604 l 1,1,2
 49 604 49 604 36 618.5 c 128,-1,3
 23 633 23 633 23 651.5 c 128,-1,4
 23 670 23 670 56.5 689 c 128,-1,5
 90 708 90 708 124.5 708 c 128,-1,6
 159 708 159 708 198.5 698 c 128,-1,7
 238 688 238 688 256 688 c 1,8,-1
 302 699 l 1,9,10
 317 699 317 699 330 684.5 c 128,-1,11
 343 670 343 670 343 651.5 c 128,-1,12
 343 633 343 633 309.5 614 c 128,-1,13
 276 595 276 595 241.5 595 c 128,-1,14
 207 595 207 595 167 605 c 128,-1,15
 127 615 127 615 110 615 c 1,0,-1
EndSplineSet
EndChar

StartChar: hungarumlaut
Encoding: 733 733 212
Width: 384
GlyphClass: 2
Flags: W
LayerCount: 2
Fore
SplineSet
206 595 m 0,0,1
 175 595 175 595 175 610 c 0,2,3
 175 620 175 620 189.5 642 c 128,-1,4
 204 664 204 664 216 685 c 128,-1,5
 228 706 228 706 240 727 c 0,6,7
 255 754 255 754 320 754 c 128,-1,8
 385 754 385 754 385 740 c 0,9,10
 385 734 385 734 379 726 c 128,-1,11
 373 718 373 718 355 699.5 c 128,-1,12
 337 681 337 681 330 673.5 c 128,-1,13
 323 666 323 666 309 650.5 c 128,-1,14
 295 635 295 635 281 620 c 0,15,16
 258 595 258 595 206 595 c 0,0,1
23 595 m 0,17,18
 -8 595 -8 595 -8 610 c 0,19,20
 -8 620 -8 620 6.5 642 c 128,-1,21
 21 664 21 664 33 685 c 128,-1,22
 45 706 45 706 57 727 c 0,23,24
 72 754 72 754 137 754 c 128,-1,25
 202 754 202 754 202 740 c 0,26,27
 202 734 202 734 196 726 c 128,-1,28
 190 718 190 718 172 699.5 c 128,-1,29
 154 681 154 681 147 673.5 c 128,-1,30
 140 666 140 666 126 650.5 c 128,-1,31
 112 635 112 635 98 620 c 0,32,33
 75 595 75 595 23 595 c 0,17,18
EndSplineSet
EndChar

StartChar: pi
Encoding: 960 960 213
Width: 616
GlyphClass: 2
Flags: W
LayerCount: 2
Fore
SplineSet
58 21 m 0,0,1
 58 23 58 23 60 31 c 0,2,3
 86 106 86 106 106 211 c 128,-1,4
 126 316 126 316 130 406 c 1,5,6
 87 406 87 406 65 400 c 128,-1,7
 43 394 43 394 41 394 c 0,8,9
 25 394 25 394 16 415 c 0,10,11
 5 441 5 441 5 473 c 0,12,13
 5 523 5 523 162 523 c 2,14,-1
 567 523 l 2,15,16
 601 523 601 523 601 492 c 0,17,18
 601 489 601 489 597 439 c 0,19,20
 594 406 594 406 560 406 c 2,21,-1
 513 406 l 1,22,-1
 513 154 l 2,23,24
 513 106 513 106 515.5 83.5 c 128,-1,25
 518 61 518 61 519 50.5 c 128,-1,26
 520 40 520 40 521 34.5 c 128,-1,27
 522 29 522 29 522 28 c 0,28,29
 522 -2 522 -2 461 -2 c 2,30,-1
 434 -2 l 2,31,32
 368 -2 368 -2 368 119 c 2,33,-1
 368 406 l 1,34,-1
 275 406 l 1,35,36
 270 311 270 311 250 200.5 c 128,-1,37
 230 90 230 90 204 27 c 0,38,39
 192 -2 192 -2 134 -2 c 2,40,-1
 121 -2 l 2,41,42
 92 -2 92 -2 75 4.5 c 128,-1,43
 58 11 58 11 58 21 c 0,0,1
EndSplineSet
EndChar

StartChar: endash
Encoding: 8211 8211 214
Width: 500
GlyphClass: 2
Flags: W
LayerCount: 2
Fore
SplineSet
30 212 m 2,0,1
 0 212 0 212 0 262 c 2,2,-1
 0 269 l 2,3,4
 0 319 0 319 30 319 c 2,5,-1
 470 319 l 2,6,7
 500 319 500 319 500 269 c 2,8,-1
 500 262 l 2,9,10
 500 212 500 212 470 212 c 2,11,-1
 30 212 l 2,0,1
EndSplineSet
EndChar

StartChar: emdash
Encoding: 8212 8212 215
Width: 1000
GlyphClass: 2
Flags: W
LayerCount: 2
Fore
SplineSet
30 212 m 2,0,1
 0 212 0 212 0 262 c 2,2,-1
 0 269 l 2,3,4
 0 319 0 319 30 319 c 2,5,-1
 970 319 l 2,6,7
 1000 319 1000 319 1000 269 c 2,8,-1
 1000 262 l 2,9,10
 1000 212 1000 212 970 212 c 2,11,-1
 30 212 l 2,0,1
EndSplineSet
EndChar

StartChar: quoteleft
Encoding: 8216 8216 216
Width: 212
GlyphClass: 2
Flags: W
LayerCount: 2
Fore
SplineSet
71 478 m 2,0,1
 11 478 11 478 11 522 c 0,2,3
 11 575 11 575 36.5 631.5 c 128,-1,4
 62 688 62 688 94.5 722.5 c 128,-1,5
 127 757 127 757 146 757 c 128,-1,6
 165 757 165 757 179.5 751.5 c 128,-1,7
 194 746 194 746 194 735.5 c 128,-1,8
 194 725 194 725 183 700 c 0,9,10
 150 623 150 623 150 522 c 0,11,12
 150 478 150 478 90 478 c 2,13,-1
 71 478 l 2,0,1
EndSplineSet
EndChar

StartChar: quoteright
Encoding: 8217 8217 217
Width: 212
GlyphClass: 2
Flags: W
LayerCount: 2
Fore
SplineSet
118.5 512.5 m 128,-1,1
 86 478 86 478 67 478 c 128,-1,2
 48 478 48 478 33.5 483.5 c 128,-1,3
 19 489 19 489 19 499.5 c 128,-1,4
 19 510 19 510 30 536 c 0,5,6
 63 612 63 612 63 713 c 0,7,8
 63 757 63 757 123 757 c 2,9,-1
 142 757 l 2,10,11
 202 757 202 757 202 713 c 0,12,13
 202 660 202 660 176.5 603.5 c 128,-1,0
 151 547 151 547 118.5 512.5 c 128,-1,1
EndSplineSet
EndChar

StartChar: quotesinglbase
Encoding: 8218 8218 218
Width: 198
GlyphClass: 2
Flags: W
LayerCount: 2
Fore
SplineSet
26.5 -119.5 m 128,-1,1
 12 -114 12 -114 12 -103.5 c 128,-1,2
 12 -93 12 -93 23 -68 c 0,3,4
 56 9 56 9 56 110 c 0,5,6
 56 154 56 154 116 154 c 2,7,-1
 135 154 l 2,8,9
 195 154 195 154 195 110 c 0,10,11
 195 57 195 57 169.5 0.5 c 128,-1,12
 144 -56 144 -56 111.5 -90.5 c 128,-1,13
 79 -125 79 -125 60 -125 c 128,-1,0
 41 -125 41 -125 26.5 -119.5 c 128,-1,1
EndSplineSet
EndChar

StartChar: quotedblleft
Encoding: 8220 8220 219
Width: 350
GlyphClass: 2
Flags: W
LayerCount: 2
Fore
SplineSet
229 478 m 2,0,1
 169 478 169 478 169 522 c 0,2,3
 169 575 169 575 194.5 631.5 c 128,-1,4
 220 688 220 688 252.5 722.5 c 128,-1,5
 285 757 285 757 304 757 c 128,-1,6
 323 757 323 757 337.5 751.5 c 128,-1,7
 352 746 352 746 352 735.5 c 128,-1,8
 352 725 352 725 341 700 c 0,9,10
 308 623 308 623 308 522 c 0,11,12
 308 478 308 478 248 478 c 2,13,-1
 229 478 l 2,0,1
51 478 m 2,14,15
 -9 478 -9 478 -9 522 c 0,16,17
 -9 575 -9 575 16.5 631.5 c 128,-1,18
 42 688 42 688 74.5 722.5 c 128,-1,19
 107 757 107 757 126 757 c 128,-1,20
 145 757 145 757 159.5 751.5 c 128,-1,21
 174 746 174 746 174 735.5 c 128,-1,22
 174 725 174 725 163 700 c 0,23,24
 130 623 130 623 130 522 c 0,25,26
 130 478 130 478 70 478 c 2,27,-1
 51 478 l 2,14,15
EndSplineSet
EndChar

StartChar: quotedblright
Encoding: 8221 8221 220
Width: 350
GlyphClass: 2
Flags: W
LayerCount: 2
Fore
SplineSet
277.5 512.5 m 128,-1,1
 245 478 245 478 226 478 c 128,-1,2
 207 478 207 478 192.5 483.5 c 128,-1,3
 178 489 178 489 178 499.5 c 128,-1,4
 178 510 178 510 189 536 c 0,5,6
 222 612 222 612 222 713 c 0,7,8
 222 757 222 757 282 757 c 2,9,-1
 301 757 l 2,10,11
 361 757 361 757 361 713 c 0,12,13
 361 660 361 660 335.5 603.5 c 128,-1,0
 310 547 310 547 277.5 512.5 c 128,-1,1
99.5 512.5 m 128,-1,15
 67 478 67 478 48 478 c 128,-1,16
 29 478 29 478 14.5 483.5 c 128,-1,17
 0 489 0 489 0 499.5 c 128,-1,18
 0 510 0 510 11 536 c 0,19,20
 44 612 44 612 44 713 c 0,21,22
 44 757 44 757 104 757 c 2,23,-1
 123 757 l 2,24,25
 183 757 183 757 183 713 c 0,26,27
 183 660 183 660 157.5 603.5 c 128,-1,14
 132 547 132 547 99.5 512.5 c 128,-1,15
EndSplineSet
EndChar

StartChar: quotedblbase
Encoding: 8222 8222 221
Width: 336
GlyphClass: 2
Flags: W
LayerCount: 2
Fore
SplineSet
184.5 -119.5 m 128,-1,1
 170 -114 170 -114 170 -103.5 c 128,-1,2
 170 -93 170 -93 181 -68 c 0,3,4
 214 9 214 9 214 110 c 0,5,6
 214 154 214 154 274 154 c 2,7,-1
 293 154 l 2,8,9
 353 154 353 154 353 110 c 0,10,11
 353 57 353 57 327.5 0.5 c 128,-1,12
 302 -56 302 -56 269.5 -90.5 c 128,-1,13
 237 -125 237 -125 218 -125 c 128,-1,0
 199 -125 199 -125 184.5 -119.5 c 128,-1,1
6.5 -119.5 m 128,-1,15
 -8 -114 -8 -114 -8 -103.5 c 128,-1,16
 -8 -93 -8 -93 3 -68 c 0,17,18
 36 9 36 9 36 110 c 0,19,20
 36 154 36 154 96 154 c 2,21,-1
 115 154 l 2,22,23
 175 154 175 154 175 110 c 0,24,25
 175 57 175 57 149.5 0.5 c 128,-1,26
 124 -56 124 -56 91.5 -90.5 c 128,-1,27
 59 -125 59 -125 40 -125 c 128,-1,14
 21 -125 21 -125 6.5 -119.5 c 128,-1,15
EndSplineSet
EndChar

StartChar: dagger
Encoding: 8224 8224 222
Width: 535
GlyphClass: 2
Flags: W
LayerCount: 2
Fore
SplineSet
210 -108 m 2,0,-1
 210 410 l 1,1,-1
 76 410 l 2,2,3
 46 410 46 410 46 460 c 2,4,-1
 46 467 l 2,5,6
 46 517 46 517 76 517 c 2,7,-1
 210 517 l 1,8,-1
 210 670 l 2,9,10
 210 702 210 702 260 702 c 2,11,-1
 275 702 l 2,12,13
 325 702 325 702 325 670 c 2,14,-1
 325 517 l 1,15,-1
 459 517 l 2,16,17
 489 517 489 517 489 467 c 2,18,-1
 489 460 l 2,19,20
 489 410 489 410 459 410 c 2,21,-1
 325 410 l 1,22,-1
 325 -108 l 2,23,24
 325 -140 325 -140 275 -140 c 2,25,-1
 260 -140 l 2,26,27
 210 -140 210 -140 210 -108 c 2,0,-1
EndSplineSet
EndChar

StartChar: daggerdbl
Encoding: 8225 8225 223
Width: 535
GlyphClass: 2
Flags: W
LayerCount: 2
Fore
SplineSet
76 42 m 2,0,1
 46 42 46 42 46 92 c 2,2,-1
 46 99 l 2,3,4
 46 149 46 149 76 149 c 2,5,-1
 210 149 l 1,6,-1
 210 410 l 1,7,-1
 76 410 l 2,8,9
 46 410 46 410 46 460 c 2,10,-1
 46 467 l 2,11,12
 46 517 46 517 76 517 c 2,13,-1
 210 517 l 1,14,-1
 210 670 l 2,15,16
 210 702 210 702 260 702 c 2,17,-1
 275 702 l 2,18,19
 325 702 325 702 325 670 c 2,20,-1
 325 517 l 1,21,-1
 459 517 l 2,22,23
 489 517 489 517 489 467 c 2,24,-1
 489 460 l 2,25,26
 489 410 489 410 459 410 c 2,27,-1
 325 410 l 1,28,-1
 325 149 l 1,29,-1
 459 149 l 2,30,31
 489 149 489 149 489 99 c 2,32,-1
 489 92 l 2,33,34
 489 42 489 42 459 42 c 2,35,-1
 325 42 l 1,36,-1
 325 -108 l 2,37,38
 325 -140 325 -140 275 -140 c 2,39,-1
 260 -140 l 2,40,41
 210 -140 210 -140 210 -108 c 2,42,-1
 210 42 l 1,43,-1
 76 42 l 2,0,1
EndSplineSet
EndChar

StartChar: bullet
Encoding: 8226 8226 224
Width: 336
GlyphClass: 2
Flags: W
LayerCount: 2
Fore
SplineSet
168 194 m 128,-1,1
 113 194 113 194 74.5 232.5 c 128,-1,2
 36 271 36 271 36 326 c 128,-1,3
 36 381 36 381 74.5 420 c 128,-1,4
 113 459 113 459 168 459 c 128,-1,5
 223 459 223 459 262 420 c 128,-1,6
 301 381 301 381 301 326 c 128,-1,7
 301 271 301 271 262 232.5 c 128,-1,0
 223 194 223 194 168 194 c 128,-1,1
EndSplineSet
EndChar

StartChar: ellipsis
Encoding: 8230 8230 225
Width: 617
GlyphClass: 2
Flags: W
LayerCount: 2
Fore
SplineSet
444 30 m 2,0,-1
 444 122 l 2,1,2
 444 154 444 154 504 154 c 2,3,-1
 536 154 l 2,4,5
 596 154 596 154 596 122 c 2,6,-1
 596 30 l 2,7,8
 596 -2 596 -2 536 -2 c 2,9,-1
 504 -2 l 2,10,11
 444 -2 444 -2 444 30 c 2,0,-1
234 30 m 2,12,-1
 234 122 l 2,13,14
 234 154 234 154 294 154 c 2,15,-1
 326 154 l 2,16,17
 386 154 386 154 386 122 c 2,18,-1
 386 30 l 2,19,20
 386 -2 386 -2 326 -2 c 2,21,-1
 294 -2 l 2,22,23
 234 -2 234 -2 234 30 c 2,12,-1
24 30 m 2,24,-1
 24 122 l 2,25,26
 24 154 24 154 84 154 c 2,27,-1
 116 154 l 2,28,29
 176 154 176 154 176 122 c 2,30,-1
 176 30 l 2,31,32
 176 -2 176 -2 116 -2 c 2,33,-1
 84 -2 l 2,34,35
 24 -2 24 -2 24 30 c 2,24,-1
EndSplineSet
EndChar

